G04*
G04 #@! TF.GenerationSoftware,Altium Limited,Altium Designer,24.1.2 (44)*
G04*
G04 Layer_Color=65535*
%FSLAX44Y44*%
%MOMM*%
G71*
G04*
G04 #@! TF.SameCoordinates,C4369FD5-868E-4899-82D4-6BE1F75B83E0*
G04*
G04*
G04 #@! TF.FilePolarity,Positive*
G04*
G01*
G75*
%ADD10C,0.1524*%
%ADD11C,0.2032*%
%ADD12C,0.2540*%
%ADD13C,0.7620*%
%ADD14C,0.2000*%
%ADD15C,0.1998*%
%ADD16C,0.1270*%
%ADD17R,2.5400X0.6350*%
%ADD18R,0.6350X2.5400*%
G36*
X1336050Y1156120D02*
X1326050D01*
X1328050Y1162120D01*
X1334050D01*
X1336050Y1156120D01*
D02*
G37*
G36*
X1264050D02*
X1254050D01*
X1256050Y1162120D01*
X1262050D01*
X1264050Y1156120D01*
D02*
G37*
G36*
X1333500Y1114660D02*
X1339850D01*
Y1109580D01*
X1333500D01*
Y1105770D01*
X1327150Y1112120D01*
X1333500Y1118470D01*
Y1114660D01*
D02*
G37*
G36*
X1336050Y1056590D02*
X1335893D01*
X1336050Y1056120D01*
X1326050D01*
X1326207Y1056590D01*
X1326050D01*
X1328050Y1062590D01*
X1334050D01*
X1336050Y1056590D01*
D02*
G37*
G36*
X1264050D02*
X1263893D01*
X1264050Y1056120D01*
X1254050D01*
X1254207Y1056590D01*
X1254050D01*
X1256050Y1062590D01*
X1262050D01*
X1264050Y1056590D01*
D02*
G37*
G36*
X1333500Y1015130D02*
X1339850D01*
Y1010050D01*
X1333500D01*
Y1006240D01*
X1327150Y1012590D01*
X1333500Y1018940D01*
Y1015130D01*
D02*
G37*
G36*
X1336050Y956590D02*
X1335940D01*
X1336050Y956260D01*
X1326050D01*
X1326160Y956590D01*
X1326050D01*
X1328050Y962590D01*
X1334050D01*
X1336050Y956590D01*
D02*
G37*
G36*
X1264050D02*
X1263940D01*
X1264050Y956260D01*
X1254050D01*
X1254160Y956590D01*
X1254050D01*
X1256050Y962590D01*
X1262050D01*
X1264050Y956590D01*
D02*
G37*
G36*
X1333500Y914800D02*
X1339850D01*
Y909720D01*
X1333500D01*
Y905910D01*
X1327150Y912260D01*
X1333500Y918610D01*
Y914800D01*
D02*
G37*
G36*
X1336050Y856260D02*
X1326050D01*
X1328050Y862260D01*
X1334050D01*
X1336050Y856260D01*
D02*
G37*
G36*
X1264050D02*
X1254050D01*
X1256050Y862260D01*
X1262050D01*
X1264050Y856260D01*
D02*
G37*
G36*
X1337320Y482150D02*
X1327320D01*
X1329320Y488150D01*
X1335320D01*
X1337320Y482150D01*
D02*
G37*
G36*
X1265320D02*
X1255320D01*
X1257320Y488150D01*
X1263320D01*
X1265320Y482150D01*
D02*
G37*
G36*
X1227792Y450447D02*
X1228195Y449475D01*
Y443125D01*
X1227792Y442153D01*
X1226820Y441751D01*
X1201420D01*
X1200448Y442153D01*
X1200045Y443125D01*
Y449475D01*
X1200448Y450447D01*
X1201420Y450850D01*
X1226820D01*
X1227792Y450447D01*
D02*
G37*
G36*
X1334770Y440690D02*
X1341120D01*
Y435610D01*
X1334770D01*
Y431800D01*
X1328420Y438150D01*
X1334770Y444500D01*
Y440690D01*
D02*
G37*
G36*
X1337320Y382150D02*
X1327320D01*
X1329320Y388150D01*
X1335320D01*
X1337320Y382150D01*
D02*
G37*
G36*
X1265320D02*
X1255320D01*
X1257320Y388150D01*
X1263320D01*
X1265320Y382150D01*
D02*
G37*
D10*
X781504Y939452D02*
G03*
X741813Y946094I-22044J-9815D01*
G01*
X781504Y919825D02*
G03*
X781504Y939455I-22044J9815D01*
G01*
X741813Y913186D02*
G03*
X781504Y919828I17648J16457D01*
G01*
X741680Y913330D02*
Y945950D01*
D11*
X601980Y948690D02*
G03*
X586740Y948690I-7620J4305D01*
G01*
Y920750D02*
G03*
X601980Y920750I7620J-4445D01*
G01*
X1294130Y807720D02*
G03*
X1243330Y756920I0J-50800D01*
G01*
X1344930D02*
G03*
X1294130Y807720I-50800J0D01*
G01*
Y706120D02*
G03*
X1344930Y756920I0J50800D01*
G01*
X1243330D02*
G03*
X1294130Y706120I50800J0D01*
G01*
X665480Y848360D02*
G03*
X665480Y863600I4445J7620D01*
G01*
X637540D02*
G03*
X637540Y848360I-4305J-7620D01*
G01*
X1062990Y1094740D02*
G03*
X1062990Y1079500I-4445J-7620D01*
G01*
X1090930D02*
G03*
X1090930Y1094740I4305J7620D01*
G01*
X1116330Y1045210D02*
G03*
X1116330Y1060450I4445J7620D01*
G01*
X1088390D02*
G03*
X1088390Y1045210I-4305J-7620D01*
G01*
X1206500Y996950D02*
G03*
X1221740Y996950I7620J-4445D01*
G01*
Y1024890D02*
G03*
X1206500Y1024890I-7620J4305D01*
G01*
Y1098550D02*
G03*
X1221740Y1098550I7620J-4445D01*
G01*
Y1126490D02*
G03*
X1206500Y1126490I-7620J4305D01*
G01*
X1207770Y891540D02*
G03*
X1223010Y891540I7620J-4445D01*
G01*
Y919480D02*
G03*
X1207770Y919480I-7620J4305D01*
G01*
X1295400Y529590D02*
G03*
X1346200Y580390I0J50800D01*
G01*
X1244600D02*
G03*
X1295400Y529590I50800J0D01*
G01*
Y631190D02*
G03*
X1244600Y580390I0J-50800D01*
G01*
X1346200D02*
G03*
X1295400Y631190I-50800J0D01*
G01*
X586740Y920750D02*
Y948690D01*
X601980Y920750D02*
Y948690D01*
X1289050Y820420D02*
Y840740D01*
X1296670Y820420D02*
Y840740D01*
X1266190Y830580D02*
X1286510D01*
X1299210D02*
X1319530D01*
X598170Y1103374D02*
Y1162374D01*
X725170D01*
Y1103374D02*
Y1162374D01*
X598170Y1103374D02*
X725170D01*
X619890Y537210D02*
Y664210D01*
Y537210D02*
X678890D01*
Y664210D01*
X619890D02*
X678890D01*
X637540Y863600D02*
X665480D01*
X637540Y848360D02*
X665480D01*
X1062990Y1079500D02*
X1090930D01*
X1062990Y1094740D02*
X1090930D01*
X1088390Y1060450D02*
X1116330D01*
X1088390Y1045210D02*
X1116330D01*
X1221740Y996950D02*
Y1024890D01*
X1206500Y996950D02*
Y1024890D01*
X1221740Y1098550D02*
Y1126490D01*
X1206500Y1098550D02*
Y1126490D01*
X1223010Y891540D02*
Y919480D01*
X1207770Y891540D02*
Y919480D01*
X1300480Y499110D02*
Y519430D01*
X1292860Y499110D02*
Y519430D01*
X1303020Y509270D02*
X1323340D01*
X1270000D02*
X1290320D01*
X619890Y674370D02*
Y801370D01*
Y674370D02*
X678890D01*
Y801370D01*
X619890D02*
X678890D01*
X1080770Y1112520D02*
Y1132840D01*
X1073150Y1112520D02*
Y1132840D01*
X1083310Y1122680D02*
X1103630D01*
X1050290D02*
X1070610D01*
X1016671Y422312D02*
Y405384D01*
X1020056Y401998D01*
X1026827D01*
X1030213Y405384D01*
Y422312D01*
X1050526Y418926D02*
X1047141Y422312D01*
X1040369D01*
X1036984Y418926D01*
Y415541D01*
X1040369Y412155D01*
X1047141D01*
X1050526Y408769D01*
Y405384D01*
X1047141Y401998D01*
X1040369D01*
X1036984Y405384D01*
X1057297Y422312D02*
Y401998D01*
X1067454D01*
X1070840Y405384D01*
Y408769D01*
X1067454Y412155D01*
X1057297D01*
X1067454D01*
X1070840Y415541D01*
Y418926D01*
X1067454Y422312D01*
X1057297D01*
D12*
X733200Y942340D02*
G03*
X733200Y942340I-60000J0D01*
G01*
X827400Y408940D02*
G03*
X827400Y408940I-40000J0D01*
G01*
X826130Y796290D02*
G03*
X826130Y796290I-40000J0D01*
G01*
Y586740D02*
G03*
X826130Y586740I-40000J0D01*
G01*
X1180300Y404538D02*
G03*
X1180300Y404538I-12499J0D01*
G01*
X1179030Y915078D02*
G03*
X1179030Y915078I-12499J0D01*
G01*
X933940D02*
G03*
X933940Y915078I-11250J0D01*
G01*
X936460Y403268D02*
G03*
X936460Y403268I-12499J0D01*
G01*
X700400Y1055370D02*
G03*
X700400Y1055370I-40000J0D01*
G01*
X958210Y1122680D02*
G03*
X958210Y1122680I-40000J0D01*
G01*
X1081718Y891223D02*
G03*
X1081718Y891223I-40000J0D01*
G01*
X870860Y919480D02*
G03*
X870860Y919480I-40000J0D01*
G01*
X594360Y454660D02*
X871220D01*
X594360Y873760D02*
X871220D01*
Y454660D02*
Y873760D01*
X594360Y454660D02*
Y873760D01*
Y993140D02*
X868680D01*
X594360Y1165860D02*
X868680D01*
Y993140D02*
Y1165860D01*
X594360Y993140D02*
Y1165860D01*
X1196340Y381000D02*
X1369060D01*
X1196340Y848360D02*
X1369060D01*
Y381000D02*
Y848360D01*
X1196340Y381000D02*
Y848360D01*
X873760Y993140D02*
X1191260D01*
X873760Y1165860D02*
X1191260D01*
Y993140D02*
Y1165860D01*
X873760Y993140D02*
Y1165860D01*
X1196340Y853440D02*
X1369060D01*
X1196340Y1165860D02*
X1369060D01*
Y853440D02*
Y1165860D01*
X1196340Y853440D02*
Y1165860D01*
X1201420Y406400D02*
X1226820D01*
Y457200D01*
X1201420D02*
X1226820D01*
X1201420Y406400D02*
Y457200D01*
X1241050Y962260D02*
X1343050D01*
X1329050Y947260D02*
X1343050D01*
X1329050Y927260D02*
Y947260D01*
Y927260D02*
X1343050D01*
X1329050Y897260D02*
X1343050D01*
X1329050Y877260D02*
Y897260D01*
Y877260D02*
X1343050D01*
X1241050Y862260D02*
Y962260D01*
Y862260D02*
X1343050D01*
Y962260D01*
X1241050Y1062590D02*
X1343050D01*
X1329050Y1047590D02*
X1343050D01*
X1329050Y1027590D02*
Y1047590D01*
Y1027590D02*
X1343050D01*
X1329050Y997590D02*
X1343050D01*
X1329050Y977590D02*
Y997590D01*
Y977590D02*
X1343050D01*
X1241050Y962590D02*
Y1062590D01*
Y962590D02*
X1343050D01*
Y1062590D01*
X1241050Y1162120D02*
X1343050D01*
X1329050Y1147120D02*
X1343050D01*
X1329050Y1127120D02*
Y1147120D01*
Y1127120D02*
X1343050D01*
X1329050Y1097120D02*
X1343050D01*
X1329050Y1077120D02*
Y1097120D01*
Y1077120D02*
X1343050D01*
X1241050Y1062120D02*
Y1162120D01*
Y1062120D02*
X1343050D01*
Y1162120D01*
X993176Y467403D02*
X1093506D01*
Y382313D02*
Y467403D01*
X993176Y382313D02*
X1093506D01*
X993176D02*
Y467403D01*
X902670Y933450D02*
X1182670D01*
Y383451D02*
Y933450D01*
X902670Y383451D02*
X1182670D01*
X902670D02*
Y933450D01*
X1344320Y388150D02*
Y488150D01*
X1242320Y388150D02*
X1344320D01*
X1242320D02*
Y488150D01*
X1330320Y403150D02*
X1344320D01*
X1330320D02*
Y423150D01*
X1344320D01*
X1330320Y453150D02*
X1344320D01*
X1330320D02*
Y473150D01*
X1344320D01*
X1242320Y488150D02*
X1344320D01*
X594360Y398777D02*
Y392006D01*
X597746Y388620D01*
X601131Y392006D01*
Y398777D01*
X609595Y388620D02*
X606209D01*
X604517Y390313D01*
Y393698D01*
X606209Y395391D01*
X609595D01*
X611288Y393698D01*
Y392006D01*
X604517D01*
X614673Y395391D02*
Y388620D01*
Y392006D01*
X616366Y393698D01*
X618059Y395391D01*
X619752D01*
X624830Y388620D02*
X629908D01*
X631601Y390313D01*
X629908Y392006D01*
X626523D01*
X624830Y393698D01*
X626523Y395391D01*
X631601D01*
X634987Y388620D02*
X638372D01*
X636680D01*
Y395391D01*
X634987D01*
X645144Y388620D02*
X648529D01*
X650222Y390313D01*
Y393698D01*
X648529Y395391D01*
X645144D01*
X643451Y393698D01*
Y390313D01*
X645144Y388620D01*
X653608D02*
Y395391D01*
X658686D01*
X660379Y393698D01*
Y388620D01*
X673921D02*
X677307D01*
X675614D01*
Y398777D01*
X673921Y397084D01*
X594360Y419942D02*
Y409786D01*
X599438D01*
X601131Y411478D01*
Y413171D01*
X599438Y414864D01*
X594360D01*
X599438D01*
X601131Y416557D01*
Y418250D01*
X599438Y419942D01*
X594360D01*
X606209Y416557D02*
X609595D01*
X611288Y414864D01*
Y409786D01*
X606209D01*
X604517Y411478D01*
X606209Y413171D01*
X611288D01*
X614673Y409786D02*
X618059D01*
X616366D01*
Y419942D01*
X614673D01*
X624830Y416557D02*
X628216D01*
X629908Y414864D01*
Y409786D01*
X624830D01*
X623137Y411478D01*
X624830Y413171D01*
X629908D01*
X633294Y409786D02*
Y416557D01*
X638372D01*
X640065Y414864D01*
Y409786D01*
X650222Y416557D02*
X645144D01*
X643451Y414864D01*
Y411478D01*
X645144Y409786D01*
X650222D01*
X653608D02*
X656993D01*
X655300D01*
Y416557D01*
X653608D01*
X662072Y409786D02*
Y416557D01*
X667150D01*
X668843Y414864D01*
Y409786D01*
X675614Y406400D02*
X677307D01*
X678999Y408093D01*
Y416557D01*
X673921D01*
X672228Y414864D01*
Y411478D01*
X673921Y409786D01*
X678999D01*
X692542D02*
Y419942D01*
X697620D01*
X699313Y418250D01*
Y414864D01*
X697620Y413171D01*
X692542D01*
X695927D02*
X699313Y409786D01*
X704391D02*
X707777D01*
X709470Y411478D01*
Y414864D01*
X707777Y416557D01*
X704391D01*
X702698Y414864D01*
Y411478D01*
X704391Y409786D01*
X712855Y419942D02*
Y409786D01*
X717934D01*
X719626Y411478D01*
Y413171D01*
Y414864D01*
X717934Y416557D01*
X712855D01*
X724705Y409786D02*
X728090D01*
X729783Y411478D01*
Y414864D01*
X728090Y416557D01*
X724705D01*
X723012Y414864D01*
Y411478D01*
X724705Y409786D01*
X734861Y418250D02*
Y416557D01*
X733169D01*
X736554D01*
X734861D01*
Y411478D01*
X736554Y409786D01*
X594360Y429260D02*
Y441956D01*
X602824Y429260D01*
Y441956D01*
X613404D02*
X609172D01*
X607056Y439840D01*
Y431376D01*
X609172Y429260D01*
X613404D01*
X615520Y431376D01*
Y439840D01*
X613404Y441956D01*
X619752D02*
Y429260D01*
X626100D01*
X628216Y431376D01*
Y439840D01*
X626100Y441956D01*
X619752D01*
X632448Y429260D02*
Y431376D01*
X634564D01*
Y429260D01*
X632448D01*
X643028Y441956D02*
Y429260D01*
X649376D01*
X651491Y431376D01*
Y439840D01*
X649376Y441956D01*
X643028D01*
X655723Y429260D02*
Y431376D01*
X657839D01*
Y429260D01*
X655723D01*
X666303Y441956D02*
X674767D01*
X670535D01*
Y429260D01*
X687463Y441956D02*
X678999D01*
Y429260D01*
X687463D01*
X678999Y435608D02*
X683231D01*
X700159Y439840D02*
X698043Y441956D01*
X693811D01*
X691695Y439840D01*
Y431376D01*
X693811Y429260D01*
X698043D01*
X700159Y431376D01*
X704391Y441956D02*
Y429260D01*
Y435608D01*
X712855D01*
Y441956D01*
Y429260D01*
X604520Y474977D02*
Y464820D01*
X609598D01*
X611291Y466513D01*
Y473284D01*
X609598Y474977D01*
X604520D01*
X614677Y471591D02*
Y464820D01*
Y468206D01*
X616370Y469898D01*
X618062Y471591D01*
X619755D01*
X624833Y464820D02*
X628219D01*
X626526D01*
Y471591D01*
X624833D01*
X633297D02*
X636683Y464820D01*
X640069Y471591D01*
X648532Y464820D02*
X645147D01*
X643454Y466513D01*
Y469898D01*
X645147Y471591D01*
X648532D01*
X650225Y469898D01*
Y468206D01*
X643454D01*
X653611Y471591D02*
Y464820D01*
Y468206D01*
X655304Y469898D01*
X656996Y471591D01*
X658689D01*
X663768Y464820D02*
X668846D01*
X670539Y466513D01*
X668846Y468206D01*
X665460D01*
X663768Y469898D01*
X665460Y471591D01*
X670539D01*
X604520Y482600D02*
Y492757D01*
X607906Y489371D01*
X611291Y492757D01*
Y482600D01*
X616370D02*
X619755D01*
X621448Y484293D01*
Y487678D01*
X619755Y489371D01*
X616370D01*
X614677Y487678D01*
Y484293D01*
X616370Y482600D01*
X626526Y491064D02*
Y489371D01*
X624833D01*
X628219D01*
X626526D01*
Y484293D01*
X628219Y482600D01*
X634990D02*
X638376D01*
X640069Y484293D01*
Y487678D01*
X638376Y489371D01*
X634990D01*
X633297Y487678D01*
Y484293D01*
X634990Y482600D01*
X643454Y489371D02*
Y482600D01*
Y485986D01*
X645147Y487678D01*
X646840Y489371D01*
X648532D01*
X881380Y1000760D02*
Y1010917D01*
X884766Y1007531D01*
X888151Y1010917D01*
Y1000760D01*
X891537D02*
Y1010917D01*
X896615D01*
X898308Y1009224D01*
Y1005838D01*
X896615Y1004146D01*
X891537D01*
X901693Y1010917D02*
Y1002453D01*
X903386Y1000760D01*
X906772D01*
X908465Y1002453D01*
Y1010917D01*
X928778D02*
X925393Y1009224D01*
X922007Y1005838D01*
Y1002453D01*
X923700Y1000760D01*
X927085D01*
X928778Y1002453D01*
Y1004146D01*
X927085Y1005838D01*
X922007D01*
X932164Y1009224D02*
X933856Y1010917D01*
X937242D01*
X938935Y1009224D01*
Y1002453D01*
X937242Y1000760D01*
X933856D01*
X932164Y1002453D01*
Y1009224D01*
X949091Y1010917D02*
X942320D01*
Y1005838D01*
X945706Y1007531D01*
X947399D01*
X949091Y1005838D01*
Y1002453D01*
X947399Y1000760D01*
X944013D01*
X942320Y1002453D01*
X952477Y1009224D02*
X954170Y1010917D01*
X957555D01*
X959248Y1009224D01*
Y1002453D01*
X957555Y1000760D01*
X954170D01*
X952477Y1002453D01*
Y1009224D01*
X1360594Y723900D02*
X1350438D01*
Y728978D01*
X1352130Y730671D01*
X1355516D01*
X1357209Y728978D01*
Y723900D01*
X1360594Y735750D02*
Y739135D01*
X1358902Y740828D01*
X1355516D01*
X1353823Y739135D01*
Y735750D01*
X1355516Y734057D01*
X1358902D01*
X1360594Y735750D01*
X1353823Y744213D02*
X1358902D01*
X1360594Y745906D01*
X1358902Y747599D01*
X1360594Y749292D01*
X1358902Y750985D01*
X1353823D01*
X1360594Y759448D02*
Y756063D01*
X1358902Y754370D01*
X1355516D01*
X1353823Y756063D01*
Y759448D01*
X1355516Y761141D01*
X1357209D01*
Y754370D01*
X1353823Y764527D02*
X1360594D01*
X1357209D01*
X1355516Y766220D01*
X1353823Y767913D01*
Y769605D01*
X1352130Y791611D02*
X1350438Y789919D01*
Y786533D01*
X1352130Y784840D01*
X1353823D01*
X1355516Y786533D01*
Y789919D01*
X1357209Y791611D01*
X1358902D01*
X1360594Y789919D01*
Y786533D01*
X1358902Y784840D01*
X1353823Y794997D02*
X1358902D01*
X1360594Y796690D01*
Y801768D01*
X1353823D01*
X1363980Y805154D02*
X1353823D01*
Y810232D01*
X1355516Y811925D01*
X1358902D01*
X1360594Y810232D01*
Y805154D01*
X1363980Y815311D02*
X1353823D01*
Y820389D01*
X1355516Y822082D01*
X1358902D01*
X1360594Y820389D01*
Y815311D01*
Y825467D02*
Y828853D01*
Y827160D01*
X1350438D01*
Y825467D01*
X1353823Y833931D02*
X1358902D01*
X1360594Y835624D01*
Y840702D01*
X1362287D01*
X1363980Y839009D01*
Y837317D01*
X1360594Y840702D02*
X1353823D01*
X609600Y632460D02*
Y634999D01*
Y633730D01*
X601982D01*
X603252Y632460D01*
X601982Y638808D02*
X609600D01*
Y642617D01*
X608330Y643886D01*
X607061D01*
X605791Y642617D01*
Y638808D01*
Y642617D01*
X604522Y643886D01*
X603252D01*
X601982Y642617D01*
Y638808D01*
X609600Y609600D02*
Y612139D01*
Y610870D01*
X601982D01*
X603252Y609600D01*
X609600Y615948D02*
X604522D01*
X601982Y618487D01*
X604522Y621026D01*
X609600D01*
X605791D01*
Y615948D01*
X609600Y589278D02*
Y584200D01*
X604522Y589278D01*
X603252D01*
X601982Y588009D01*
Y585470D01*
X603252Y584200D01*
X609600Y591818D02*
X604522D01*
X601982Y594357D01*
X604522Y596896D01*
X609600D01*
X605791D01*
Y591818D01*
X609600Y563878D02*
Y558800D01*
X604522Y563878D01*
X603252D01*
X601982Y562609D01*
Y560070D01*
X603252Y558800D01*
X601982Y566418D02*
X609600D01*
Y570226D01*
X608330Y571496D01*
X607061D01*
X605791Y570226D01*
Y566418D01*
Y570226D01*
X604522Y571496D01*
X603252D01*
X601982Y570226D01*
Y566418D01*
Y538480D02*
X609600D01*
Y543558D01*
Y675640D02*
X601982D01*
Y679449D01*
X603252Y680718D01*
X605791D01*
X607061Y679449D01*
Y675640D01*
Y678179D02*
X609600Y680718D01*
Y701038D02*
Y695960D01*
X604522Y701038D01*
X603252D01*
X601982Y699769D01*
Y697230D01*
X603252Y695960D01*
X601982Y703577D02*
X609600D01*
Y707386D01*
X608330Y708656D01*
X607061D01*
X605791Y707386D01*
Y703577D01*
Y707386D01*
X604522Y708656D01*
X603252D01*
X601982Y707386D01*
Y703577D01*
X609600Y726438D02*
Y721360D01*
X604522Y726438D01*
X603252D01*
X601982Y725169D01*
Y722630D01*
X603252Y721360D01*
X609600Y728978D02*
X604522D01*
X601982Y731517D01*
X604522Y734056D01*
X609600D01*
X605791D01*
Y728978D01*
X609600Y746760D02*
Y749299D01*
Y748030D01*
X601982D01*
X603252Y746760D01*
X609600Y753108D02*
X604522D01*
X601982Y755647D01*
X604522Y758186D01*
X609600D01*
X605791D01*
Y753108D01*
X609600Y769620D02*
Y772159D01*
Y770890D01*
X601982D01*
X603252Y769620D01*
X601982Y775968D02*
X609600D01*
Y779777D01*
X608330Y781046D01*
X607061D01*
X605791Y779777D01*
Y775968D01*
Y779777D01*
X604522Y781046D01*
X603252D01*
X601982Y779777D01*
Y775968D01*
X1352552Y1076958D02*
X1351283Y1075689D01*
Y1073150D01*
X1352552Y1071880D01*
X1357630D01*
X1358900Y1073150D01*
Y1075689D01*
X1357630Y1076958D01*
X1353822Y1080767D02*
Y1083306D01*
X1355091Y1084576D01*
X1358900D01*
Y1080767D01*
X1357630Y1079498D01*
X1356361Y1080767D01*
Y1084576D01*
X1358900Y1087115D02*
Y1089654D01*
Y1088385D01*
X1351283D01*
Y1087115D01*
X1358900Y1093463D02*
Y1096002D01*
Y1094733D01*
X1353822D01*
Y1093463D01*
X1351283Y1099811D02*
X1358900D01*
Y1103620D01*
X1357630Y1104889D01*
X1356361D01*
X1355091D01*
X1353822Y1103620D01*
Y1099811D01*
X1358900Y977900D02*
X1351283D01*
X1353822Y980439D01*
X1351283Y982978D01*
X1358900D01*
Y986787D02*
Y989326D01*
X1357630Y990596D01*
X1355091D01*
X1353822Y989326D01*
Y986787D01*
X1355091Y985518D01*
X1357630D01*
X1358900Y986787D01*
X1351283Y998213D02*
X1358900D01*
Y994405D01*
X1357630Y993135D01*
X1355091D01*
X1353822Y994405D01*
Y998213D01*
X1358900Y1004561D02*
Y1002022D01*
X1357630Y1000753D01*
X1355091D01*
X1353822Y1002022D01*
Y1004561D01*
X1355091Y1005831D01*
X1356361D01*
Y1000753D01*
X1361440Y878840D02*
X1356362D01*
X1353822Y881379D01*
X1356362Y883918D01*
X1361440D01*
X1357631D01*
Y878840D01*
X1356362Y886458D02*
X1361440D01*
X1358901D01*
X1357631Y887727D01*
X1356362Y888997D01*
Y890266D01*
X1361440Y894075D02*
X1356362D01*
Y895345D01*
X1357631Y896614D01*
X1361440D01*
X1357631D01*
X1356362Y897884D01*
X1357631Y899153D01*
X1361440D01*
X1267458Y703577D02*
X1262380D01*
Y699769D01*
X1264919Y701038D01*
X1266189D01*
X1267458Y699769D01*
Y697230D01*
X1266189Y695960D01*
X1263650D01*
X1262380Y697230D01*
X1269997Y703577D02*
Y698499D01*
X1272537Y695960D01*
X1275076Y698499D01*
Y703577D01*
X1310640Y695960D02*
X1313179D01*
X1311910D01*
Y703577D01*
X1310640Y702308D01*
X1322066Y695960D02*
X1316988D01*
X1322066Y701038D01*
Y702308D01*
X1320797Y703577D01*
X1318257D01*
X1316988Y702308D01*
X1324606Y703577D02*
Y698499D01*
X1327145Y695960D01*
X1329684Y698499D01*
Y703577D01*
X1357632Y408938D02*
X1356362Y407669D01*
Y405130D01*
X1357632Y403860D01*
X1362710D01*
X1363980Y405130D01*
Y407669D01*
X1362710Y408938D01*
X1360171D01*
Y406399D01*
X1363980Y411478D02*
X1356362D01*
X1363980Y416556D01*
X1356362D01*
Y419095D02*
X1363980D01*
Y422904D01*
X1362710Y424173D01*
X1357632D01*
X1356362Y422904D01*
Y419095D01*
X1363980Y454660D02*
Y457199D01*
Y455930D01*
X1356362D01*
X1357632Y454660D01*
X1363980Y466086D02*
Y461008D01*
X1358902Y466086D01*
X1357632D01*
X1356362Y464817D01*
Y462277D01*
X1357632Y461008D01*
X1356362Y468625D02*
X1361441D01*
X1363980Y471165D01*
X1361441Y473704D01*
X1356362D01*
X797563Y1013460D02*
X805181D01*
Y1018538D01*
Y1022347D02*
Y1024886D01*
X803911Y1026156D01*
X801372D01*
X800102Y1024886D01*
Y1022347D01*
X801372Y1021077D01*
X803911D01*
X805181Y1022347D01*
X807720Y1031234D02*
Y1032504D01*
X806450Y1033773D01*
X800102D01*
Y1029965D01*
X801372Y1028695D01*
X803911D01*
X805181Y1029965D01*
Y1033773D01*
Y1036313D02*
Y1038852D01*
Y1037582D01*
X800102D01*
Y1036313D01*
Y1047739D02*
Y1043930D01*
X801372Y1042661D01*
X803911D01*
X805181Y1043930D01*
Y1047739D01*
X797563Y1057896D02*
X805181D01*
Y1062974D01*
Y1069322D02*
Y1066783D01*
X803911Y1065513D01*
X801372D01*
X800102Y1066783D01*
Y1069322D01*
X801372Y1070592D01*
X802642D01*
Y1065513D01*
X800102Y1073131D02*
X805181Y1075670D01*
X800102Y1078209D01*
X805181Y1084557D02*
Y1082018D01*
X803911Y1080748D01*
X801372D01*
X800102Y1082018D01*
Y1084557D01*
X801372Y1085827D01*
X802642D01*
Y1080748D01*
X805181Y1088366D02*
Y1090905D01*
Y1089635D01*
X797563D01*
Y1088366D01*
X798833Y1107410D02*
X797563Y1106140D01*
Y1103601D01*
X798833Y1102331D01*
X800102D01*
X801372Y1103601D01*
Y1106140D01*
X802642Y1107410D01*
X803911D01*
X805181Y1106140D01*
Y1103601D01*
X803911Y1102331D01*
X797563Y1109949D02*
X805181D01*
X801372D01*
X800102Y1111218D01*
Y1113758D01*
X801372Y1115027D01*
X805181D01*
Y1117566D02*
Y1120106D01*
Y1118836D01*
X800102D01*
Y1117566D01*
X805181Y1125184D02*
X798833D01*
X801372D01*
Y1123914D01*
Y1126453D01*
Y1125184D01*
X798833D01*
X797563Y1126453D01*
X798833Y1131532D02*
X800102D01*
Y1130262D01*
Y1132801D01*
Y1131532D01*
X803911D01*
X805181Y1132801D01*
Y1140419D02*
Y1137880D01*
X803911Y1136610D01*
X801372D01*
X800102Y1137880D01*
Y1140419D01*
X801372Y1141689D01*
X802642D01*
Y1136610D01*
X800102Y1144228D02*
X805181D01*
X802642D01*
X801372Y1145497D01*
X800102Y1146767D01*
Y1148036D01*
X825502Y1056640D02*
X833120D01*
X829311D01*
Y1061718D01*
X825502D01*
X833120D01*
X825502Y1064258D02*
X830581D01*
X833120Y1066797D01*
X830581Y1069336D01*
X825502D01*
X833120Y1082032D02*
X830581Y1079493D01*
X828042D01*
X825502Y1082032D01*
Y1090919D02*
Y1085841D01*
X829311D01*
X828042Y1088380D01*
Y1089649D01*
X829311Y1090919D01*
X831850D01*
X833120Y1089649D01*
Y1087110D01*
X831850Y1085841D01*
X825502Y1093458D02*
X830581D01*
X833120Y1095997D01*
X830581Y1098536D01*
X825502D01*
X833120Y1101076D02*
X830581Y1103615D01*
X828042D01*
X825502Y1101076D01*
X767083Y1054100D02*
X774700D01*
Y1059178D01*
X767083Y1061718D02*
X772161D01*
X774700Y1064257D01*
X772161Y1066796D01*
X767083D01*
X774700Y1079492D02*
X772161Y1076953D01*
X769622D01*
X767083Y1079492D01*
X768352Y1083301D02*
X767083Y1084570D01*
Y1087109D01*
X768352Y1088379D01*
X769622D01*
X770891Y1087109D01*
Y1085840D01*
Y1087109D01*
X772161Y1088379D01*
X773430D01*
X774700Y1087109D01*
Y1084570D01*
X773430Y1083301D01*
X767083Y1090918D02*
X772161D01*
X774700Y1093457D01*
X772161Y1095996D01*
X767083D01*
X768352Y1098536D02*
X767083Y1099805D01*
Y1102344D01*
X768352Y1103614D01*
X769622D01*
X770891Y1102344D01*
Y1101075D01*
Y1102344D01*
X772161Y1103614D01*
X773430D01*
X774700Y1102344D01*
Y1099805D01*
X773430Y1098536D01*
X774700Y1106153D02*
X772161Y1108692D01*
X769622D01*
X767083Y1106153D01*
X621032Y1176018D02*
X619762Y1174749D01*
Y1172210D01*
X621032Y1170940D01*
X626110D01*
X627380Y1172210D01*
Y1174749D01*
X626110Y1176018D01*
X623571D01*
Y1173479D01*
X627380Y1178558D02*
X619762D01*
X627380Y1183636D01*
X619762D01*
Y1186175D02*
X627380D01*
Y1189984D01*
X626110Y1191253D01*
X621032D01*
X619762Y1189984D01*
Y1186175D01*
X695963Y1176018D02*
Y1170940D01*
X699771D01*
X698502Y1173479D01*
Y1174749D01*
X699771Y1176018D01*
X702310D01*
X703580Y1174749D01*
Y1172210D01*
X702310Y1170940D01*
X695963Y1178558D02*
X701041D01*
X703580Y1181097D01*
X701041Y1183636D01*
X695963D01*
X668023Y1170940D02*
Y1176018D01*
Y1173479D01*
X675641D01*
X670563Y1178558D02*
X675641D01*
X673102D01*
X671832Y1179827D01*
X670563Y1181097D01*
Y1182366D01*
X675641Y1186175D02*
Y1188714D01*
Y1187445D01*
X670563D01*
Y1186175D01*
X678180Y1195062D02*
Y1196332D01*
X676910Y1197601D01*
X670563D01*
Y1193793D01*
X671832Y1192523D01*
X674371D01*
X675641Y1193793D01*
Y1197601D01*
X645163Y1176018D02*
Y1170940D01*
X652780D01*
Y1176018D01*
X648971Y1170940D02*
Y1173479D01*
X647702Y1183636D02*
Y1179827D01*
X648971Y1178558D01*
X651510D01*
X652780Y1179827D01*
Y1183636D01*
X645163Y1186175D02*
X652780D01*
X648971D01*
X647702Y1187445D01*
Y1189984D01*
X648971Y1191253D01*
X652780D01*
Y1195062D02*
Y1197601D01*
X651510Y1198871D01*
X648971D01*
X647702Y1197601D01*
Y1195062D01*
X648971Y1193793D01*
X651510D01*
X652780Y1195062D01*
X1043947Y544402D02*
Y530860D01*
X1064260D01*
Y544402D01*
X1054103Y530860D02*
Y537631D01*
X1047332Y564716D02*
X1043947Y561330D01*
Y554559D01*
X1047332Y551173D01*
X1050718D01*
X1054103Y554559D01*
Y561330D01*
X1057489Y564716D01*
X1060874D01*
X1064260Y561330D01*
Y554559D01*
X1060874Y551173D01*
X1064260Y571487D02*
X1043947D01*
Y581644D01*
X1047332Y585029D01*
X1054103D01*
X1057489Y581644D01*
Y571487D01*
X1047332Y591800D02*
X1043947Y595186D01*
Y601957D01*
X1047332Y605343D01*
X1050718D01*
X1054103Y601957D01*
Y598571D01*
Y601957D01*
X1057489Y605343D01*
X1060874D01*
X1064260Y601957D01*
Y595186D01*
X1060874Y591800D01*
X1064260Y625656D02*
Y612114D01*
X1050718Y625656D01*
X1047332D01*
X1043947Y622270D01*
Y615499D01*
X1047332Y612114D01*
X1043947Y652740D02*
X1064260D01*
X1057489Y659512D01*
X1064260Y666283D01*
X1043947D01*
X1050718Y673054D02*
X1064260D01*
X1057489D01*
X1054103Y676440D01*
X1050718Y679825D01*
Y683211D01*
X1064260Y696753D02*
Y703524D01*
X1060874Y706910D01*
X1054103D01*
X1050718Y703524D01*
Y696753D01*
X1054103Y693367D01*
X1060874D01*
X1064260Y696753D01*
Y717066D02*
Y723838D01*
X1060874Y727223D01*
X1054103D01*
X1050718Y723838D01*
Y717066D01*
X1054103Y713681D01*
X1060874D01*
X1064260Y717066D01*
Y733994D02*
X1050718D01*
Y737380D01*
X1054103Y740765D01*
X1064260D01*
X1054103D01*
X1050718Y744151D01*
X1054103Y747536D01*
X1064260D01*
X1210313Y805178D02*
X1207774Y807718D01*
X1202695D01*
X1200156Y805178D01*
Y795022D01*
X1202695Y792483D01*
X1207774D01*
X1210313Y795022D01*
X1215391Y792483D02*
X1220470D01*
X1217930D01*
Y807718D01*
X1215391Y805178D01*
X1228087D02*
X1230626Y807718D01*
X1235705D01*
X1238244Y805178D01*
Y802639D01*
X1235705Y800100D01*
X1233166D01*
X1235705D01*
X1238244Y797561D01*
Y795022D01*
X1235705Y792483D01*
X1230626D01*
X1228087Y795022D01*
X1210313Y836928D02*
X1207774Y839467D01*
X1202695D01*
X1200156Y836928D01*
Y826772D01*
X1202695Y824232D01*
X1207774D01*
X1210313Y826772D01*
X1215391Y824232D02*
X1220470D01*
X1217930D01*
Y839467D01*
X1215391Y836928D01*
X1235705Y824232D02*
Y839467D01*
X1228087Y831850D01*
X1238244D01*
X1203963Y500378D02*
Y485143D01*
X1211581D01*
X1214120Y487682D01*
Y497838D01*
X1211581Y500378D01*
X1203963D01*
X1219198Y485143D02*
X1224277D01*
X1221738D01*
Y500378D01*
X1219198Y497838D01*
X1200156Y693418D02*
Y680722D01*
X1202695Y678183D01*
X1207774D01*
X1210313Y680722D01*
Y693418D01*
X1225548Y678183D02*
X1215391D01*
X1225548Y688339D01*
Y690878D01*
X1223009Y693418D01*
X1217930D01*
X1215391Y690878D01*
X563884Y982982D02*
Y998217D01*
X571502D01*
X574041Y995678D01*
Y990600D01*
X571502Y988061D01*
X563884D01*
X568963D02*
X574041Y982982D01*
X579119Y998217D02*
X589276D01*
Y995678D01*
X579119Y985522D01*
Y982982D01*
X751840Y972822D02*
Y982978D01*
X749301Y985518D01*
X744222D01*
X741683Y982978D01*
Y972822D01*
X744222Y970283D01*
X749301D01*
X746762Y975361D02*
X751840Y970283D01*
X749301D02*
X751840Y972822D01*
X756918Y970283D02*
X761997D01*
X759458D01*
Y985518D01*
X756918Y982978D01*
X732028Y1187953D02*
Y1175257D01*
X734567Y1172718D01*
X739645D01*
X742185Y1175257D01*
Y1187953D01*
X757420D02*
X747263D01*
Y1180335D01*
X752341Y1182875D01*
X754881D01*
X757420Y1180335D01*
Y1175257D01*
X754881Y1172718D01*
X749802D01*
X747263Y1175257D01*
X612144Y825502D02*
Y840738D01*
X619762D01*
X622301Y838198D01*
Y833120D01*
X619762Y830581D01*
X612144D01*
X617223D02*
X622301Y825502D01*
X637536Y840738D02*
X632458Y838198D01*
X627379Y833120D01*
Y828042D01*
X629918Y825502D01*
X634997D01*
X637536Y828042D01*
Y830581D01*
X634997Y833120D01*
X627379D01*
X1170944Y965202D02*
Y980437D01*
X1178562D01*
X1181101Y977898D01*
Y972820D01*
X1178562Y970281D01*
X1170944D01*
X1176022D02*
X1181101Y965202D01*
X1196336Y980437D02*
X1186179D01*
Y972820D01*
X1191257Y975359D01*
X1193797D01*
X1196336Y972820D01*
Y967742D01*
X1193797Y965202D01*
X1188718D01*
X1186179Y967742D01*
X1170944Y939802D02*
Y955038D01*
X1178562D01*
X1181101Y952498D01*
Y947420D01*
X1178562Y944881D01*
X1170944D01*
X1176022D02*
X1181101Y939802D01*
X1193797D02*
Y955038D01*
X1186179Y947420D01*
X1196336D01*
X1200154Y1170940D02*
Y1186175D01*
X1207772D01*
X1210311Y1183636D01*
Y1178558D01*
X1207772Y1176018D01*
X1200154D01*
X1205232D02*
X1210311Y1170940D01*
X1215389Y1183636D02*
X1217928Y1186175D01*
X1223007D01*
X1225546Y1183636D01*
Y1181097D01*
X1223007Y1178558D01*
X1220468D01*
X1223007D01*
X1225546Y1176018D01*
Y1173479D01*
X1223007Y1170940D01*
X1217928D01*
X1215389Y1173479D01*
X1022354Y1045212D02*
Y1060447D01*
X1029972D01*
X1032511Y1057908D01*
Y1052830D01*
X1029972Y1050291D01*
X1022354D01*
X1027432D02*
X1032511Y1045212D01*
X1047746D02*
X1037589D01*
X1047746Y1055369D01*
Y1057908D01*
X1045207Y1060447D01*
X1040128D01*
X1037589Y1057908D01*
X998223Y1079502D02*
Y1094737D01*
X1005841D01*
X1008380Y1092198D01*
Y1087120D01*
X1005841Y1084581D01*
X998223D01*
X1003302D02*
X1008380Y1079502D01*
X1013458D02*
X1018537D01*
X1015998D01*
Y1094737D01*
X1013458Y1092198D01*
X1215393Y520698D02*
X1212854Y523237D01*
X1207775D01*
X1205236Y520698D01*
Y510542D01*
X1207775Y508003D01*
X1212854D01*
X1215393Y510542D01*
X1220471Y508003D02*
X1225550D01*
X1223010D01*
Y523237D01*
X1220471Y520698D01*
X1243324Y508003D02*
X1233167D01*
X1243324Y518159D01*
Y520698D01*
X1240785Y523237D01*
X1235706D01*
X1233167Y520698D01*
X1214123Y551178D02*
X1211584Y553717D01*
X1206505D01*
X1203966Y551178D01*
Y541022D01*
X1206505Y538483D01*
X1211584D01*
X1214123Y541022D01*
X1219201Y538483D02*
X1224280D01*
X1221740D01*
Y553717D01*
X1219201Y551178D01*
X1231897Y538483D02*
X1236975D01*
X1234436D01*
Y553717D01*
X1231897Y551178D01*
X759463Y537208D02*
X756924Y539748D01*
X751845D01*
X749306Y537208D01*
Y527052D01*
X751845Y524512D01*
X756924D01*
X759463Y527052D01*
X764541Y524512D02*
X769620D01*
X767080D01*
Y539748D01*
X764541Y537208D01*
X777237D02*
X779776Y539748D01*
X784855D01*
X787394Y537208D01*
Y527052D01*
X784855Y524512D01*
X779776D01*
X777237Y527052D01*
Y537208D01*
X759461Y748028D02*
X756922Y750567D01*
X751843D01*
X749304Y748028D01*
Y737872D01*
X751843Y735332D01*
X756922D01*
X759461Y737872D01*
X764539D02*
X767078Y735332D01*
X772157D01*
X774696Y737872D01*
Y748028D01*
X772157Y750567D01*
X767078D01*
X764539Y748028D01*
Y745489D01*
X767078Y742950D01*
X774696D01*
X802383Y980944D02*
X799844Y983483D01*
X794765D01*
X792226Y980944D01*
Y970787D01*
X794765Y968248D01*
X799844D01*
X802383Y970787D01*
X807461Y980944D02*
X810000Y983483D01*
X815079D01*
X817618Y980944D01*
Y978405D01*
X815079Y975865D01*
X817618Y973326D01*
Y970787D01*
X815079Y968248D01*
X810000D01*
X807461Y970787D01*
Y973326D01*
X810000Y975865D01*
X807461Y978405D01*
Y980944D01*
X810000Y975865D02*
X815079D01*
X759461Y363218D02*
X756922Y365757D01*
X751843D01*
X749304Y363218D01*
Y353062D01*
X751843Y350522D01*
X756922D01*
X759461Y353062D01*
X764539Y365757D02*
X774696D01*
Y363218D01*
X764539Y353062D01*
Y350522D01*
X1013203Y952750D02*
X1010664Y955289D01*
X1005585D01*
X1003046Y952750D01*
Y942593D01*
X1005585Y940054D01*
X1010664D01*
X1013203Y942593D01*
X1028438Y940054D02*
X1018281D01*
X1028438Y950211D01*
Y952750D01*
X1025899Y955289D01*
X1020820D01*
X1018281Y952750D01*
X1042413Y1154934D02*
X1039874Y1157473D01*
X1034795D01*
X1032256Y1154934D01*
Y1144777D01*
X1034795Y1142238D01*
X1039874D01*
X1042413Y1144777D01*
X1047491Y1142238D02*
X1052569D01*
X1050030D01*
Y1157473D01*
X1047491Y1154934D01*
X746764Y863597D02*
Y850902D01*
X749303Y848363D01*
X754382D01*
X756921Y850902D01*
Y863597D01*
X769617Y848363D02*
Y863597D01*
X761999Y855980D01*
X772156D01*
X746764Y657858D02*
Y645162D01*
X749303Y642623D01*
X754382D01*
X756921Y645162D01*
Y657858D01*
X761999Y655318D02*
X764538Y657858D01*
X769617D01*
X772156Y655318D01*
Y652779D01*
X769617Y650240D01*
X767077D01*
X769617D01*
X772156Y647701D01*
Y645162D01*
X769617Y642623D01*
X764538D01*
X761999Y645162D01*
X903986Y958083D02*
Y945387D01*
X906525Y942848D01*
X911603D01*
X914143Y945387D01*
Y958083D01*
X919221Y942848D02*
X924299D01*
X921760D01*
Y958083D01*
X919221Y955544D01*
X1244604Y1071882D02*
Y1087117D01*
X1252222D01*
X1254761Y1084578D01*
Y1079500D01*
X1252222Y1076961D01*
X1244604D01*
X1259839Y1084578D02*
X1262378Y1087117D01*
X1267457D01*
X1269996Y1084578D01*
Y1082039D01*
X1267457Y1079500D01*
X1269996Y1076961D01*
Y1074422D01*
X1267457Y1071882D01*
X1262378D01*
X1259839Y1074422D01*
Y1076961D01*
X1262378Y1079500D01*
X1259839Y1082039D01*
Y1084578D01*
X1262378Y1079500D02*
X1267457D01*
X621034Y805182D02*
Y820417D01*
X628652D01*
X631191Y817878D01*
Y812800D01*
X628652Y810261D01*
X621034D01*
X636269Y820417D02*
X646426D01*
Y817878D01*
X636269Y807722D01*
Y805182D01*
X619764Y516893D02*
Y532127D01*
X627382D01*
X629921Y529588D01*
Y524510D01*
X627382Y521971D01*
X619764D01*
X645156Y532127D02*
X640078Y529588D01*
X634999Y524510D01*
Y519432D01*
X637538Y516893D01*
X642617D01*
X645156Y519432D01*
Y521971D01*
X642617Y524510D01*
X634999D01*
X1242064Y363223D02*
Y378457D01*
X1249682D01*
X1252221Y375918D01*
Y370840D01*
X1249682Y368301D01*
X1242064D01*
X1267456Y378457D02*
X1257299D01*
Y370840D01*
X1262377Y373379D01*
X1264917D01*
X1267456Y370840D01*
Y365762D01*
X1264917Y363223D01*
X1259838D01*
X1257299Y365762D01*
X1244604Y972822D02*
Y988057D01*
X1252222D01*
X1254761Y985518D01*
Y980440D01*
X1252222Y977901D01*
X1244604D01*
X1267457Y972822D02*
Y988057D01*
X1259839Y980440D01*
X1269996D01*
X1244604Y1137923D02*
Y1153158D01*
X1252222D01*
X1254761Y1150618D01*
Y1145540D01*
X1252222Y1143001D01*
X1244604D01*
X1259839Y1150618D02*
X1262378Y1153158D01*
X1267457D01*
X1269996Y1150618D01*
Y1148079D01*
X1267457Y1145540D01*
X1264918D01*
X1267457D01*
X1269996Y1143001D01*
Y1140462D01*
X1267457Y1137923D01*
X1262378D01*
X1259839Y1140462D01*
X571503Y1145543D02*
Y1160778D01*
X579121D01*
X581660Y1158238D01*
Y1153160D01*
X579121Y1150621D01*
X571503D01*
X586738Y1145543D02*
X591817D01*
X589278D01*
Y1160778D01*
X586738Y1158238D01*
X972820Y1170940D02*
Y1186175D01*
X977898Y1181097D01*
X982977Y1186175D01*
Y1170940D01*
X988055Y1186175D02*
Y1173479D01*
X990594Y1170940D01*
X995673D01*
X998212Y1173479D01*
Y1186175D01*
X1003290Y1170940D02*
X1008369D01*
X1005829D01*
Y1186175D01*
X1003290Y1183636D01*
X664312Y922026D02*
X679548D01*
Y932182D01*
X666852Y947418D02*
X664312Y944878D01*
Y939800D01*
X666852Y937261D01*
X669391D01*
X671930Y939800D01*
Y944878D01*
X674469Y947418D01*
X677008D01*
X679548Y944878D01*
Y939800D01*
X677008Y937261D01*
X679548Y952496D02*
Y957574D01*
Y955035D01*
X664312D01*
X666852Y952496D01*
X600992Y1029971D02*
X598452Y1027432D01*
Y1022353D01*
X600992Y1019814D01*
X611148D01*
X613688Y1022353D01*
Y1027432D01*
X611148Y1029971D01*
X613688Y1042667D02*
X598452D01*
X606070Y1035049D01*
Y1045206D01*
X889759Y1184144D02*
X887219Y1186683D01*
X882141D01*
X879602Y1184144D01*
Y1173987D01*
X882141Y1171448D01*
X887219D01*
X889759Y1173987D01*
X894837Y1184144D02*
X897376Y1186683D01*
X902455D01*
X904994Y1184144D01*
Y1181605D01*
X902455Y1179065D01*
X899915D01*
X902455D01*
X904994Y1176526D01*
Y1173987D01*
X902455Y1171448D01*
X897376D01*
X894837Y1173987D01*
D13*
X791210Y855980D02*
G03*
X791210Y855980I-5080J0D01*
G01*
Y648970D02*
G03*
X791210Y648970I-5080J0D01*
G01*
D14*
X828780Y665480D02*
Y868680D01*
X743480Y665480D02*
X828780D01*
X743480D02*
Y867940D01*
X744220Y868680D02*
X828780D01*
X743480Y867940D02*
X744220Y868680D01*
X828780Y458470D02*
Y661670D01*
X743480Y458470D02*
X828780D01*
X743480D02*
Y660930D01*
X744220Y661670D02*
X828780D01*
X743480Y660930D02*
X744220Y661670D01*
X1000760Y1004570D02*
Y1029970D01*
X1181062Y1004570D02*
Y1029970D01*
X972861Y1004570D02*
X1181062D01*
X972861D02*
Y1029970D01*
X1181062D01*
D15*
X1236980Y654050D02*
X1351280D01*
Y635000D02*
Y647700D01*
X1236980Y635000D02*
X1351280D01*
X1236980D02*
Y692150D01*
X1351280D01*
Y647700D02*
Y692150D01*
D16*
X865480Y1001790D02*
Y1162290D01*
X732180Y1001790D02*
X865480D01*
X732180D02*
Y1162290D01*
X865480D01*
D17*
X687070Y1106419D02*
D03*
X636270D02*
D03*
D18*
X622935Y626110D02*
D03*
Y575310D02*
D03*
Y763270D02*
D03*
Y712470D02*
D03*
M02*
