G04*
G04 #@! TF.GenerationSoftware,Altium Limited,Altium Designer,24.1.2 (44)*
G04*
G04 Layer_Physical_Order=2*
G04 Layer_Color=16711680*
%FSLAX44Y44*%
%MOMM*%
G71*
G04*
G04 #@! TF.SameCoordinates,C4369FD5-868E-4899-82D4-6BE1F75B83E0*
G04*
G04*
G04 #@! TF.FilePolarity,Positive*
G04*
G01*
G75*
%ADD20C,1.7780*%
%ADD45C,1.0160*%
%ADD46C,1.2700*%
%ADD47C,1.5240*%
%ADD48C,2.0320*%
%ADD49C,1.5748*%
%ADD50R,2.5000X1.5000*%
%ADD51O,2.5000X1.5000*%
%ADD52R,1.7780X1.7780*%
%ADD53R,1.9050X1.9050*%
%ADD54C,1.9050*%
%ADD55C,1.6510*%
%ADD56R,1.8000X2.0000*%
%ADD57O,3.0480X2.7940*%
%ADD58C,4.5720*%
%ADD59R,1.7780X1.7780*%
%ADD60R,3.0480X2.7940*%
G04:AMPARAMS|DCode=61|XSize=1.8mm|YSize=1.6mm|CornerRadius=0.4mm|HoleSize=0mm|Usage=FLASHONLY|Rotation=90.000|XOffset=0mm|YOffset=0mm|HoleType=Round|Shape=RoundedRectangle|*
%AMROUNDEDRECTD61*
21,1,1.8000,0.8000,0,0,90.0*
21,1,1.0000,1.6000,0,0,90.0*
1,1,0.8000,0.4000,0.5000*
1,1,0.8000,0.4000,-0.5000*
1,1,0.8000,-0.4000,-0.5000*
1,1,0.8000,-0.4000,0.5000*
%
%ADD61ROUNDEDRECTD61*%
%ADD62O,1.6000X1.8000*%
%ADD63O,1.8000X1.6000*%
G04:AMPARAMS|DCode=64|XSize=1.8mm|YSize=1.6mm|CornerRadius=0.4mm|HoleSize=0mm|Usage=FLASHONLY|Rotation=0.000|XOffset=0mm|YOffset=0mm|HoleType=Round|Shape=RoundedRectangle|*
%AMROUNDEDRECTD64*
21,1,1.8000,0.8000,0,0,0.0*
21,1,1.0000,1.6000,0,0,0.0*
1,1,0.8000,0.5000,-0.4000*
1,1,0.8000,-0.5000,-0.4000*
1,1,0.8000,-0.5000,0.4000*
1,1,0.8000,0.5000,0.4000*
%
%ADD64ROUNDEDRECTD64*%
%ADD65O,2.0320X1.7780*%
%ADD66R,1.5200X1.5200*%
%ADD67C,1.5200*%
%ADD68C,3.5000*%
%ADD69C,1.8000*%
%ADD70R,1.8000X1.8000*%
%ADD71R,1.5240X1.5240*%
%ADD72C,1.5240*%
%ADD73C,1.2700*%
G36*
X1343323Y1219125D02*
X1338791Y1218224D01*
X1334169Y1216309D01*
X1330008Y1213530D01*
X1326470Y1209992D01*
X1323691Y1205831D01*
X1321776Y1201209D01*
X1320800Y1196302D01*
Y1191298D01*
X1321776Y1186391D01*
X1323691Y1181769D01*
X1326470Y1177608D01*
X1330008Y1174071D01*
X1334169Y1171291D01*
X1338791Y1169376D01*
X1343698Y1168400D01*
X1348702D01*
X1353609Y1169376D01*
X1358231Y1171291D01*
X1362392Y1174071D01*
X1365930Y1177608D01*
X1368709Y1181769D01*
X1370624Y1186391D01*
X1371525Y1190923D01*
X1372795Y1190798D01*
Y358602D01*
X1371525Y358477D01*
X1370624Y363009D01*
X1368709Y367631D01*
X1365930Y371792D01*
X1362392Y375330D01*
X1358231Y378109D01*
X1353609Y380024D01*
X1348702Y381000D01*
X1343698D01*
X1338791Y380024D01*
X1334169Y378109D01*
X1330008Y375330D01*
X1326470Y371792D01*
X1323691Y367631D01*
X1321776Y363009D01*
X1320800Y358102D01*
Y353098D01*
X1321776Y348191D01*
X1323691Y343569D01*
X1326470Y339408D01*
X1330008Y335871D01*
X1334169Y333091D01*
X1338791Y331176D01*
X1343323Y330275D01*
X1343198Y329005D01*
X589742D01*
X589617Y330275D01*
X594149Y331176D01*
X598771Y333091D01*
X602932Y335871D01*
X606469Y339408D01*
X609249Y343569D01*
X611164Y348191D01*
X612140Y353098D01*
Y358102D01*
X611164Y363009D01*
X609249Y367631D01*
X606469Y371792D01*
X602932Y375330D01*
X598771Y378109D01*
X594149Y380024D01*
X589242Y381000D01*
X584238D01*
X579331Y380024D01*
X574709Y378109D01*
X570548Y375330D01*
X567010Y371792D01*
X564231Y367631D01*
X562316Y363009D01*
X561415Y358477D01*
X560145Y358602D01*
Y1190798D01*
X561415Y1190923D01*
X562316Y1186391D01*
X564231Y1181769D01*
X567010Y1177608D01*
X570548Y1174071D01*
X574709Y1171291D01*
X579331Y1169376D01*
X584238Y1168400D01*
X589242D01*
X594149Y1169376D01*
X598771Y1171291D01*
X602932Y1174071D01*
X606469Y1177608D01*
X609249Y1181769D01*
X611164Y1186391D01*
X612140Y1191298D01*
Y1196302D01*
X611164Y1201209D01*
X609249Y1205831D01*
X606469Y1209992D01*
X602932Y1213530D01*
X598771Y1216309D01*
X594149Y1218224D01*
X589617Y1219125D01*
X589742Y1220395D01*
X1343198D01*
X1343323Y1219125D01*
D02*
G37*
%LPC*%
G36*
X774700Y1192618D02*
X774700Y1192618D01*
X702684D01*
X702684Y1192618D01*
X700032Y1192269D01*
X697560Y1191245D01*
X695438Y1189616D01*
X695438Y1189616D01*
X648964Y1143142D01*
X648712Y1142814D01*
X642898Y1137000D01*
X641453Y1135891D01*
X639763Y1133689D01*
X638701Y1131125D01*
X638339Y1128374D01*
Y1126374D01*
X638701Y1123623D01*
X639763Y1121059D01*
X641453Y1118857D01*
X643654Y1117167D01*
X646218Y1116105D01*
X648970Y1115743D01*
X651721Y1116105D01*
X654286Y1117167D01*
X656487Y1118857D01*
X658177Y1121059D01*
X659239Y1123623D01*
X659350Y1124467D01*
X662469Y1127586D01*
X663739Y1127060D01*
Y1126374D01*
X664101Y1123623D01*
X665163Y1121059D01*
X666853Y1118857D01*
X669054Y1117167D01*
X671618Y1116105D01*
X674370Y1115743D01*
X677122Y1116105D01*
X679686Y1117167D01*
X681887Y1118857D01*
X683577Y1121059D01*
X684639Y1123623D01*
X684750Y1124467D01*
X687869Y1127586D01*
X689139Y1127060D01*
Y1126374D01*
X689501Y1123623D01*
X690563Y1121059D01*
X692253Y1118857D01*
X694454Y1117167D01*
X697019Y1116105D01*
X699770Y1115743D01*
X702522Y1116105D01*
X705086Y1117167D01*
X707287Y1118857D01*
X708977Y1121059D01*
X710039Y1123623D01*
X710401Y1126374D01*
Y1128374D01*
X710039Y1131125D01*
X708977Y1133689D01*
X707287Y1135891D01*
X705086Y1137581D01*
X702522Y1138643D01*
X700863Y1138861D01*
X700408Y1140202D01*
X713279Y1153072D01*
X737870D01*
Y1135380D01*
X758190D01*
Y1150978D01*
X759363Y1151464D01*
X791739Y1119089D01*
Y1066184D01*
X791739Y1066184D01*
X792088Y1063531D01*
X793112Y1061060D01*
X794740Y1058938D01*
X842384Y1011294D01*
X842917Y1010885D01*
X843392Y1010410D01*
X843973Y1010074D01*
X844506Y1009665D01*
X845127Y1009408D01*
X845708Y1009072D01*
X846357Y1008899D01*
X846978Y1008642D01*
X847644Y1008554D01*
X848292Y1008380D01*
X848964D01*
X849630Y1008292D01*
X850296Y1008380D01*
X850968D01*
X851616Y1008554D01*
X852282Y1008642D01*
X852903Y1008899D01*
X853552Y1009072D01*
X854133Y1009408D01*
X854754Y1009665D01*
X855287Y1010074D01*
X855868Y1010410D01*
X856343Y1010885D01*
X856876Y1011294D01*
X857285Y1011827D01*
X857760Y1012302D01*
X858096Y1012883D01*
X858505Y1013416D01*
X858762Y1014037D01*
X859098Y1014618D01*
X859271Y1015267D01*
X859529Y1015888D01*
X859616Y1016554D01*
X859790Y1017202D01*
Y1017874D01*
X859878Y1018540D01*
X859790Y1019206D01*
Y1019878D01*
X859616Y1020526D01*
X859529Y1021192D01*
X859271Y1021813D01*
X859098Y1022462D01*
X858762Y1023043D01*
X858505Y1023664D01*
X858096Y1024197D01*
X857760Y1024778D01*
X857285Y1025253D01*
X856876Y1025786D01*
X850179Y1032484D01*
X850219Y1032924D01*
X850678Y1033780D01*
X850968D01*
X851616Y1033954D01*
X852282Y1034042D01*
X852903Y1034299D01*
X853552Y1034472D01*
X854133Y1034808D01*
X854754Y1035065D01*
X855287Y1035474D01*
X855868Y1035810D01*
X856343Y1036285D01*
X856876Y1036694D01*
X857285Y1037227D01*
X857760Y1037702D01*
X858096Y1038283D01*
X858505Y1038816D01*
X858762Y1039437D01*
X859098Y1040018D01*
X859271Y1040667D01*
X859529Y1041288D01*
X859616Y1041954D01*
X859790Y1042602D01*
Y1043274D01*
X859878Y1043940D01*
X859790Y1044606D01*
Y1045278D01*
X859616Y1045926D01*
X859529Y1046592D01*
X859271Y1047213D01*
X859098Y1047862D01*
X858762Y1048443D01*
X858505Y1049064D01*
X858096Y1049597D01*
X857760Y1050178D01*
X857285Y1050653D01*
X856876Y1051186D01*
X850056Y1058007D01*
X850542Y1059180D01*
X850968D01*
X853552Y1059872D01*
X855868Y1061210D01*
X857760Y1063102D01*
X859098Y1065418D01*
X859790Y1068002D01*
Y1068070D01*
X849630D01*
Y1069340D01*
X848360D01*
Y1079500D01*
X848292D01*
X845708Y1078808D01*
X843392Y1077470D01*
X841500Y1075578D01*
X840162Y1073262D01*
X839470Y1070678D01*
Y1070252D01*
X838297Y1069766D01*
X830014Y1078048D01*
Y1137303D01*
X830014Y1137304D01*
X829665Y1139956D01*
X828641Y1142428D01*
X827012Y1144550D01*
X827012Y1144550D01*
X781946Y1189616D01*
X779824Y1191245D01*
X777352Y1192269D01*
X774700Y1192618D01*
D02*
G37*
G36*
X1155134Y1157960D02*
X1154430D01*
Y1139190D01*
X1173200D01*
Y1139894D01*
X1172430Y1143765D01*
X1170919Y1147412D01*
X1168726Y1150695D01*
X1165935Y1153486D01*
X1162653Y1155679D01*
X1159006Y1157190D01*
X1155134Y1157960D01*
D02*
G37*
G36*
X1151890D02*
X1151186D01*
X1147315Y1157190D01*
X1143668Y1155679D01*
X1140385Y1153486D01*
X1137594Y1150695D01*
X1135401Y1147412D01*
X1133890Y1143765D01*
X1133120Y1139894D01*
Y1139190D01*
X1151890D01*
Y1157960D01*
D02*
G37*
G36*
X1290320Y1153710D02*
D01*
Y1138390D01*
X1306785D01*
X1306591Y1140357D01*
X1305647Y1143469D01*
X1304114Y1146337D01*
X1302051Y1148851D01*
X1299537Y1150914D01*
X1296669Y1152447D01*
X1293557Y1153391D01*
X1290320Y1153710D01*
D02*
G37*
G36*
X1287780D02*
X1284543Y1153391D01*
X1281431Y1152447D01*
X1278563Y1150914D01*
X1276049Y1148851D01*
X1273986Y1146337D01*
X1272453Y1143469D01*
X1271509Y1140357D01*
X1271315Y1138390D01*
X1287780D01*
Y1153710D01*
D02*
G37*
G36*
X1000194Y1156690D02*
X999490D01*
Y1137920D01*
X1018260D01*
Y1138624D01*
X1017490Y1142495D01*
X1015979Y1146143D01*
X1013786Y1149425D01*
X1010995Y1152216D01*
X1007712Y1154409D01*
X1004065Y1155920D01*
X1000194Y1156690D01*
D02*
G37*
G36*
X996950D02*
X996246D01*
X992374Y1155920D01*
X988727Y1154409D01*
X985445Y1152216D01*
X982654Y1149425D01*
X980461Y1146143D01*
X978950Y1142495D01*
X978180Y1138624D01*
Y1137920D01*
X996950D01*
Y1156690D01*
D02*
G37*
G36*
X859790Y1155700D02*
X839470D01*
Y1135380D01*
X859790D01*
Y1155700D01*
D02*
G37*
G36*
X627570Y1138970D02*
X624840D01*
Y1128644D01*
X634166D01*
Y1132374D01*
X633942Y1134081D01*
X633283Y1135672D01*
X632234Y1137038D01*
X630868Y1138087D01*
X629277Y1138746D01*
X627570Y1138970D01*
D02*
G37*
G36*
X622300D02*
X619570D01*
X617863Y1138746D01*
X616272Y1138087D01*
X614906Y1137038D01*
X613857Y1135672D01*
X613198Y1134081D01*
X612974Y1132374D01*
Y1128644D01*
X622300D01*
Y1138970D01*
D02*
G37*
G36*
X1116481Y1133475D02*
X1116330D01*
Y1123950D01*
X1125855D01*
Y1124101D01*
X1125119Y1126847D01*
X1123698Y1129308D01*
X1121688Y1131318D01*
X1119227Y1132739D01*
X1116481Y1133475D01*
D02*
G37*
G36*
X937215Y1134110D02*
X936980D01*
Y1123950D01*
X947140D01*
Y1124185D01*
X946361Y1127092D01*
X944856Y1129698D01*
X942728Y1131826D01*
X940122Y1133331D01*
X937215Y1134110D01*
D02*
G37*
G36*
X934440D02*
X934205D01*
X931298Y1133331D01*
X928692Y1131826D01*
X926564Y1129698D01*
X925059Y1127092D01*
X924280Y1124185D01*
Y1123950D01*
X934440D01*
Y1134110D01*
D02*
G37*
G36*
X1113790Y1133475D02*
X1113639D01*
X1110893Y1132739D01*
X1108432Y1131318D01*
X1106422Y1129308D01*
X1105001Y1126847D01*
X1104265Y1124101D01*
Y1123950D01*
X1113790D01*
Y1133475D01*
D02*
G37*
G36*
X1306785Y1135850D02*
X1290320D01*
Y1120530D01*
X1293557Y1120849D01*
X1296669Y1121793D01*
X1299537Y1123326D01*
X1302051Y1125389D01*
X1304114Y1127903D01*
X1305647Y1130771D01*
X1306591Y1133884D01*
X1306785Y1135850D01*
D02*
G37*
G36*
X1287780D02*
X1271315D01*
X1271509Y1133884D01*
X1272453Y1130771D01*
X1273986Y1127903D01*
X1276049Y1125389D01*
X1278563Y1123326D01*
X1281431Y1121793D01*
X1284543Y1120849D01*
X1287780Y1120530D01*
D01*
Y1135850D01*
D02*
G37*
G36*
X1173200Y1136650D02*
X1154430D01*
Y1117880D01*
X1155134D01*
X1159006Y1118650D01*
X1162653Y1120161D01*
X1165935Y1122354D01*
X1168726Y1125145D01*
X1170919Y1128428D01*
X1172430Y1132075D01*
X1173200Y1135946D01*
Y1136650D01*
D02*
G37*
G36*
X1151890D02*
X1133120D01*
Y1135946D01*
X1133890Y1132075D01*
X1135401Y1128428D01*
X1137594Y1125145D01*
X1140385Y1122354D01*
X1143668Y1120161D01*
X1147315Y1118650D01*
X1151186Y1117880D01*
X1151890D01*
Y1136650D01*
D02*
G37*
G36*
X1018260Y1135380D02*
X999490D01*
Y1116610D01*
X1000194D01*
X1004065Y1117380D01*
X1007712Y1118891D01*
X1010995Y1121084D01*
X1013786Y1123875D01*
X1015979Y1127158D01*
X1017490Y1130805D01*
X1018260Y1134676D01*
Y1135380D01*
D02*
G37*
G36*
X996950D02*
X978180D01*
Y1134676D01*
X978950Y1130805D01*
X980461Y1127158D01*
X982654Y1123875D01*
X985445Y1121084D01*
X988727Y1118891D01*
X992374Y1117380D01*
X996246Y1116610D01*
X996950D01*
Y1135380D01*
D02*
G37*
G36*
X634166Y1126104D02*
X624840D01*
Y1115778D01*
X627570D01*
X629277Y1116002D01*
X630868Y1116661D01*
X632234Y1117710D01*
X633283Y1119076D01*
X633942Y1120667D01*
X634166Y1122374D01*
Y1126104D01*
D02*
G37*
G36*
X622300D02*
X612974D01*
Y1122374D01*
X613198Y1120667D01*
X613857Y1119076D01*
X614906Y1117710D01*
X616272Y1116661D01*
X617863Y1116002D01*
X619570Y1115778D01*
X622300D01*
Y1126104D01*
D02*
G37*
G36*
X1125855Y1121410D02*
X1116330D01*
Y1111885D01*
X1116481D01*
X1119227Y1112621D01*
X1121688Y1114042D01*
X1123698Y1116052D01*
X1125119Y1118513D01*
X1125855Y1121259D01*
Y1121410D01*
D02*
G37*
G36*
X1113790D02*
X1104265D01*
Y1121259D01*
X1105001Y1118513D01*
X1106422Y1116052D01*
X1108432Y1114042D01*
X1110893Y1112621D01*
X1113639Y1111885D01*
X1113790D01*
Y1121410D01*
D02*
G37*
G36*
X1040281Y1133475D02*
X1037439D01*
X1034693Y1132739D01*
X1032232Y1131318D01*
X1030222Y1129308D01*
X1028801Y1126847D01*
X1028065Y1124101D01*
Y1121259D01*
X1028801Y1118513D01*
X1030222Y1116052D01*
X1032232Y1114042D01*
X1034693Y1112621D01*
X1037439Y1111885D01*
X1040281D01*
X1043027Y1112621D01*
X1045488Y1114042D01*
X1047498Y1116052D01*
X1048919Y1118513D01*
X1049655Y1121259D01*
Y1124101D01*
X1048919Y1126847D01*
X1047498Y1129308D01*
X1045488Y1131318D01*
X1043027Y1132739D01*
X1040281Y1133475D01*
D02*
G37*
G36*
X947140Y1121410D02*
X936980D01*
Y1111250D01*
X937215D01*
X940122Y1112029D01*
X942728Y1113534D01*
X944856Y1115662D01*
X946361Y1118268D01*
X947140Y1121175D01*
Y1121410D01*
D02*
G37*
G36*
X934440D02*
X924280D01*
Y1121175D01*
X925059Y1118268D01*
X926564Y1115662D01*
X928692Y1113534D01*
X931298Y1112029D01*
X934205Y1111250D01*
X934440D01*
Y1121410D01*
D02*
G37*
G36*
X850968Y1130300D02*
X848292D01*
X845708Y1129608D01*
X843392Y1128270D01*
X841500Y1126378D01*
X840162Y1124062D01*
X839470Y1121478D01*
Y1118802D01*
X840162Y1116218D01*
X841500Y1113902D01*
X843392Y1112010D01*
X845708Y1110672D01*
X848292Y1109980D01*
X850968D01*
X853552Y1110672D01*
X855868Y1112010D01*
X857760Y1113902D01*
X859098Y1116218D01*
X859790Y1118802D01*
Y1121478D01*
X859098Y1124062D01*
X857760Y1126378D01*
X855868Y1128270D01*
X853552Y1129608D01*
X850968Y1130300D01*
D02*
G37*
G36*
X749368D02*
X746692D01*
X744108Y1129608D01*
X741792Y1128270D01*
X739900Y1126378D01*
X738562Y1124062D01*
X737870Y1121478D01*
Y1118802D01*
X738562Y1116218D01*
X739900Y1113902D01*
X741792Y1112010D01*
X744108Y1110672D01*
X746692Y1109980D01*
X749368D01*
X751952Y1110672D01*
X754268Y1112010D01*
X756160Y1113902D01*
X757498Y1116218D01*
X758190Y1118802D01*
Y1121478D01*
X757498Y1124062D01*
X756160Y1126378D01*
X754268Y1128270D01*
X751952Y1129608D01*
X749368Y1130300D01*
D02*
G37*
G36*
X1215491Y1161034D02*
X1212749D01*
X1210100Y1160324D01*
X1207726Y1158953D01*
X1205787Y1157014D01*
X1204416Y1154640D01*
X1203706Y1151991D01*
Y1149249D01*
X1204416Y1146600D01*
X1205153Y1145323D01*
Y1117018D01*
X1205459Y1114697D01*
X1206355Y1112534D01*
X1207780Y1110677D01*
X1221917Y1096540D01*
Y1083010D01*
X1220744Y1082524D01*
X1220514Y1082753D01*
X1218140Y1084124D01*
X1215491Y1084834D01*
X1212749D01*
X1210100Y1084124D01*
X1207726Y1082753D01*
X1205787Y1080814D01*
X1204416Y1078440D01*
X1203706Y1075791D01*
Y1073049D01*
X1204416Y1070400D01*
X1205787Y1068026D01*
X1207726Y1066087D01*
X1210100Y1064716D01*
X1212749Y1064006D01*
X1213804D01*
X1214330Y1062736D01*
X1212711Y1061116D01*
X1211806Y1061491D01*
X1209485Y1061797D01*
X1145757D01*
X1144480Y1062534D01*
X1141831Y1063244D01*
X1139089D01*
X1136440Y1062534D01*
X1134066Y1061163D01*
X1132127Y1059224D01*
X1130756Y1056850D01*
X1130046Y1054201D01*
Y1051459D01*
X1130756Y1048810D01*
X1132127Y1046436D01*
X1134066Y1044497D01*
X1136440Y1043126D01*
X1139089Y1042416D01*
X1141831D01*
X1144480Y1043126D01*
X1145757Y1043863D01*
X1205072D01*
X1205153Y1043723D01*
Y1015418D01*
X1205459Y1013097D01*
X1206355Y1010934D01*
X1207780Y1009077D01*
X1221917Y994939D01*
Y981410D01*
X1220744Y980924D01*
X1220514Y981153D01*
X1218140Y982524D01*
X1215491Y983234D01*
X1212749D01*
X1210100Y982524D01*
X1207726Y981153D01*
X1205787Y979214D01*
X1204416Y976840D01*
X1203706Y974191D01*
Y971449D01*
X1204416Y968800D01*
X1205787Y966426D01*
X1207726Y964487D01*
X1210100Y963116D01*
X1212749Y962406D01*
X1215491D01*
X1218140Y963116D01*
X1219884Y964123D01*
X1221259Y963560D01*
X1221280Y963534D01*
X1221361Y963086D01*
X1211669Y953394D01*
X1211370Y953314D01*
X1210093Y952577D01*
X1075970D01*
X1073649Y952271D01*
X1071487Y951375D01*
X1069630Y949950D01*
X1044410Y924731D01*
X1042985Y922874D01*
X1042842Y922527D01*
X1022967Y902653D01*
X1015087D01*
Y980816D01*
X1041842Y1007571D01*
X1042774Y1007821D01*
X1045086Y1009156D01*
X1046974Y1011044D01*
X1048309Y1013356D01*
X1049000Y1015935D01*
Y1017377D01*
X1050270Y1017903D01*
X1054809Y1013364D01*
X1054811Y1013356D01*
X1056146Y1011044D01*
X1058034Y1009156D01*
X1060346Y1007821D01*
X1062925Y1007130D01*
X1065595D01*
X1068174Y1007821D01*
X1070486Y1009156D01*
X1072374Y1011044D01*
X1073709Y1013356D01*
X1074400Y1015935D01*
Y1018605D01*
X1073709Y1021184D01*
X1073227Y1022019D01*
Y1047533D01*
X1073964Y1048810D01*
X1074674Y1051459D01*
Y1054201D01*
X1073964Y1056850D01*
X1072593Y1059224D01*
X1070654Y1061163D01*
X1068280Y1062534D01*
X1065631Y1063244D01*
X1062889D01*
X1060240Y1062534D01*
X1057866Y1061163D01*
X1055927Y1059224D01*
X1054556Y1056850D01*
X1053846Y1054201D01*
Y1051459D01*
X1054556Y1048810D01*
X1055293Y1047533D01*
Y1039900D01*
X1054120Y1039414D01*
X1053434Y1040100D01*
X1051577Y1041525D01*
X1049414Y1042421D01*
X1047094Y1042727D01*
X976778D01*
X974457Y1042421D01*
X972294Y1041525D01*
X970437Y1040100D01*
X965230Y1034893D01*
X963805Y1033036D01*
X962909Y1030873D01*
X962603Y1028552D01*
Y950239D01*
X961333Y950072D01*
X960784Y952121D01*
X959614Y954149D01*
X957959Y955804D01*
X955931Y956974D01*
X953670Y957580D01*
X951330D01*
X949069Y956974D01*
X947041Y955804D01*
X945386Y954149D01*
X944216Y952121D01*
X943610Y949860D01*
Y947520D01*
X944216Y945259D01*
X944814Y944222D01*
Y922827D01*
X943641Y922341D01*
X941136Y924846D01*
Y944222D01*
X941734Y945259D01*
X942340Y947520D01*
Y949860D01*
X941734Y952121D01*
X940564Y954149D01*
X938909Y955804D01*
X936881Y956974D01*
X934620Y957580D01*
X932280D01*
X930019Y956974D01*
X927991Y955804D01*
X926336Y954149D01*
X925166Y952121D01*
X924560Y949860D01*
Y947520D01*
X925166Y945259D01*
X925764Y944222D01*
Y923948D01*
X924591Y923462D01*
X904328Y943725D01*
Y1111250D01*
X912140D01*
Y1134110D01*
X889280D01*
Y1125742D01*
X886834Y1123296D01*
X886834Y1123296D01*
X868525Y1104988D01*
X849630D01*
X848964Y1104900D01*
X848292D01*
X847644Y1104726D01*
X846978Y1104639D01*
X846357Y1104381D01*
X845708Y1104208D01*
X845127Y1103872D01*
X844506Y1103615D01*
X843973Y1103206D01*
X843392Y1102870D01*
X842917Y1102395D01*
X842384Y1101986D01*
X841975Y1101453D01*
X841500Y1100978D01*
X841164Y1100397D01*
X840755Y1099864D01*
X840498Y1099243D01*
X840162Y1098662D01*
X839989Y1098013D01*
X839732Y1097392D01*
X839644Y1096726D01*
X839470Y1096078D01*
Y1095406D01*
X839382Y1094740D01*
X839470Y1094074D01*
Y1093402D01*
X839644Y1092754D01*
X839732Y1092088D01*
X839989Y1091467D01*
X840162Y1090818D01*
X840498Y1090237D01*
X840755Y1089616D01*
X841164Y1089083D01*
X841500Y1088502D01*
X841975Y1088027D01*
X842384Y1087494D01*
X842917Y1087085D01*
X843392Y1086610D01*
X843973Y1086274D01*
X844506Y1085865D01*
X845127Y1085608D01*
X845708Y1085272D01*
X846357Y1085099D01*
X846978Y1084842D01*
X847644Y1084754D01*
X848292Y1084580D01*
X848964D01*
X849630Y1084492D01*
X872770D01*
X872770Y1084492D01*
X875422Y1084842D01*
X877894Y1085865D01*
X880016Y1087494D01*
X882659Y1090137D01*
X883832Y1089650D01*
Y939480D01*
X883832Y939480D01*
X884182Y936828D01*
X885205Y934356D01*
X886834Y932234D01*
X916590Y902478D01*
X916064Y901208D01*
X914400D01*
X911416Y900815D01*
X908636Y899663D01*
X906248Y897831D01*
X904416Y895444D01*
X903264Y892663D01*
X902871Y889679D01*
X903264Y886696D01*
X904416Y883915D01*
X906248Y881527D01*
X908636Y879695D01*
X911416Y878544D01*
X914400Y878151D01*
X916940D01*
X919924Y878544D01*
X922704Y879695D01*
X924472Y881052D01*
X925742Y880426D01*
Y873533D01*
X924472Y872907D01*
X922704Y874264D01*
X919924Y875415D01*
X916940Y875808D01*
X914400D01*
X911416Y875415D01*
X908636Y874264D01*
X906248Y872431D01*
X904416Y870044D01*
X903264Y867263D01*
X902871Y864279D01*
X903264Y861296D01*
X904416Y858515D01*
X906248Y856127D01*
X908636Y854295D01*
X911416Y853144D01*
X914400Y852751D01*
X916940D01*
X919924Y853144D01*
X922704Y854295D01*
X924472Y855652D01*
X925742Y855026D01*
Y848133D01*
X924472Y847507D01*
X922704Y848864D01*
X919924Y850015D01*
X916940Y850408D01*
X914400D01*
X911416Y850015D01*
X908636Y848864D01*
X906248Y847031D01*
X904416Y844644D01*
X903264Y841863D01*
X902871Y838879D01*
X903264Y835896D01*
X904416Y833115D01*
X906248Y830727D01*
X908636Y828895D01*
X911416Y827744D01*
X914400Y827351D01*
X916940D01*
X919924Y827744D01*
X922704Y828895D01*
X924472Y830252D01*
X925742Y829626D01*
Y822733D01*
X924472Y822107D01*
X922704Y823464D01*
X919924Y824615D01*
X916940Y825008D01*
X914400D01*
X911416Y824615D01*
X908636Y823464D01*
X906248Y821631D01*
X904416Y819244D01*
X903264Y816463D01*
X902871Y813479D01*
X903264Y810496D01*
X904416Y807715D01*
X906248Y805328D01*
X908636Y803495D01*
X911416Y802344D01*
X914400Y801951D01*
X916940D01*
X919924Y802344D01*
X922704Y803495D01*
X924472Y804852D01*
X925742Y804226D01*
Y797333D01*
X924472Y796707D01*
X922704Y798064D01*
X919924Y799215D01*
X916940Y799608D01*
X914400D01*
X911416Y799215D01*
X908636Y798064D01*
X906248Y796231D01*
X904416Y793844D01*
X903264Y791063D01*
X902871Y788079D01*
X903264Y785096D01*
X904416Y782315D01*
X906248Y779928D01*
X908636Y778095D01*
X911416Y776944D01*
X914400Y776551D01*
X916940D01*
X919924Y776944D01*
X922704Y778095D01*
X924472Y779452D01*
X925742Y778826D01*
Y771933D01*
X924472Y771307D01*
X922704Y772663D01*
X919924Y773815D01*
X916940Y774208D01*
X914400D01*
X911416Y773815D01*
X908636Y772663D01*
X906248Y770831D01*
X904416Y768444D01*
X903264Y765663D01*
X902871Y762679D01*
X903054Y761291D01*
X901851Y760697D01*
X894357Y768192D01*
Y919268D01*
X894357Y919268D01*
X894095Y921258D01*
X893328Y923111D01*
X892106Y924703D01*
X892106Y924703D01*
X838555Y978255D01*
X836963Y979476D01*
X835109Y980244D01*
X833120Y980506D01*
X601402D01*
X600754Y981153D01*
X598380Y982524D01*
X595731Y983234D01*
X592989D01*
X590340Y982524D01*
X587966Y981153D01*
X586027Y979214D01*
X584656Y976840D01*
X583946Y974191D01*
Y971449D01*
X584656Y968800D01*
X586027Y966426D01*
X587966Y964487D01*
X590340Y963116D01*
X592989Y962406D01*
X595731D01*
X598380Y963116D01*
X600754Y964487D01*
X601402Y965134D01*
X751664D01*
X752120Y963864D01*
X750314Y962058D01*
X748809Y959452D01*
X748030Y956545D01*
Y953535D01*
X748809Y950628D01*
X750314Y948022D01*
X752442Y945894D01*
X755048Y944389D01*
X757955Y943610D01*
X760965D01*
X763872Y944389D01*
X766478Y945894D01*
X768606Y948022D01*
X770111Y950628D01*
X770890Y953535D01*
Y956545D01*
X770111Y959452D01*
X768606Y962058D01*
X766800Y963864D01*
X767256Y965134D01*
X829936D01*
X878986Y916085D01*
Y765008D01*
X879248Y763019D01*
X880015Y761165D01*
X881237Y759573D01*
X902948Y737862D01*
X902871Y737279D01*
X903264Y734296D01*
X904416Y731515D01*
X906248Y729128D01*
X908636Y727295D01*
X911416Y726144D01*
X914400Y725751D01*
X916940D01*
X919924Y726144D01*
X922704Y727295D01*
X924472Y728652D01*
X925742Y728026D01*
Y721133D01*
X924472Y720507D01*
X922704Y721863D01*
X919924Y723015D01*
X916940Y723408D01*
X914400D01*
X911416Y723015D01*
X908636Y721863D01*
X906248Y720031D01*
X904416Y717644D01*
X903264Y714863D01*
X902871Y711879D01*
X903264Y708896D01*
X904416Y706115D01*
X906248Y703727D01*
X908636Y701895D01*
X911416Y700744D01*
X914400Y700351D01*
X916940D01*
X919924Y700744D01*
X922704Y701895D01*
X924472Y703252D01*
X925742Y702626D01*
Y695733D01*
X924472Y695107D01*
X922704Y696463D01*
X919924Y697615D01*
X916940Y698008D01*
X914400D01*
X911416Y697615D01*
X908636Y696463D01*
X906248Y694631D01*
X904416Y692244D01*
X903264Y689463D01*
X902871Y686479D01*
X903264Y683496D01*
X904416Y680715D01*
X906248Y678327D01*
X908636Y676495D01*
X911416Y675344D01*
X914400Y674951D01*
X916940D01*
X919924Y675344D01*
X922704Y676495D01*
X924472Y677852D01*
X925742Y677226D01*
Y670333D01*
X924472Y669707D01*
X922704Y671064D01*
X919924Y672215D01*
X916940Y672608D01*
X914400D01*
X911416Y672215D01*
X908636Y671064D01*
X906248Y669231D01*
X904416Y666844D01*
X903264Y664063D01*
X902871Y661079D01*
X903264Y658096D01*
X904416Y655315D01*
X906248Y652927D01*
X908636Y651095D01*
X911416Y649944D01*
X914400Y649551D01*
X916940D01*
X919924Y649944D01*
X922704Y651095D01*
X924472Y652452D01*
X925742Y651826D01*
Y644933D01*
X924472Y644307D01*
X922704Y645664D01*
X919924Y646815D01*
X916940Y647208D01*
X914400D01*
X911416Y646815D01*
X908636Y645664D01*
X906248Y643831D01*
X904416Y641444D01*
X903264Y638663D01*
X902871Y635679D01*
X903264Y632696D01*
X904416Y629915D01*
X906248Y627528D01*
X908636Y625695D01*
X911416Y624544D01*
X914400Y624151D01*
X916940D01*
X919924Y624544D01*
X922704Y625695D01*
X924472Y627052D01*
X925742Y626426D01*
Y619533D01*
X924472Y618907D01*
X922704Y620263D01*
X919924Y621415D01*
X916940Y621808D01*
X914400D01*
X911416Y621415D01*
X908636Y620263D01*
X906248Y618431D01*
X904416Y616044D01*
X903264Y613263D01*
X902871Y610279D01*
X903264Y607296D01*
X904416Y604515D01*
X906248Y602127D01*
X908636Y600295D01*
X911416Y599144D01*
X914400Y598751D01*
X916940D01*
X919924Y599144D01*
X922704Y600295D01*
X924472Y601652D01*
X925742Y601026D01*
Y594133D01*
X924472Y593507D01*
X922704Y594864D01*
X919924Y596015D01*
X916940Y596408D01*
X914400D01*
X911416Y596015D01*
X908636Y594864D01*
X906248Y593031D01*
X904416Y590644D01*
X903264Y587863D01*
X902871Y584879D01*
X903264Y581896D01*
X904416Y579115D01*
X906248Y576727D01*
X908636Y574895D01*
X911416Y573744D01*
X914400Y573351D01*
X916940D01*
X919924Y573744D01*
X922704Y574895D01*
X924472Y576252D01*
X925742Y575626D01*
Y568733D01*
X924472Y568107D01*
X922704Y569464D01*
X919924Y570615D01*
X916940Y571008D01*
Y559479D01*
Y547951D01*
X919924Y548344D01*
X922704Y549495D01*
X924472Y550852D01*
X925742Y550226D01*
Y543333D01*
X924472Y542707D01*
X922704Y544063D01*
X919924Y545215D01*
X916940Y545608D01*
X914400D01*
X911416Y545215D01*
X908636Y544063D01*
X906248Y542231D01*
X904416Y539844D01*
X903264Y537063D01*
X902871Y534079D01*
X903264Y531096D01*
X904416Y528315D01*
X906248Y525928D01*
X908636Y524095D01*
X911416Y522944D01*
X914400Y522551D01*
X916940D01*
X919924Y522944D01*
X922704Y524095D01*
X924472Y525452D01*
X925742Y524826D01*
Y517933D01*
X924472Y517307D01*
X922704Y518663D01*
X919924Y519815D01*
X916940Y520208D01*
X914400D01*
X911416Y519815D01*
X908636Y518663D01*
X906248Y516831D01*
X904416Y514444D01*
X903264Y511663D01*
X902871Y508679D01*
X903264Y505696D01*
X904416Y502915D01*
X906248Y500527D01*
X908636Y498695D01*
X911416Y497544D01*
X914400Y497151D01*
X916940D01*
X919924Y497544D01*
X922704Y498695D01*
X924472Y500052D01*
X925742Y499426D01*
Y492533D01*
X924472Y491907D01*
X922704Y493264D01*
X919924Y494415D01*
X916940Y494808D01*
X914400D01*
X911416Y494415D01*
X908636Y493264D01*
X906248Y491431D01*
X904416Y489044D01*
X903264Y486263D01*
X902871Y483279D01*
X903264Y480296D01*
X904416Y477515D01*
X906248Y475127D01*
X908636Y473295D01*
X911416Y472144D01*
X914400Y471751D01*
X916940D01*
X919924Y472144D01*
X922704Y473295D01*
X924472Y474652D01*
X925742Y474026D01*
Y467133D01*
X924472Y466507D01*
X922704Y467864D01*
X919924Y469015D01*
X916940Y469408D01*
X914400D01*
X911416Y469015D01*
X908636Y467864D01*
X906248Y466031D01*
X904416Y463644D01*
X903264Y460863D01*
X902871Y457879D01*
X903264Y454896D01*
X904416Y452115D01*
X906248Y449728D01*
X908636Y447895D01*
X911416Y446744D01*
X914400Y446351D01*
X915210D01*
X915736Y445081D01*
X914664Y444008D01*
X914400D01*
X911416Y443615D01*
X908636Y442463D01*
X906248Y440631D01*
X904416Y438244D01*
X903264Y435463D01*
X902871Y432479D01*
X903264Y429496D01*
X904416Y426715D01*
X905781Y424936D01*
X905155Y423666D01*
X892035D01*
X858597Y457104D01*
Y461946D01*
X859693Y462400D01*
X861791Y464009D01*
X863400Y466107D01*
X864412Y468549D01*
X864464Y468945D01*
X877360Y481842D01*
X878785Y483699D01*
X879681Y485862D01*
X879987Y488182D01*
X879987Y488183D01*
Y661167D01*
X879987Y661168D01*
X879681Y663488D01*
X878785Y665651D01*
X877360Y667508D01*
X864464Y680405D01*
X864412Y680801D01*
X863400Y683243D01*
X861791Y685341D01*
X859693Y686950D01*
X857251Y687962D01*
X854630Y688307D01*
X844630D01*
X842009Y687962D01*
X839567Y686950D01*
X837469Y685341D01*
X835860Y683243D01*
X834848Y680801D01*
X834503Y678180D01*
X834848Y675559D01*
X835860Y673117D01*
X837469Y671019D01*
X839567Y669410D01*
X842009Y668398D01*
X844630Y668053D01*
X851453D01*
X861306Y658201D01*
X861277Y658126D01*
X859745Y657700D01*
X859693Y657740D01*
X857251Y658752D01*
X854630Y659097D01*
X844630D01*
X842009Y658752D01*
X839567Y657740D01*
X837469Y656131D01*
X835860Y654033D01*
X834848Y651591D01*
X834503Y648970D01*
X834848Y646349D01*
X835860Y643907D01*
X837469Y641809D01*
X839567Y640200D01*
X842009Y639188D01*
X844630Y638843D01*
X854630D01*
X857251Y639188D01*
X859693Y640200D01*
X860783Y641036D01*
X862053Y640410D01*
Y632130D01*
X860783Y631504D01*
X859693Y632340D01*
X857251Y633352D01*
X854630Y633697D01*
X844630D01*
X842009Y633352D01*
X839567Y632340D01*
X837469Y630731D01*
X835860Y628633D01*
X834848Y626191D01*
X834503Y623570D01*
X834848Y620949D01*
X835860Y618507D01*
X837469Y616409D01*
X839567Y614800D01*
X842009Y613788D01*
X844630Y613443D01*
X854630D01*
X857251Y613788D01*
X859693Y614800D01*
X860783Y615636D01*
X862053Y615010D01*
Y606730D01*
X860783Y606104D01*
X859693Y606940D01*
X857251Y607952D01*
X854630Y608297D01*
X844630D01*
X842009Y607952D01*
X839567Y606940D01*
X837469Y605331D01*
X835860Y603233D01*
X834848Y600791D01*
X834503Y598170D01*
X834848Y595549D01*
X835860Y593107D01*
X837469Y591009D01*
X839567Y589400D01*
X842009Y588388D01*
X844630Y588043D01*
X854630D01*
X857251Y588388D01*
X859693Y589400D01*
X860783Y590236D01*
X862053Y589610D01*
Y581330D01*
X860783Y580704D01*
X859693Y581540D01*
X857251Y582552D01*
X854630Y582897D01*
X844630D01*
X842009Y582552D01*
X839567Y581540D01*
X837469Y579931D01*
X835860Y577833D01*
X834848Y575391D01*
X834503Y572770D01*
X834848Y570149D01*
X835860Y567707D01*
X837469Y565609D01*
X839567Y564000D01*
X842009Y562988D01*
X844630Y562643D01*
X854630D01*
X857251Y562988D01*
X859693Y564000D01*
X860783Y564836D01*
X862053Y564210D01*
Y555930D01*
X860783Y555304D01*
X859693Y556140D01*
X857251Y557152D01*
X854630Y557497D01*
X844630D01*
X842009Y557152D01*
X839567Y556140D01*
X837469Y554531D01*
X835860Y552433D01*
X834848Y549991D01*
X834503Y547370D01*
X834848Y544749D01*
X835860Y542307D01*
X837469Y540209D01*
X839567Y538600D01*
X842009Y537588D01*
X844630Y537243D01*
X854630D01*
X857251Y537588D01*
X859693Y538600D01*
X860783Y539436D01*
X862053Y538810D01*
Y530530D01*
X860783Y529904D01*
X859693Y530740D01*
X857251Y531752D01*
X854630Y532097D01*
X844630D01*
X842009Y531752D01*
X839567Y530740D01*
X837469Y529131D01*
X835860Y527033D01*
X834848Y524591D01*
X834503Y521970D01*
X834848Y519349D01*
X835860Y516907D01*
X837469Y514809D01*
X839567Y513200D01*
X842009Y512188D01*
X844630Y511843D01*
X854630D01*
X857251Y512188D01*
X859693Y513200D01*
X860783Y514036D01*
X862053Y513410D01*
Y505130D01*
X860783Y504504D01*
X859693Y505340D01*
X857251Y506352D01*
X854630Y506697D01*
X844630D01*
X842009Y506352D01*
X839567Y505340D01*
X837469Y503731D01*
X835860Y501633D01*
X834848Y499191D01*
X834503Y496570D01*
X834848Y493949D01*
X835860Y491507D01*
X837469Y489409D01*
X839567Y487800D01*
X842009Y486788D01*
X844630Y486443D01*
X854630D01*
X854940Y486484D01*
X855502Y485345D01*
X851453Y481297D01*
X844630D01*
X842009Y480952D01*
X839567Y479940D01*
X837469Y478331D01*
X835860Y476233D01*
X834848Y473791D01*
X834503Y471170D01*
X834848Y468549D01*
X835860Y466107D01*
X837469Y464009D01*
X839567Y462400D01*
X840663Y461946D01*
Y453390D01*
X840969Y451069D01*
X841865Y448907D01*
X843290Y447050D01*
X881980Y408359D01*
X883837Y406934D01*
X886000Y406038D01*
X888321Y405733D01*
X913467D01*
X913899Y404463D01*
X911677Y402758D01*
X909079Y400160D01*
X813943D01*
X813457Y401333D01*
X814046Y401922D01*
X815551Y404528D01*
X816330Y407435D01*
Y407670D01*
X793470D01*
Y407435D01*
X794249Y404528D01*
X794284Y404468D01*
X793268Y403688D01*
X782710Y414246D01*
Y423580D01*
X782710Y423580D01*
X782273Y426895D01*
X780993Y429985D01*
X778958Y432638D01*
X737134Y474462D01*
X736400Y476233D01*
X734791Y478331D01*
X732693Y479940D01*
X731903Y480267D01*
X731688Y480548D01*
X729348Y482888D01*
X726695Y484923D01*
X726091Y485173D01*
X726344Y486443D01*
X727630D01*
X730251Y486788D01*
X732693Y487800D01*
X734791Y489409D01*
X736400Y491507D01*
X737412Y493949D01*
X737589Y495300D01*
X722630D01*
Y496570D01*
X721360D01*
Y506697D01*
X717630D01*
X715009Y506352D01*
X712567Y505340D01*
X711510Y504529D01*
X710240Y505155D01*
Y513385D01*
X711510Y514011D01*
X712567Y513200D01*
X715009Y512188D01*
X717630Y511843D01*
X727630D01*
X730251Y512188D01*
X732693Y513200D01*
X734791Y514809D01*
X736400Y516907D01*
X737412Y519349D01*
X737757Y521970D01*
X737412Y524591D01*
X736400Y527033D01*
X734791Y529131D01*
X732693Y530740D01*
X730251Y531752D01*
X727630Y532097D01*
X717630D01*
X715009Y531752D01*
X712567Y530740D01*
X711510Y529929D01*
X710240Y530555D01*
Y538785D01*
X711510Y539411D01*
X712567Y538600D01*
X715009Y537588D01*
X717630Y537243D01*
X727630D01*
X730251Y537588D01*
X732693Y538600D01*
X734791Y540209D01*
X736400Y542307D01*
X737412Y544749D01*
X737757Y547370D01*
X737412Y549991D01*
X736400Y552433D01*
X734791Y554531D01*
X732693Y556140D01*
X730251Y557152D01*
X727630Y557497D01*
X717630D01*
X715009Y557152D01*
X712567Y556140D01*
X711510Y555329D01*
X710240Y555955D01*
Y564185D01*
X711510Y564811D01*
X712567Y564000D01*
X715009Y562988D01*
X717630Y562643D01*
X727630D01*
X730251Y562988D01*
X732693Y564000D01*
X734791Y565609D01*
X736400Y567707D01*
X737412Y570149D01*
X737757Y572770D01*
X737412Y575391D01*
X736400Y577833D01*
X734791Y579931D01*
X732693Y581540D01*
X730251Y582552D01*
X727630Y582897D01*
X717630D01*
X715009Y582552D01*
X712567Y581540D01*
X711510Y580729D01*
X710240Y581355D01*
Y589585D01*
X711510Y590211D01*
X712567Y589400D01*
X715009Y588388D01*
X717630Y588043D01*
X727630D01*
X730251Y588388D01*
X732693Y589400D01*
X734791Y591009D01*
X736400Y593107D01*
X737412Y595549D01*
X737757Y598170D01*
X737412Y600791D01*
X736400Y603233D01*
X734791Y605331D01*
X732693Y606940D01*
X730251Y607952D01*
X727630Y608297D01*
X717630D01*
X715009Y607952D01*
X712567Y606940D01*
X711510Y606129D01*
X710240Y606755D01*
Y614985D01*
X711510Y615611D01*
X712567Y614800D01*
X715009Y613788D01*
X717630Y613443D01*
X727630D01*
X730251Y613788D01*
X732218Y614603D01*
X763086D01*
X792200Y585489D01*
Y575310D01*
X815060D01*
Y598170D01*
X804881D01*
X773140Y629910D01*
X771283Y631335D01*
X769121Y632231D01*
X766800Y632537D01*
X732218D01*
X730251Y633352D01*
X727630Y633697D01*
X717630D01*
X715009Y633352D01*
X712567Y632340D01*
X711510Y631529D01*
X710240Y632155D01*
Y638930D01*
X721360D01*
Y648970D01*
Y659010D01*
X710240D01*
Y665370D01*
X722630D01*
X725945Y665807D01*
X729035Y667087D01*
X731323Y668843D01*
X732693Y669410D01*
X734791Y671019D01*
X736400Y673117D01*
X737412Y675559D01*
X737757Y678180D01*
X737412Y680801D01*
X736400Y683243D01*
X734791Y685341D01*
X732693Y686950D01*
X731323Y687517D01*
X729035Y689273D01*
X725945Y690553D01*
X722630Y690990D01*
X704046D01*
X681846Y713190D01*
Y847357D01*
X683019Y847843D01*
X683216Y847647D01*
X685590Y846276D01*
X688239Y845566D01*
X688340D01*
Y855980D01*
X689610D01*
Y857250D01*
X700024D01*
Y857351D01*
X699314Y860000D01*
X697943Y862374D01*
X696004Y864313D01*
X693630Y865684D01*
X690981Y866394D01*
X690703D01*
X690217Y867567D01*
X692343Y869694D01*
X811383D01*
X814698Y870130D01*
X817788Y871410D01*
X820441Y873445D01*
X855045Y908050D01*
X859790D01*
Y913888D01*
X860733Y916165D01*
X861170Y919480D01*
X860733Y922795D01*
X859790Y925072D01*
Y930910D01*
X853952D01*
X851675Y931853D01*
X848360Y932290D01*
X845045Y931853D01*
X842768Y930910D01*
X836930D01*
Y926165D01*
X824992Y914228D01*
X823976Y915008D01*
X824011Y915068D01*
X824790Y917975D01*
Y918210D01*
X814630D01*
Y908050D01*
X814865D01*
X817772Y908829D01*
X817832Y908864D01*
X818612Y907848D01*
X806077Y895313D01*
X768356D01*
X767870Y896486D01*
X768606Y897222D01*
X770111Y899828D01*
X770890Y902735D01*
Y902970D01*
X759460D01*
X748030D01*
Y902735D01*
X748809Y899828D01*
X750314Y897222D01*
X751050Y896486D01*
X750564Y895313D01*
X687037D01*
X683722Y894876D01*
X680632Y893596D01*
X677979Y891561D01*
X659978Y873560D01*
X657943Y870907D01*
X656663Y867817D01*
X656226Y864502D01*
Y782667D01*
X654956Y782414D01*
X654603Y783268D01*
X653554Y784634D01*
X652188Y785683D01*
X650597Y786342D01*
X648890Y786566D01*
X638890D01*
X637183Y786342D01*
X635592Y785683D01*
X634226Y784634D01*
X633177Y783268D01*
X632518Y781677D01*
X632294Y779970D01*
Y771970D01*
X632518Y770263D01*
X633177Y768672D01*
X634226Y767306D01*
X635592Y766257D01*
X637183Y765598D01*
X638890Y765374D01*
X648890D01*
X650597Y765598D01*
X652188Y766257D01*
X653554Y767306D01*
X654603Y768672D01*
X654956Y769526D01*
X656226Y769273D01*
Y754062D01*
X654956Y753810D01*
X654097Y755885D01*
X652407Y758087D01*
X650206Y759777D01*
X647642Y760839D01*
X644890Y761201D01*
X642890D01*
X640138Y760839D01*
X637575Y759777D01*
X635373Y758087D01*
X633683Y755885D01*
X632621Y753322D01*
X632259Y750570D01*
X632621Y747819D01*
X633683Y745255D01*
X635373Y743053D01*
X637575Y741363D01*
X640138Y740301D01*
X642890Y739939D01*
X644890D01*
X647642Y740301D01*
X650206Y741363D01*
X652407Y743053D01*
X654097Y745255D01*
X654956Y747330D01*
X656226Y747077D01*
Y728662D01*
X654956Y728410D01*
X654097Y730486D01*
X652407Y732687D01*
X650206Y734377D01*
X647642Y735439D01*
X644890Y735801D01*
X642890D01*
X640138Y735439D01*
X637575Y734377D01*
X635373Y732687D01*
X633683Y730486D01*
X632621Y727922D01*
X632259Y725170D01*
X632621Y722419D01*
X633683Y719855D01*
X635373Y717653D01*
X637575Y715963D01*
X640138Y714901D01*
X642890Y714539D01*
X644890D01*
X647642Y714901D01*
X650206Y715963D01*
X652407Y717653D01*
X654097Y719855D01*
X654956Y721930D01*
X656226Y721677D01*
Y707884D01*
X656663Y704569D01*
X657943Y701479D01*
X659978Y698826D01*
X684620Y674184D01*
Y488203D01*
X685057Y484888D01*
X686337Y481798D01*
X688372Y479145D01*
X702745Y464772D01*
X705398Y462737D01*
X708487Y461457D01*
X711803Y461020D01*
X714709D01*
X715912Y459452D01*
X757090Y418274D01*
Y408940D01*
X757527Y405625D01*
X758470Y403348D01*
Y397510D01*
X763214D01*
X782432Y378292D01*
X785085Y376257D01*
X788175Y374977D01*
X791490Y374540D01*
X791490Y374540D01*
X914384D01*
X917700Y374977D01*
X920789Y376257D01*
X923442Y378292D01*
X926040Y380890D01*
X1163373D01*
X1166688Y381327D01*
X1169778Y382607D01*
X1172431Y384642D01*
X1206059Y418271D01*
X1208095Y420924D01*
X1209374Y424013D01*
X1209811Y427329D01*
Y447476D01*
X1223178Y460842D01*
X1225213Y463495D01*
X1226493Y466585D01*
X1226930Y469900D01*
X1226493Y473215D01*
X1225213Y476305D01*
X1223178Y478958D01*
X1220525Y480993D01*
X1217435Y482273D01*
X1214120Y482710D01*
X1210805Y482273D01*
X1207715Y480993D01*
X1205062Y478958D01*
X1187944Y461839D01*
X1185908Y459186D01*
X1184628Y456097D01*
X1184192Y452781D01*
Y433279D01*
X1183614Y432830D01*
X1182260Y433386D01*
X1182076Y434784D01*
X1180924Y437564D01*
X1179092Y439952D01*
X1176704Y441784D01*
X1173924Y442936D01*
X1170940Y443329D01*
X1168400D01*
X1165416Y442936D01*
X1162636Y441784D01*
X1160248Y439952D01*
X1158416Y437564D01*
X1157264Y434784D01*
X1156871Y431800D01*
X1157264Y428816D01*
X1158416Y426036D01*
X1160248Y423648D01*
X1162636Y421816D01*
X1165416Y420664D01*
X1168400Y420271D01*
X1170033D01*
X1170559Y419001D01*
X1158067Y406510D01*
X978246D01*
X977815Y407780D01*
X978570Y408359D01*
X1155648Y585437D01*
X1156942Y584935D01*
X1157264Y582486D01*
X1158416Y579706D01*
X1160248Y577318D01*
X1162636Y575486D01*
X1165416Y574334D01*
X1168400Y573941D01*
X1170940D01*
X1173924Y574334D01*
X1176704Y575486D01*
X1179092Y577318D01*
X1180924Y579706D01*
X1182076Y582486D01*
X1182469Y585470D01*
X1182076Y588454D01*
X1180924Y591234D01*
X1179092Y593622D01*
X1176704Y595454D01*
X1173924Y596606D01*
X1170940Y596999D01*
X1169006D01*
X1168480Y598269D01*
X1169552Y599341D01*
X1170940D01*
X1173924Y599734D01*
X1176704Y600886D01*
X1179092Y602718D01*
X1180924Y605106D01*
X1182076Y607886D01*
X1182469Y610870D01*
X1182076Y613854D01*
X1180924Y616634D01*
X1179092Y619022D01*
X1176704Y620854D01*
X1173924Y622006D01*
X1170940Y622399D01*
X1168400D01*
X1165416Y622006D01*
X1162636Y620854D01*
X1160248Y619022D01*
X1158416Y616634D01*
X1157264Y613854D01*
X1157046Y612197D01*
X968515Y423666D01*
X926185D01*
X925559Y424936D01*
X926924Y426715D01*
X927326Y427686D01*
X929341Y429701D01*
X929955Y429955D01*
X932077Y431583D01*
X943236Y442743D01*
X943236Y442743D01*
X944865Y444865D01*
X945889Y447337D01*
X946238Y449989D01*
X946238Y449989D01*
Y845904D01*
X947411Y846390D01*
X1156948Y636853D01*
X1156871Y636270D01*
X1157264Y633286D01*
X1158416Y630506D01*
X1160248Y628118D01*
X1162636Y626286D01*
X1165416Y625134D01*
X1168400Y624741D01*
X1170940D01*
X1173924Y625134D01*
X1176704Y626286D01*
X1179092Y628118D01*
X1180924Y630506D01*
X1182076Y633286D01*
X1182469Y636270D01*
X1182076Y639254D01*
X1180924Y642034D01*
X1179092Y644422D01*
X1176704Y646254D01*
X1173924Y647406D01*
X1170940Y647799D01*
X1168400D01*
X1167817Y647722D01*
X1166418Y649121D01*
X1167011Y650324D01*
X1168400Y650141D01*
X1170940D01*
X1173924Y650534D01*
X1176704Y651686D01*
X1179092Y653518D01*
X1180924Y655906D01*
X1182076Y658686D01*
X1182469Y661670D01*
X1182076Y664654D01*
X1180924Y667434D01*
X1179092Y669822D01*
X1176704Y671654D01*
X1173924Y672806D01*
X1170940Y673199D01*
X1168400D01*
X1165416Y672806D01*
X1162636Y671654D01*
X1160248Y669822D01*
X1158416Y667434D01*
X1157264Y664654D01*
X1156871Y661670D01*
X1157054Y660281D01*
X1155851Y659688D01*
X958916Y856624D01*
Y872334D01*
X960089Y872820D01*
X1089044Y743865D01*
X1089044Y743865D01*
X1090636Y742644D01*
X1092489Y741876D01*
X1094479Y741614D01*
X1094479Y741614D01*
X1128386D01*
X1156948Y713053D01*
X1156871Y712470D01*
X1157264Y709486D01*
X1158416Y706706D01*
X1160248Y704318D01*
X1162636Y702486D01*
X1165416Y701334D01*
X1168400Y700941D01*
X1170940D01*
X1173924Y701334D01*
X1176704Y702486D01*
X1179092Y704318D01*
X1180924Y706706D01*
X1182076Y709486D01*
X1182469Y712470D01*
X1182076Y715454D01*
X1180924Y718234D01*
X1179092Y720622D01*
X1176704Y722454D01*
X1173924Y723606D01*
X1170940Y723999D01*
X1168400D01*
X1167817Y723922D01*
X1166418Y725321D01*
X1167011Y726524D01*
X1168400Y726341D01*
Y736600D01*
X1157039D01*
X1157054Y736481D01*
X1155851Y735888D01*
X1138609Y753130D01*
X1139095Y754303D01*
X1161310D01*
X1162636Y753286D01*
X1165416Y752134D01*
X1168400Y751741D01*
X1170940D01*
X1173924Y752134D01*
X1176704Y753286D01*
X1179092Y755118D01*
X1180924Y757506D01*
X1182076Y760286D01*
X1182469Y763270D01*
X1182076Y766254D01*
X1180924Y769034D01*
X1179092Y771422D01*
X1176704Y773254D01*
X1173924Y774406D01*
X1170940Y774799D01*
X1168400D01*
X1165416Y774406D01*
X1162636Y773254D01*
X1161310Y772237D01*
X1103979D01*
X1046886Y829330D01*
X1047372Y830503D01*
X1161310D01*
X1162636Y829486D01*
X1165416Y828334D01*
X1168400Y827941D01*
X1170940D01*
X1173924Y828334D01*
X1176704Y829486D01*
X1179092Y831318D01*
X1180924Y833706D01*
X1182076Y836486D01*
X1182469Y839470D01*
X1182076Y842454D01*
X1180924Y845234D01*
X1179092Y847622D01*
X1176704Y849454D01*
X1173924Y850606D01*
X1170940Y850999D01*
X1168400D01*
X1165416Y850606D01*
X1162636Y849454D01*
X1161310Y848437D01*
X1049332D01*
X1019149Y878619D01*
X1019635Y879792D01*
X1035648D01*
Y889972D01*
X1057091Y911415D01*
X1058516Y913272D01*
X1058659Y913618D01*
X1079684Y934643D01*
X1210093D01*
X1211370Y933906D01*
X1214019Y933196D01*
X1216761D01*
X1219410Y933906D01*
X1221784Y935277D01*
X1223723Y937216D01*
X1225094Y939590D01*
X1225778Y942142D01*
X1237224Y953588D01*
X1238649Y955445D01*
X1239545Y957608D01*
X1239851Y959929D01*
Y998654D01*
X1239545Y1000974D01*
X1238649Y1003137D01*
X1237224Y1004994D01*
X1223087Y1019132D01*
Y1043723D01*
X1223824Y1045000D01*
X1224508Y1047552D01*
X1237224Y1060268D01*
X1238649Y1062125D01*
X1239545Y1064288D01*
X1239851Y1066609D01*
Y1100254D01*
X1239545Y1102574D01*
X1238649Y1104737D01*
X1237224Y1106594D01*
X1223087Y1120732D01*
Y1145323D01*
X1223824Y1146600D01*
X1224534Y1149249D01*
Y1151991D01*
X1223824Y1154640D01*
X1222453Y1157014D01*
X1220514Y1158953D01*
X1218140Y1160324D01*
X1215491Y1161034D01*
D02*
G37*
G36*
X1116431Y1097534D02*
X1113689D01*
X1111040Y1096824D01*
X1108666Y1095453D01*
X1106727Y1093514D01*
X1105356Y1091140D01*
X1104646Y1088491D01*
Y1085749D01*
X1105356Y1083100D01*
X1106727Y1080726D01*
X1108666Y1078787D01*
X1111040Y1077416D01*
X1113689Y1076706D01*
X1116431D01*
X1119080Y1077416D01*
X1121454Y1078787D01*
X1123393Y1080726D01*
X1124764Y1083100D01*
X1125474Y1085749D01*
Y1088491D01*
X1124764Y1091140D01*
X1123393Y1093514D01*
X1121454Y1095453D01*
X1119080Y1096824D01*
X1116431Y1097534D01*
D02*
G37*
G36*
X1040231D02*
X1037489D01*
X1034840Y1096824D01*
X1032466Y1095453D01*
X1030527Y1093514D01*
X1029156Y1091140D01*
X1028446Y1088491D01*
Y1085749D01*
X1029156Y1083100D01*
X1030527Y1080726D01*
X1032466Y1078787D01*
X1034840Y1077416D01*
X1037489Y1076706D01*
X1040231D01*
X1042880Y1077416D01*
X1045254Y1078787D01*
X1047193Y1080726D01*
X1048564Y1083100D01*
X1049274Y1085749D01*
Y1088491D01*
X1048564Y1091140D01*
X1047193Y1093514D01*
X1045254Y1095453D01*
X1042880Y1096824D01*
X1040231Y1097534D01*
D02*
G37*
G36*
X850968Y1079500D02*
X850900D01*
Y1070610D01*
X859790D01*
Y1070678D01*
X859098Y1073262D01*
X857760Y1075578D01*
X855868Y1077470D01*
X853552Y1078808D01*
X850968Y1079500D01*
D02*
G37*
G36*
X749368D02*
X749300D01*
Y1070610D01*
X758190D01*
Y1070678D01*
X757498Y1073262D01*
X756160Y1075578D01*
X754268Y1077470D01*
X751952Y1078808D01*
X749368Y1079500D01*
D02*
G37*
G36*
X1306830Y1103630D02*
X1271270D01*
Y1070610D01*
X1306830D01*
Y1103630D01*
D02*
G37*
G36*
X746760Y1079500D02*
X746692D01*
X744108Y1078808D01*
X741792Y1077470D01*
X739900Y1075578D01*
X738562Y1073262D01*
X737870Y1070678D01*
Y1070610D01*
X746760D01*
Y1079500D01*
D02*
G37*
G36*
X758190Y1068070D02*
X749300D01*
Y1059180D01*
X749368D01*
X751952Y1059872D01*
X754268Y1061210D01*
X756160Y1063102D01*
X757498Y1065418D01*
X758190Y1068002D01*
Y1068070D01*
D02*
G37*
G36*
X746760D02*
X737870D01*
Y1068002D01*
X738562Y1065418D01*
X739900Y1063102D01*
X741792Y1061210D01*
X744108Y1059872D01*
X746692Y1059180D01*
X746760D01*
Y1068070D01*
D02*
G37*
G36*
X644405Y1066800D02*
X644170D01*
Y1056640D01*
X654330D01*
Y1056875D01*
X653551Y1059782D01*
X652046Y1062388D01*
X649918Y1064516D01*
X647312Y1066021D01*
X644405Y1066800D01*
D02*
G37*
G36*
X641630D02*
X641395D01*
X638488Y1066021D01*
X635882Y1064516D01*
X633754Y1062388D01*
X632249Y1059782D01*
X631470Y1056875D01*
Y1056640D01*
X641630D01*
Y1066800D01*
D02*
G37*
G36*
X654330Y1054100D02*
X644170D01*
Y1043940D01*
X644405D01*
X647312Y1044719D01*
X649918Y1046224D01*
X652046Y1048352D01*
X653551Y1050958D01*
X654330Y1053865D01*
Y1054100D01*
D02*
G37*
G36*
X641630D02*
X631470D01*
Y1053865D01*
X632249Y1050958D01*
X633754Y1048352D01*
X635882Y1046224D01*
X638488Y1044719D01*
X641395Y1043940D01*
X641630D01*
Y1054100D01*
D02*
G37*
G36*
X748030Y1107550D02*
X717270D01*
X713955Y1107113D01*
X710865Y1105833D01*
X708212Y1103798D01*
X671215Y1066800D01*
X666470D01*
Y1060962D01*
X665527Y1058685D01*
X665090Y1055370D01*
X665527Y1052055D01*
X666470Y1049778D01*
Y1043940D01*
X672308D01*
X674585Y1042997D01*
X677900Y1042560D01*
X681215Y1042997D01*
X683492Y1043940D01*
X689330D01*
Y1048684D01*
X722576Y1081930D01*
X748030D01*
X751345Y1082367D01*
X754435Y1083647D01*
X757088Y1085682D01*
X759123Y1088335D01*
X760403Y1091425D01*
X760840Y1094740D01*
X760403Y1098055D01*
X759123Y1101145D01*
X757088Y1103798D01*
X754435Y1105833D01*
X751345Y1107113D01*
X748030Y1107550D01*
D02*
G37*
G36*
X1290320Y1054180D02*
D01*
Y1038860D01*
X1306785D01*
X1306591Y1040826D01*
X1305647Y1043939D01*
X1304114Y1046807D01*
X1302051Y1049321D01*
X1299537Y1051384D01*
X1296669Y1052917D01*
X1293557Y1053861D01*
X1290320Y1054180D01*
D02*
G37*
G36*
X1287780D02*
X1284543Y1053861D01*
X1281431Y1052917D01*
X1278563Y1051384D01*
X1276049Y1049321D01*
X1273986Y1046807D01*
X1272453Y1043939D01*
X1271509Y1040826D01*
X1271315Y1038860D01*
X1287780D01*
Y1054180D01*
D02*
G37*
G36*
X749368Y1054100D02*
X746692D01*
X744108Y1053408D01*
X741792Y1052070D01*
X739900Y1050178D01*
X738562Y1047862D01*
X737870Y1045278D01*
Y1042602D01*
X738562Y1040018D01*
X739900Y1037702D01*
X741792Y1035810D01*
X744108Y1034472D01*
X746692Y1033780D01*
X749368D01*
X751952Y1034472D01*
X754268Y1035810D01*
X756160Y1037702D01*
X757498Y1040018D01*
X758190Y1042602D01*
Y1045278D01*
X757498Y1047862D01*
X756160Y1050178D01*
X754268Y1052070D01*
X751952Y1053408D01*
X749368Y1054100D01*
D02*
G37*
G36*
X1306785Y1036320D02*
X1290320D01*
Y1021000D01*
X1293557Y1021319D01*
X1296669Y1022263D01*
X1299537Y1023796D01*
X1302051Y1025859D01*
X1304114Y1028373D01*
X1305647Y1031241D01*
X1306591Y1034353D01*
X1306785Y1036320D01*
D02*
G37*
G36*
X1287780D02*
X1271315D01*
X1271509Y1034353D01*
X1272453Y1031241D01*
X1273986Y1028373D01*
X1276049Y1025859D01*
X1278563Y1023796D01*
X1281431Y1022263D01*
X1284543Y1021319D01*
X1287780Y1021000D01*
D01*
Y1036320D01*
D02*
G37*
G36*
X749368Y1028700D02*
X746692D01*
X744108Y1028008D01*
X741792Y1026670D01*
X739900Y1024778D01*
X738562Y1022462D01*
X737870Y1019878D01*
Y1017202D01*
X738562Y1014618D01*
X739900Y1012302D01*
X741792Y1010410D01*
X744108Y1009072D01*
X746692Y1008380D01*
X749368D01*
X751952Y1009072D01*
X754268Y1010410D01*
X756160Y1012302D01*
X757498Y1014618D01*
X758190Y1017202D01*
Y1019878D01*
X757498Y1022462D01*
X756160Y1024778D01*
X754268Y1026670D01*
X751952Y1028008D01*
X749368Y1028700D01*
D02*
G37*
G36*
X1167195Y1027410D02*
X1164525D01*
X1161946Y1026719D01*
X1159634Y1025384D01*
X1157746Y1023496D01*
X1156411Y1021184D01*
X1155720Y1018605D01*
Y1015935D01*
X1156411Y1013356D01*
X1157746Y1011044D01*
X1159634Y1009156D01*
X1161946Y1007821D01*
X1164525Y1007130D01*
X1167195D01*
X1169774Y1007821D01*
X1172086Y1009156D01*
X1173974Y1011044D01*
X1175309Y1013356D01*
X1176000Y1015935D01*
Y1018605D01*
X1175309Y1021184D01*
X1173974Y1023496D01*
X1172086Y1025384D01*
X1169774Y1026719D01*
X1167195Y1027410D01*
D02*
G37*
G36*
X1141795D02*
X1139125D01*
X1136546Y1026719D01*
X1134234Y1025384D01*
X1132346Y1023496D01*
X1131011Y1021184D01*
X1130320Y1018605D01*
Y1015935D01*
X1131011Y1013356D01*
X1132346Y1011044D01*
X1134234Y1009156D01*
X1136546Y1007821D01*
X1139125Y1007130D01*
X1141795D01*
X1144374Y1007821D01*
X1146686Y1009156D01*
X1148574Y1011044D01*
X1149909Y1013356D01*
X1150600Y1015935D01*
Y1018605D01*
X1149909Y1021184D01*
X1148574Y1023496D01*
X1146686Y1025384D01*
X1144374Y1026719D01*
X1141795Y1027410D01*
D02*
G37*
G36*
X1116395D02*
X1113725D01*
X1111146Y1026719D01*
X1108834Y1025384D01*
X1106946Y1023496D01*
X1105611Y1021184D01*
X1104920Y1018605D01*
Y1015935D01*
X1105611Y1013356D01*
X1106946Y1011044D01*
X1108834Y1009156D01*
X1111146Y1007821D01*
X1113725Y1007130D01*
X1116395D01*
X1118974Y1007821D01*
X1121286Y1009156D01*
X1123174Y1011044D01*
X1124509Y1013356D01*
X1125200Y1015935D01*
Y1018605D01*
X1124509Y1021184D01*
X1123174Y1023496D01*
X1121286Y1025384D01*
X1118974Y1026719D01*
X1116395Y1027410D01*
D02*
G37*
G36*
X1090995D02*
X1088325D01*
X1085746Y1026719D01*
X1083434Y1025384D01*
X1081546Y1023496D01*
X1080211Y1021184D01*
X1079520Y1018605D01*
Y1015935D01*
X1080211Y1013356D01*
X1081546Y1011044D01*
X1083434Y1009156D01*
X1085746Y1007821D01*
X1088325Y1007130D01*
X1090995D01*
X1093574Y1007821D01*
X1095886Y1009156D01*
X1097774Y1011044D01*
X1099109Y1013356D01*
X1099800Y1015935D01*
Y1018605D01*
X1099109Y1021184D01*
X1097774Y1023496D01*
X1095886Y1025384D01*
X1093574Y1026719D01*
X1090995Y1027410D01*
D02*
G37*
G36*
X1306830Y1004100D02*
X1271270D01*
Y971080D01*
X1306830D01*
Y1004100D01*
D02*
G37*
G36*
X1290320Y953850D02*
D01*
Y938530D01*
X1306785D01*
X1306591Y940497D01*
X1305647Y943609D01*
X1304114Y946477D01*
X1302051Y948991D01*
X1299537Y951054D01*
X1296669Y952587D01*
X1293557Y953531D01*
X1290320Y953850D01*
D02*
G37*
G36*
X1287780D02*
X1284543Y953531D01*
X1281431Y952587D01*
X1278563Y951054D01*
X1276049Y948991D01*
X1273986Y946477D01*
X1272453Y943609D01*
X1271509Y940497D01*
X1271315Y938530D01*
X1287780D01*
Y953850D01*
D02*
G37*
G36*
X712719Y953880D02*
X709681D01*
X706746Y953093D01*
X704114Y951574D01*
X701966Y949426D01*
X700446Y946794D01*
X699660Y943859D01*
Y940821D01*
X700446Y937886D01*
X701966Y935254D01*
X704114Y933106D01*
X706746Y931587D01*
X709681Y930800D01*
X712719D01*
X715654Y931587D01*
X718286Y933106D01*
X720434Y935254D01*
X721954Y937886D01*
X722740Y940821D01*
Y943859D01*
X721954Y946794D01*
X720434Y949426D01*
X718286Y951574D01*
X715654Y953093D01*
X712719Y953880D01*
D02*
G37*
G36*
X646740D02*
X623660D01*
Y930800D01*
X646740D01*
Y953880D01*
D02*
G37*
G36*
X814865Y930910D02*
X814630D01*
Y920750D01*
X824790D01*
Y920985D01*
X824011Y923892D01*
X822506Y926498D01*
X820378Y928626D01*
X817772Y930131D01*
X814865Y930910D01*
D02*
G37*
G36*
X812090D02*
X811855D01*
X808948Y930131D01*
X806342Y928626D01*
X804214Y926498D01*
X802709Y923892D01*
X801930Y920985D01*
Y920750D01*
X812090D01*
Y930910D01*
D02*
G37*
G36*
X1306785Y935990D02*
X1290320D01*
Y920670D01*
X1293557Y920989D01*
X1296669Y921933D01*
X1299537Y923466D01*
X1302051Y925529D01*
X1304114Y928043D01*
X1305647Y930911D01*
X1306591Y934024D01*
X1306785Y935990D01*
D02*
G37*
G36*
X1287780D02*
X1271315D01*
X1271509Y934024D01*
X1272453Y930911D01*
X1273986Y928043D01*
X1276049Y925529D01*
X1278563Y923466D01*
X1281431Y921933D01*
X1284543Y920989D01*
X1287780Y920670D01*
D01*
Y935990D01*
D02*
G37*
G36*
X760965Y941070D02*
X757955D01*
X755048Y940291D01*
X752442Y938786D01*
X750314Y936658D01*
X748809Y934052D01*
X748030Y931145D01*
Y928135D01*
X748809Y925228D01*
X750314Y922622D01*
X752442Y920494D01*
X755048Y918989D01*
X757955Y918210D01*
X760965D01*
X763872Y918989D01*
X766478Y920494D01*
X768606Y922622D01*
X770111Y925228D01*
X770890Y928135D01*
Y931145D01*
X770111Y934052D01*
X768606Y936658D01*
X766478Y938786D01*
X763872Y940291D01*
X760965Y941070D01*
D02*
G37*
G36*
X812090Y918210D02*
X801930D01*
Y917975D01*
X802709Y915068D01*
X804214Y912462D01*
X806342Y910334D01*
X808948Y908829D01*
X811855Y908050D01*
X812090D01*
Y918210D01*
D02*
G37*
G36*
X760965Y915670D02*
X760730D01*
Y905510D01*
X770890D01*
Y905745D01*
X770111Y908652D01*
X768606Y911258D01*
X766478Y913386D01*
X763872Y914891D01*
X760965Y915670D01*
D02*
G37*
G36*
X758190D02*
X757955D01*
X755048Y914891D01*
X752442Y913386D01*
X750314Y911258D01*
X748809Y908652D01*
X748030Y905745D01*
Y905510D01*
X758190D01*
Y915670D01*
D02*
G37*
G36*
X1060722Y902653D02*
X1060488D01*
Y892493D01*
X1070648D01*
Y892727D01*
X1069868Y895634D01*
X1068364Y898241D01*
X1066236Y900369D01*
X1063629Y901874D01*
X1060722Y902653D01*
D02*
G37*
G36*
X1057947D02*
X1057713D01*
X1054806Y901874D01*
X1052199Y900369D01*
X1050071Y898241D01*
X1048566Y895634D01*
X1047787Y892727D01*
Y892493D01*
X1057947D01*
Y902653D01*
D02*
G37*
G36*
X1170940Y901799D02*
Y891540D01*
X1182301D01*
X1182076Y893254D01*
X1180924Y896034D01*
X1179092Y898422D01*
X1176704Y900254D01*
X1173924Y901406D01*
X1170940Y901799D01*
D02*
G37*
G36*
X1168400D02*
X1165416Y901406D01*
X1162636Y900254D01*
X1160248Y898422D01*
X1158416Y896034D01*
X1157264Y893254D01*
X1157039Y891540D01*
X1168400D01*
Y901799D01*
D02*
G37*
G36*
X1070648Y889952D02*
X1060488D01*
Y879792D01*
X1060722D01*
X1063629Y880571D01*
X1066236Y882076D01*
X1068364Y884204D01*
X1069868Y886811D01*
X1070648Y889718D01*
Y889952D01*
D02*
G37*
G36*
X1057947D02*
X1047787D01*
Y889718D01*
X1048566Y886811D01*
X1050071Y884204D01*
X1052199Y882076D01*
X1054806Y880571D01*
X1057713Y879792D01*
X1057947D01*
Y889952D01*
D02*
G37*
G36*
X1182301Y889000D02*
X1170940D01*
Y878741D01*
X1173924Y879134D01*
X1176704Y880286D01*
X1179092Y882118D01*
X1180924Y884506D01*
X1182076Y887286D01*
X1182301Y889000D01*
D02*
G37*
G36*
X1168400D02*
X1157039D01*
X1157264Y887286D01*
X1158416Y884506D01*
X1160248Y882118D01*
X1162636Y880286D01*
X1165416Y879134D01*
X1168400Y878741D01*
Y889000D01*
D02*
G37*
G36*
X1306830Y903770D02*
X1271270D01*
Y870750D01*
X1306830D01*
Y903770D01*
D02*
G37*
G36*
X737670Y866020D02*
X723900D01*
Y857250D01*
X737670D01*
Y866020D01*
D02*
G37*
G36*
X721360D02*
X707590D01*
Y857250D01*
X721360D01*
Y866020D01*
D02*
G37*
G36*
X1216761Y877824D02*
X1214019D01*
X1211370Y877114D01*
X1208996Y875743D01*
X1207057Y873804D01*
X1205686Y871430D01*
X1204976Y868781D01*
Y866039D01*
X1205686Y863390D01*
X1207057Y861016D01*
X1208996Y859077D01*
X1211370Y857706D01*
X1214019Y856996D01*
X1216761D01*
X1219410Y857706D01*
X1221784Y859077D01*
X1223723Y861016D01*
X1225094Y863390D01*
X1225804Y866039D01*
Y868781D01*
X1225094Y871430D01*
X1223723Y873804D01*
X1221784Y875743D01*
X1219410Y877114D01*
X1216761Y877824D01*
D02*
G37*
G36*
X1170940Y876399D02*
X1168400D01*
X1165416Y876006D01*
X1162636Y874854D01*
X1160248Y873022D01*
X1158416Y870634D01*
X1157264Y867854D01*
X1156871Y864870D01*
X1157264Y861886D01*
X1158416Y859106D01*
X1160248Y856718D01*
X1162636Y854886D01*
X1165416Y853734D01*
X1168400Y853341D01*
X1170940D01*
X1173924Y853734D01*
X1176704Y854886D01*
X1179092Y856718D01*
X1180924Y859106D01*
X1182076Y861886D01*
X1182469Y864870D01*
X1182076Y867854D01*
X1180924Y870634D01*
X1179092Y873022D01*
X1176704Y874854D01*
X1173924Y876006D01*
X1170940Y876399D01*
D02*
G37*
G36*
X737670Y854710D02*
X723900D01*
Y845940D01*
X737670D01*
Y854710D01*
D02*
G37*
G36*
X721360D02*
X707590D01*
Y845940D01*
X721360D01*
Y854710D01*
D02*
G37*
G36*
X854630Y866107D02*
X844630D01*
X842009Y865762D01*
X839567Y864750D01*
X837469Y863141D01*
X835860Y861043D01*
X834848Y858601D01*
X834503Y855980D01*
X834848Y853359D01*
X835860Y850917D01*
X837469Y848819D01*
X839567Y847210D01*
X842009Y846198D01*
X844630Y845853D01*
X854630D01*
X857251Y846198D01*
X859693Y847210D01*
X861791Y848819D01*
X863400Y850917D01*
X864412Y853359D01*
X864757Y855980D01*
X864412Y858601D01*
X863400Y861043D01*
X861791Y863141D01*
X859693Y864750D01*
X857251Y865762D01*
X854630Y866107D01*
D02*
G37*
G36*
X700024Y854710D02*
X690880D01*
Y845566D01*
X690981D01*
X693630Y846276D01*
X696004Y847647D01*
X697943Y849586D01*
X699314Y851960D01*
X700024Y854609D01*
Y854710D01*
D02*
G37*
G36*
X595731Y907034D02*
X592989D01*
X590340Y906324D01*
X587966Y904953D01*
X586027Y903014D01*
X584656Y900640D01*
X583946Y897991D01*
Y895249D01*
X584656Y892600D01*
X586027Y890226D01*
X587966Y888287D01*
X588522Y887965D01*
X603162Y873325D01*
Y857972D01*
X602996Y857351D01*
Y854609D01*
X603706Y851960D01*
X605077Y849586D01*
X607016Y847647D01*
X609390Y846276D01*
X612039Y845566D01*
X614781D01*
X617430Y846276D01*
X619804Y847647D01*
X621743Y849586D01*
X623114Y851960D01*
X623824Y854609D01*
Y857351D01*
X623658Y857972D01*
Y877570D01*
X623308Y880222D01*
X622285Y882694D01*
X620656Y884816D01*
X603015Y902458D01*
X602693Y903014D01*
X600754Y904953D01*
X598380Y906324D01*
X595731Y907034D01*
D02*
G37*
G36*
X1332381Y841375D02*
X1332230D01*
Y831850D01*
X1341755D01*
Y832001D01*
X1341019Y834747D01*
X1339598Y837208D01*
X1337588Y839218D01*
X1335127Y840639D01*
X1332381Y841375D01*
D02*
G37*
G36*
X1329690D02*
X1329539D01*
X1326793Y840639D01*
X1324332Y839218D01*
X1322322Y837208D01*
X1320901Y834747D01*
X1320165Y832001D01*
Y831850D01*
X1329690D01*
Y841375D01*
D02*
G37*
G36*
X854630Y840707D02*
X844630D01*
X842009Y840362D01*
X839567Y839350D01*
X837469Y837741D01*
X835860Y835643D01*
X834848Y833201D01*
X834503Y830580D01*
X834848Y827959D01*
X835860Y825517D01*
X837469Y823419D01*
X839567Y821810D01*
X842009Y820798D01*
X844630Y820453D01*
X854630D01*
X857251Y820798D01*
X859693Y821810D01*
X861791Y823419D01*
X863400Y825517D01*
X864412Y827959D01*
X864757Y830580D01*
X864412Y833201D01*
X863400Y835643D01*
X861791Y837741D01*
X859693Y839350D01*
X857251Y840362D01*
X854630Y840707D01*
D02*
G37*
G36*
X1341755Y829310D02*
X1332230D01*
Y819785D01*
X1332381D01*
X1335127Y820521D01*
X1337588Y821942D01*
X1339598Y823952D01*
X1341019Y826413D01*
X1341755Y829159D01*
Y829310D01*
D02*
G37*
G36*
X1329690D02*
X1320165D01*
Y829159D01*
X1320901Y826413D01*
X1322322Y823952D01*
X1324332Y821942D01*
X1326793Y820521D01*
X1329539Y819785D01*
X1329690D01*
Y829310D01*
D02*
G37*
G36*
X1256181Y841375D02*
X1253339D01*
X1250593Y840639D01*
X1248132Y839218D01*
X1246122Y837208D01*
X1244701Y834747D01*
X1243965Y832001D01*
Y829159D01*
X1244701Y826413D01*
X1246122Y823952D01*
X1248132Y821942D01*
X1250593Y820521D01*
X1253339Y819785D01*
X1256181D01*
X1258927Y820521D01*
X1261388Y821942D01*
X1263398Y823952D01*
X1264819Y826413D01*
X1265555Y829159D01*
Y832001D01*
X1264819Y834747D01*
X1263398Y837208D01*
X1261388Y839218D01*
X1258927Y840639D01*
X1256181Y841375D01*
D02*
G37*
G36*
X1170940Y825599D02*
X1168400D01*
X1165416Y825206D01*
X1162636Y824054D01*
X1160248Y822222D01*
X1158416Y819834D01*
X1157264Y817054D01*
X1156871Y814070D01*
X1157264Y811086D01*
X1158416Y808306D01*
X1160248Y805918D01*
X1162636Y804086D01*
X1165416Y802934D01*
X1168400Y802541D01*
X1170940D01*
X1173924Y802934D01*
X1176704Y804086D01*
X1179092Y805918D01*
X1180924Y808306D01*
X1182076Y811086D01*
X1182469Y814070D01*
X1182076Y817054D01*
X1180924Y819834D01*
X1179092Y822222D01*
X1176704Y824054D01*
X1173924Y825206D01*
X1170940Y825599D01*
D02*
G37*
G36*
X770135Y807720D02*
X769900D01*
Y797560D01*
X780060D01*
Y797795D01*
X779281Y800702D01*
X777776Y803308D01*
X775648Y805436D01*
X773042Y806941D01*
X770135Y807720D01*
D02*
G37*
G36*
X767360D02*
X767125D01*
X764218Y806941D01*
X761612Y805436D01*
X759484Y803308D01*
X757979Y800702D01*
X757200Y797795D01*
Y797560D01*
X767360D01*
Y807720D01*
D02*
G37*
G36*
X854630Y815307D02*
X844630D01*
X842009Y814962D01*
X839567Y813950D01*
X837469Y812341D01*
X835860Y810243D01*
X834848Y807801D01*
X834503Y805180D01*
X834848Y802559D01*
X835860Y800117D01*
X837469Y798019D01*
X839567Y796410D01*
X842009Y795398D01*
X844630Y795053D01*
X854630D01*
X857251Y795398D01*
X859693Y796410D01*
X861791Y798019D01*
X863400Y800117D01*
X864412Y802559D01*
X864757Y805180D01*
X864412Y807801D01*
X863400Y810243D01*
X861791Y812341D01*
X859693Y813950D01*
X857251Y814962D01*
X854630Y815307D01*
D02*
G37*
G36*
X727630D02*
X717630D01*
X715009Y814962D01*
X712567Y813950D01*
X710469Y812341D01*
X708860Y810243D01*
X707848Y807801D01*
X707503Y805180D01*
X707848Y802559D01*
X708860Y800117D01*
X710469Y798019D01*
X712567Y796410D01*
X715009Y795398D01*
X717630Y795053D01*
X727630D01*
X730251Y795398D01*
X732693Y796410D01*
X734791Y798019D01*
X736400Y800117D01*
X737412Y802559D01*
X737757Y805180D01*
X737412Y807801D01*
X736400Y810243D01*
X734791Y812341D01*
X732693Y813950D01*
X730251Y814962D01*
X727630Y815307D01*
D02*
G37*
G36*
Y840707D02*
X717630D01*
X715009Y840362D01*
X712567Y839350D01*
X710469Y837741D01*
X708860Y835643D01*
X707848Y833201D01*
X707503Y830580D01*
X707848Y827959D01*
X708860Y825517D01*
X710469Y823419D01*
X712567Y821810D01*
X715009Y820798D01*
X717630Y820453D01*
X727630D01*
X730251Y820798D01*
X732218Y821613D01*
X765626D01*
X792200Y795039D01*
Y784860D01*
X815060D01*
Y807720D01*
X804881D01*
X775680Y836920D01*
X773823Y838345D01*
X771661Y839241D01*
X769340Y839547D01*
X732218D01*
X730251Y840362D01*
X727630Y840707D01*
D02*
G37*
G36*
X780060Y795020D02*
X769900D01*
Y784860D01*
X770135D01*
X773042Y785639D01*
X775648Y787144D01*
X777776Y789272D01*
X779281Y791878D01*
X780060Y794785D01*
Y795020D01*
D02*
G37*
G36*
X767360D02*
X757200D01*
Y794785D01*
X757979Y791878D01*
X759484Y789272D01*
X761612Y787144D01*
X764218Y785639D01*
X767125Y784860D01*
X767360D01*
Y795020D01*
D02*
G37*
G36*
X1170940Y800199D02*
X1168400D01*
X1165416Y799806D01*
X1162636Y798654D01*
X1160248Y796822D01*
X1158416Y794434D01*
X1157264Y791654D01*
X1156871Y788670D01*
X1157264Y785686D01*
X1158416Y782906D01*
X1160248Y780518D01*
X1162636Y778686D01*
X1165416Y777534D01*
X1168400Y777141D01*
X1170940D01*
X1173924Y777534D01*
X1176704Y778686D01*
X1179092Y780518D01*
X1180924Y782906D01*
X1182076Y785686D01*
X1182469Y788670D01*
X1182076Y791654D01*
X1180924Y794434D01*
X1179092Y796822D01*
X1176704Y798654D01*
X1173924Y799806D01*
X1170940Y800199D01*
D02*
G37*
G36*
X854630Y789907D02*
X844630D01*
X842009Y789562D01*
X839567Y788550D01*
X837469Y786941D01*
X835860Y784843D01*
X834848Y782401D01*
X834503Y779780D01*
X834848Y777159D01*
X835860Y774717D01*
X837469Y772619D01*
X839567Y771010D01*
X842009Y769998D01*
X844630Y769653D01*
X854630D01*
X857251Y769998D01*
X859693Y771010D01*
X861791Y772619D01*
X863400Y774717D01*
X864412Y777159D01*
X864757Y779780D01*
X864412Y782401D01*
X863400Y784843D01*
X861791Y786941D01*
X859693Y788550D01*
X857251Y789562D01*
X854630Y789907D01*
D02*
G37*
G36*
X727630D02*
X717630D01*
X715009Y789562D01*
X712567Y788550D01*
X710469Y786941D01*
X708860Y784843D01*
X707848Y782401D01*
X707503Y779780D01*
X707848Y777159D01*
X708860Y774717D01*
X710469Y772619D01*
X712567Y771010D01*
X715009Y769998D01*
X717630Y769653D01*
X727630D01*
X730251Y769998D01*
X732693Y771010D01*
X734791Y772619D01*
X736400Y774717D01*
X737412Y777159D01*
X737757Y779780D01*
X737412Y782401D01*
X736400Y784843D01*
X734791Y786941D01*
X732693Y788550D01*
X730251Y789562D01*
X727630Y789907D01*
D02*
G37*
G36*
X1321118Y768985D02*
X1320800D01*
Y758190D01*
X1331595D01*
Y758508D01*
X1330773Y761577D01*
X1329184Y764328D01*
X1326938Y766574D01*
X1324187Y768163D01*
X1321118Y768985D01*
D02*
G37*
G36*
X1318260D02*
X1317942D01*
X1314873Y768163D01*
X1312122Y766574D01*
X1309876Y764328D01*
X1308287Y761577D01*
X1307465Y758508D01*
Y758190D01*
X1318260D01*
Y768985D01*
D02*
G37*
G36*
X1331595Y755650D02*
X1320800D01*
Y744855D01*
X1321118D01*
X1324187Y745677D01*
X1326938Y747266D01*
X1329184Y749512D01*
X1330773Y752263D01*
X1331595Y755332D01*
Y755650D01*
D02*
G37*
G36*
X1318260D02*
X1307465D01*
Y755332D01*
X1308287Y752263D01*
X1309876Y749512D01*
X1312122Y747266D01*
X1314873Y745677D01*
X1317942Y744855D01*
X1318260D01*
Y755650D01*
D02*
G37*
G36*
X1280795Y768985D02*
X1256665D01*
Y744855D01*
X1280795D01*
Y768985D01*
D02*
G37*
G36*
X854630Y764507D02*
X844630D01*
X842009Y764162D01*
X839567Y763150D01*
X837469Y761541D01*
X835860Y759443D01*
X834848Y757001D01*
X834503Y754380D01*
X834848Y751759D01*
X835860Y749317D01*
X837469Y747219D01*
X839567Y745610D01*
X842009Y744598D01*
X844630Y744253D01*
X854630D01*
X857251Y744598D01*
X859693Y745610D01*
X861791Y747219D01*
X863400Y749317D01*
X864412Y751759D01*
X864757Y754380D01*
X864412Y757001D01*
X863400Y759443D01*
X861791Y761541D01*
X859693Y763150D01*
X857251Y764162D01*
X854630Y764507D01*
D02*
G37*
G36*
X727630D02*
X717630D01*
X715009Y764162D01*
X712567Y763150D01*
X710469Y761541D01*
X708860Y759443D01*
X707848Y757001D01*
X707503Y754380D01*
X707848Y751759D01*
X708860Y749317D01*
X710469Y747219D01*
X712567Y745610D01*
X715009Y744598D01*
X717630Y744253D01*
X727630D01*
X730251Y744598D01*
X732693Y745610D01*
X734791Y747219D01*
X736400Y749317D01*
X737412Y751759D01*
X737757Y754380D01*
X737412Y757001D01*
X736400Y759443D01*
X734791Y761541D01*
X732693Y763150D01*
X730251Y764162D01*
X727630Y764507D01*
D02*
G37*
G36*
X1170940Y749399D02*
Y739140D01*
X1182301D01*
X1182076Y740854D01*
X1180924Y743634D01*
X1179092Y746022D01*
X1176704Y747854D01*
X1173924Y749006D01*
X1170940Y749399D01*
D02*
G37*
G36*
X1168400D02*
X1165416Y749006D01*
X1162636Y747854D01*
X1160248Y746022D01*
X1158416Y743634D01*
X1157264Y740854D01*
X1157039Y739140D01*
X1168400D01*
Y749399D01*
D02*
G37*
G36*
X1182301Y736600D02*
X1170940D01*
Y726341D01*
X1173924Y726734D01*
X1176704Y727886D01*
X1179092Y729718D01*
X1180924Y732106D01*
X1182076Y734886D01*
X1182301Y736600D01*
D02*
G37*
G36*
X854630Y739107D02*
X844630D01*
X842009Y738762D01*
X839567Y737750D01*
X837469Y736141D01*
X835860Y734043D01*
X834848Y731601D01*
X834503Y728980D01*
X834848Y726359D01*
X835860Y723917D01*
X837469Y721819D01*
X839567Y720210D01*
X842009Y719198D01*
X844630Y718853D01*
X854630D01*
X857251Y719198D01*
X859693Y720210D01*
X861791Y721819D01*
X863400Y723917D01*
X864412Y726359D01*
X864757Y728980D01*
X864412Y731601D01*
X863400Y734043D01*
X861791Y736141D01*
X859693Y737750D01*
X857251Y738762D01*
X854630Y739107D01*
D02*
G37*
G36*
X727630D02*
X717630D01*
X715009Y738762D01*
X712567Y737750D01*
X710469Y736141D01*
X708860Y734043D01*
X707848Y731601D01*
X707503Y728980D01*
X707848Y726359D01*
X708860Y723917D01*
X710469Y721819D01*
X712567Y720210D01*
X715009Y719198D01*
X717630Y718853D01*
X727630D01*
X730251Y719198D01*
X732693Y720210D01*
X734791Y721819D01*
X736400Y723917D01*
X737412Y726359D01*
X737757Y728980D01*
X737412Y731601D01*
X736400Y734043D01*
X734791Y736141D01*
X732693Y737750D01*
X730251Y738762D01*
X727630Y739107D01*
D02*
G37*
G36*
Y713707D02*
X723900D01*
Y704850D01*
X737589D01*
X737412Y706201D01*
X736400Y708643D01*
X734791Y710741D01*
X732693Y712350D01*
X730251Y713362D01*
X727630Y713707D01*
D02*
G37*
G36*
X721360D02*
X717630D01*
X715009Y713362D01*
X712567Y712350D01*
X710469Y710741D01*
X708860Y708643D01*
X707848Y706201D01*
X707671Y704850D01*
X721360D01*
Y713707D01*
D02*
G37*
G36*
X854630D02*
X844630D01*
X842009Y713362D01*
X839567Y712350D01*
X837469Y710741D01*
X835860Y708643D01*
X834848Y706201D01*
X834503Y703580D01*
X834848Y700959D01*
X835860Y698517D01*
X837469Y696419D01*
X839567Y694810D01*
X842009Y693798D01*
X844630Y693453D01*
X854630D01*
X857251Y693798D01*
X859693Y694810D01*
X861791Y696419D01*
X863400Y698517D01*
X864412Y700959D01*
X864757Y703580D01*
X864412Y706201D01*
X863400Y708643D01*
X861791Y710741D01*
X859693Y712350D01*
X857251Y713362D01*
X854630Y713707D01*
D02*
G37*
G36*
X737589Y702310D02*
X723900D01*
Y693453D01*
X727630D01*
X730251Y693798D01*
X732693Y694810D01*
X734791Y696419D01*
X736400Y698517D01*
X737412Y700959D01*
X737589Y702310D01*
D02*
G37*
G36*
X721360D02*
X707671D01*
X707848Y700959D01*
X708860Y698517D01*
X710469Y696419D01*
X712567Y694810D01*
X715009Y693798D01*
X717630Y693453D01*
X721360D01*
Y702310D01*
D02*
G37*
G36*
X644890Y710401D02*
X642890D01*
X640138Y710039D01*
X637575Y708977D01*
X635373Y707287D01*
X633683Y705086D01*
X632621Y702522D01*
X632259Y699770D01*
X632621Y697019D01*
X633683Y694454D01*
X635373Y692253D01*
X637575Y690563D01*
X640138Y689501D01*
X642890Y689139D01*
X644890D01*
X647642Y689501D01*
X650206Y690563D01*
X652407Y692253D01*
X654097Y694454D01*
X655159Y697019D01*
X655521Y699770D01*
X655159Y702522D01*
X654097Y705086D01*
X652407Y707287D01*
X650206Y708977D01*
X647642Y710039D01*
X644890Y710401D01*
D02*
G37*
G36*
X1170940Y698599D02*
X1168400D01*
X1165416Y698206D01*
X1162636Y697054D01*
X1160248Y695222D01*
X1158416Y692834D01*
X1157264Y690054D01*
X1156871Y687070D01*
X1157264Y684086D01*
X1158416Y681306D01*
X1160248Y678918D01*
X1162636Y677086D01*
X1165416Y675934D01*
X1168400Y675541D01*
X1170940D01*
X1173924Y675934D01*
X1176704Y677086D01*
X1179092Y678918D01*
X1180924Y681306D01*
X1182076Y684086D01*
X1182469Y687070D01*
X1182076Y690054D01*
X1180924Y692834D01*
X1179092Y695222D01*
X1176704Y697054D01*
X1173924Y698206D01*
X1170940Y698599D01*
D02*
G37*
G36*
X1305670Y685640D02*
X1295400D01*
Y674370D01*
X1305670D01*
Y685640D01*
D02*
G37*
G36*
X1292860D02*
X1282590D01*
Y674370D01*
X1292860D01*
Y685640D01*
D02*
G37*
G36*
X1331070D02*
X1307990D01*
Y660560D01*
X1331070D01*
Y685640D01*
D02*
G37*
G36*
X1305670Y671830D02*
X1295400D01*
Y660560D01*
X1305670D01*
Y671830D01*
D02*
G37*
G36*
X1292860D02*
X1282590D01*
Y660560D01*
X1292860D01*
Y671830D01*
D02*
G37*
G36*
X1280270Y685640D02*
X1257190D01*
Y660560D01*
X1280270D01*
Y685640D01*
D02*
G37*
G36*
X737670Y659010D02*
X723900D01*
Y650240D01*
X737670D01*
Y659010D01*
D02*
G37*
G36*
Y647700D02*
X723900D01*
Y638930D01*
X737670D01*
Y647700D01*
D02*
G37*
G36*
X648890Y649406D02*
X638890D01*
X637183Y649182D01*
X635592Y648523D01*
X634226Y647474D01*
X633177Y646108D01*
X632518Y644517D01*
X632294Y642810D01*
Y634810D01*
X632518Y633103D01*
X633177Y631512D01*
X634226Y630146D01*
X635592Y629097D01*
X637183Y628438D01*
X638890Y628214D01*
X648890D01*
X650597Y628438D01*
X652188Y629097D01*
X653554Y630146D01*
X654603Y631512D01*
X655262Y633103D01*
X655486Y634810D01*
Y642810D01*
X655262Y644517D01*
X654603Y646108D01*
X653554Y647474D01*
X652188Y648523D01*
X650597Y649182D01*
X648890Y649406D01*
D02*
G37*
G36*
X644890Y624041D02*
X642890D01*
X640138Y623679D01*
X637575Y622617D01*
X635373Y620927D01*
X633683Y618726D01*
X632621Y616161D01*
X632259Y613410D01*
X632621Y610658D01*
X633683Y608094D01*
X635373Y605893D01*
X637575Y604203D01*
X640138Y603141D01*
X642890Y602779D01*
X644890D01*
X647642Y603141D01*
X650206Y604203D01*
X652407Y605893D01*
X654097Y608094D01*
X655159Y610658D01*
X655521Y613410D01*
X655159Y616161D01*
X654097Y618726D01*
X652407Y620927D01*
X650206Y622617D01*
X647642Y623679D01*
X644890Y624041D01*
D02*
G37*
G36*
X770135Y598170D02*
X769900D01*
Y588010D01*
X780060D01*
Y588245D01*
X779281Y591152D01*
X777776Y593758D01*
X775648Y595886D01*
X773042Y597391D01*
X770135Y598170D01*
D02*
G37*
G36*
X767360D02*
X767125D01*
X764218Y597391D01*
X761612Y595886D01*
X759484Y593758D01*
X757979Y591152D01*
X757200Y588245D01*
Y588010D01*
X767360D01*
Y598170D01*
D02*
G37*
G36*
X1271588Y592455D02*
X1271270D01*
Y581660D01*
X1282065D01*
Y581978D01*
X1281243Y585047D01*
X1279654Y587798D01*
X1277408Y590044D01*
X1274657Y591633D01*
X1271588Y592455D01*
D02*
G37*
G36*
X1268730D02*
X1268412D01*
X1265343Y591633D01*
X1262592Y590044D01*
X1260346Y587798D01*
X1258757Y585047D01*
X1257935Y581978D01*
Y581660D01*
X1268730D01*
Y592455D01*
D02*
G37*
G36*
X644890Y598641D02*
X642890D01*
X640138Y598279D01*
X637575Y597217D01*
X635373Y595527D01*
X633683Y593326D01*
X632621Y590761D01*
X632259Y588010D01*
X632621Y585258D01*
X633683Y582695D01*
X635373Y580493D01*
X637575Y578803D01*
X640138Y577741D01*
X642890Y577379D01*
X644890D01*
X647642Y577741D01*
X650206Y578803D01*
X652407Y580493D01*
X654097Y582695D01*
X655159Y585258D01*
X655521Y588010D01*
X655159Y590761D01*
X654097Y593326D01*
X652407Y595527D01*
X650206Y597217D01*
X647642Y598279D01*
X644890Y598641D01*
D02*
G37*
G36*
X780060Y585470D02*
X769900D01*
Y575310D01*
X770135D01*
X773042Y576089D01*
X775648Y577594D01*
X777776Y579722D01*
X779281Y582328D01*
X780060Y585235D01*
Y585470D01*
D02*
G37*
G36*
X767360D02*
X757200D01*
Y585235D01*
X757979Y582328D01*
X759484Y579722D01*
X761612Y577594D01*
X764218Y576089D01*
X767125Y575310D01*
X767360D01*
Y585470D01*
D02*
G37*
G36*
X1332865Y592455D02*
X1308735D01*
Y568325D01*
X1332865D01*
Y592455D01*
D02*
G37*
G36*
X1282065Y579120D02*
X1271270D01*
Y568325D01*
X1271588D01*
X1274657Y569147D01*
X1277408Y570736D01*
X1279654Y572982D01*
X1281243Y575733D01*
X1282065Y578802D01*
Y579120D01*
D02*
G37*
G36*
X1268730D02*
X1257935D01*
Y578802D01*
X1258757Y575733D01*
X1260346Y572982D01*
X1262592Y570736D01*
X1265343Y569147D01*
X1268412Y568325D01*
X1268730D01*
Y579120D01*
D02*
G37*
G36*
X914400Y571008D02*
X911416Y570615D01*
X908636Y569464D01*
X906248Y567631D01*
X904416Y565244D01*
X903264Y562463D01*
X903039Y560749D01*
X914400D01*
Y571008D01*
D02*
G37*
G36*
X644890Y573241D02*
X642890D01*
X640138Y572879D01*
X637575Y571817D01*
X635373Y570127D01*
X633683Y567925D01*
X632621Y565362D01*
X632259Y562610D01*
X632621Y559859D01*
X633683Y557295D01*
X635373Y555093D01*
X637575Y553403D01*
X640138Y552341D01*
X642890Y551979D01*
X644890D01*
X647642Y552341D01*
X650206Y553403D01*
X652407Y555093D01*
X654097Y557295D01*
X655159Y559859D01*
X655521Y562610D01*
X655159Y565362D01*
X654097Y567925D01*
X652407Y570127D01*
X650206Y571817D01*
X647642Y572879D01*
X644890Y573241D01*
D02*
G37*
G36*
X1170940Y571599D02*
X1168400D01*
X1165416Y571206D01*
X1162636Y570054D01*
X1160248Y568222D01*
X1158416Y565834D01*
X1157264Y563054D01*
X1156871Y560070D01*
X1157264Y557086D01*
X1158416Y554306D01*
X1160248Y551918D01*
X1162636Y550086D01*
X1165416Y548934D01*
X1168400Y548541D01*
X1170940D01*
X1173924Y548934D01*
X1176704Y550086D01*
X1179092Y551918D01*
X1180924Y554306D01*
X1182076Y557086D01*
X1182469Y560070D01*
X1182076Y563054D01*
X1180924Y565834D01*
X1179092Y568222D01*
X1176704Y570054D01*
X1173924Y571206D01*
X1170940Y571599D01*
D02*
G37*
G36*
X914400Y558209D02*
X903039D01*
X903264Y556496D01*
X904416Y553715D01*
X906248Y551328D01*
X908636Y549495D01*
X911416Y548344D01*
X914400Y547951D01*
Y558209D01*
D02*
G37*
G36*
X1170940Y546199D02*
X1168400D01*
X1165416Y545806D01*
X1162636Y544654D01*
X1160248Y542822D01*
X1158416Y540434D01*
X1157264Y537654D01*
X1156871Y534670D01*
X1157264Y531686D01*
X1158416Y528906D01*
X1160248Y526518D01*
X1162636Y524686D01*
X1165416Y523534D01*
X1168400Y523141D01*
X1170940D01*
X1173924Y523534D01*
X1176704Y524686D01*
X1179092Y526518D01*
X1180924Y528906D01*
X1182076Y531686D01*
X1182469Y534670D01*
X1182076Y537654D01*
X1180924Y540434D01*
X1179092Y542822D01*
X1176704Y544654D01*
X1173924Y545806D01*
X1170940Y546199D01*
D02*
G37*
G36*
X1259991Y520065D02*
X1259840D01*
Y510540D01*
X1269365D01*
Y510691D01*
X1268629Y513437D01*
X1267208Y515898D01*
X1265198Y517908D01*
X1262737Y519329D01*
X1259991Y520065D01*
D02*
G37*
G36*
X1257300D02*
X1257149D01*
X1254403Y519329D01*
X1251942Y517908D01*
X1249932Y515898D01*
X1248511Y513437D01*
X1247775Y510691D01*
Y510540D01*
X1257300D01*
Y520065D01*
D02*
G37*
G36*
X1336191D02*
X1333349D01*
X1330603Y519329D01*
X1328142Y517908D01*
X1326132Y515898D01*
X1324711Y513437D01*
X1323975Y510691D01*
Y507849D01*
X1324711Y505103D01*
X1326132Y502642D01*
X1328142Y500632D01*
X1330603Y499211D01*
X1333349Y498475D01*
X1336191D01*
X1338937Y499211D01*
X1341398Y500632D01*
X1343408Y502642D01*
X1344829Y505103D01*
X1345565Y507849D01*
Y510691D01*
X1344829Y513437D01*
X1343408Y515898D01*
X1341398Y517908D01*
X1338937Y519329D01*
X1336191Y520065D01*
D02*
G37*
G36*
X1269365Y508000D02*
X1259840D01*
Y498475D01*
X1259991D01*
X1262737Y499211D01*
X1265198Y500632D01*
X1267208Y502642D01*
X1268629Y505103D01*
X1269365Y507849D01*
Y508000D01*
D02*
G37*
G36*
X1257300D02*
X1247775D01*
Y507849D01*
X1248511Y505103D01*
X1249932Y502642D01*
X1251942Y500632D01*
X1254403Y499211D01*
X1257149Y498475D01*
X1257300D01*
Y508000D01*
D02*
G37*
G36*
X727630Y506697D02*
X723900D01*
Y497840D01*
X737589D01*
X737412Y499191D01*
X736400Y501633D01*
X734791Y503731D01*
X732693Y505340D01*
X730251Y506352D01*
X727630Y506697D01*
D02*
G37*
G36*
X1170940Y520799D02*
X1168400D01*
X1165416Y520406D01*
X1162636Y519254D01*
X1160248Y517422D01*
X1158416Y515034D01*
X1157264Y512254D01*
X1156871Y509270D01*
X1157264Y506286D01*
X1158416Y503506D01*
X1160248Y501118D01*
X1162636Y499286D01*
X1165416Y498134D01*
X1168400Y497741D01*
X1170940D01*
X1173924Y498134D01*
X1176704Y499286D01*
X1179092Y501118D01*
X1180924Y503506D01*
X1182076Y506286D01*
X1182469Y509270D01*
X1182076Y512254D01*
X1180924Y515034D01*
X1179092Y517422D01*
X1176704Y519254D01*
X1173924Y520406D01*
X1170940Y520799D01*
D02*
G37*
G36*
Y495399D02*
X1168400D01*
X1165416Y495006D01*
X1162636Y493854D01*
X1160248Y492022D01*
X1158416Y489634D01*
X1157264Y486854D01*
X1156871Y483870D01*
X1157264Y480886D01*
X1158416Y478106D01*
X1160248Y475718D01*
X1162636Y473886D01*
X1165416Y472734D01*
X1168400Y472341D01*
X1170940D01*
X1173924Y472734D01*
X1176704Y473886D01*
X1179092Y475718D01*
X1180924Y478106D01*
X1182076Y480886D01*
X1182469Y483870D01*
X1182076Y486854D01*
X1180924Y489634D01*
X1179092Y492022D01*
X1176704Y493854D01*
X1173924Y495006D01*
X1170940Y495399D01*
D02*
G37*
G36*
Y469999D02*
X1168400D01*
X1165416Y469606D01*
X1162636Y468454D01*
X1160248Y466622D01*
X1158416Y464234D01*
X1157264Y461454D01*
X1156871Y458470D01*
X1157264Y455486D01*
X1158416Y452706D01*
X1160248Y450318D01*
X1162636Y448486D01*
X1165416Y447334D01*
X1168400Y446941D01*
X1170940D01*
X1173924Y447334D01*
X1176704Y448486D01*
X1179092Y450318D01*
X1180924Y452706D01*
X1182076Y455486D01*
X1182469Y458470D01*
X1182076Y461454D01*
X1180924Y464234D01*
X1179092Y466622D01*
X1176704Y468454D01*
X1173924Y469606D01*
X1170940Y469999D01*
D02*
G37*
G36*
X1291590Y479740D02*
X1289050D01*
X1285813Y479421D01*
X1282701Y478477D01*
X1279833Y476944D01*
X1277319Y474881D01*
X1275256Y472367D01*
X1273723Y469499D01*
X1272779Y466386D01*
X1272460Y463150D01*
X1272779Y459913D01*
X1273723Y456801D01*
X1275256Y453933D01*
X1277319Y451419D01*
X1279833Y449356D01*
X1282701Y447823D01*
X1285813Y446879D01*
X1289050Y446560D01*
X1291590D01*
X1294827Y446879D01*
X1297939Y447823D01*
X1300807Y449356D01*
X1303321Y451419D01*
X1305384Y453933D01*
X1306917Y456801D01*
X1307861Y459913D01*
X1308180Y463150D01*
X1307861Y466386D01*
X1306917Y469499D01*
X1305384Y472367D01*
X1303321Y474881D01*
X1300807Y476944D01*
X1297939Y478477D01*
X1294827Y479421D01*
X1291590Y479740D01*
D02*
G37*
G36*
X1308100Y429660D02*
X1291590D01*
Y414420D01*
X1308100D01*
Y429660D01*
D02*
G37*
G36*
X1289050D02*
X1272540D01*
Y414420D01*
X1289050D01*
Y429660D01*
D02*
G37*
G36*
X806405Y420370D02*
X806170D01*
Y410210D01*
X816330D01*
Y410445D01*
X815551Y413352D01*
X814046Y415958D01*
X811918Y418086D01*
X809312Y419591D01*
X806405Y420370D01*
D02*
G37*
G36*
X803630D02*
X803395D01*
X800488Y419591D01*
X797882Y418086D01*
X795754Y415958D01*
X794249Y413352D01*
X793470Y410445D01*
Y410210D01*
X803630D01*
Y420370D01*
D02*
G37*
G36*
X1308100Y411880D02*
X1291590D01*
Y396640D01*
X1308100D01*
Y411880D01*
D02*
G37*
G36*
X1289050D02*
X1272540D01*
Y396640D01*
X1289050D01*
Y411880D01*
D02*
G37*
G36*
X1225550Y405130D02*
X1202690D01*
Y382270D01*
X1225550D01*
Y405130D01*
D02*
G37*
%LPD*%
G36*
X1005470Y1023620D02*
X1005346Y1023496D01*
X1004011Y1021184D01*
X1003320Y1018605D01*
Y1018540D01*
X1013460D01*
Y1017270D01*
X1014730D01*
Y1005955D01*
X1014769Y1005860D01*
X999780Y990870D01*
X998355Y989013D01*
X997459Y986851D01*
X997153Y984530D01*
Y880722D01*
X995980Y880236D01*
X986867Y889349D01*
Y914930D01*
X986561Y917251D01*
X985665Y919413D01*
X984240Y921270D01*
X980537Y924974D01*
Y1007130D01*
X998200D01*
Y1024793D01*
X1004984D01*
X1005470Y1023620D01*
D02*
G37*
%LPC*%
G36*
X1012190Y1016000D02*
X1003320D01*
Y1015935D01*
X1004011Y1013356D01*
X1005346Y1011044D01*
X1007234Y1009156D01*
X1009546Y1007821D01*
X1012125Y1007130D01*
X1012190D01*
Y1016000D01*
D02*
G37*
%LPD*%
D20*
X759460Y904240D02*
D03*
Y929640D02*
D03*
Y955040D02*
D03*
X1214120Y469900D02*
D03*
X804900Y408940D02*
D03*
X768630Y796290D02*
D03*
Y586740D02*
D03*
X642900Y1055370D02*
D03*
X935710Y1122680D02*
D03*
X1059218Y891223D02*
D03*
X813360Y919480D02*
D03*
D45*
X1169035Y890905D02*
X1169670Y890270D01*
X1059535Y890905D02*
X1169035D01*
X1059218Y891223D02*
X1059535Y890905D01*
X1094479Y749300D02*
X1131570D01*
X963930Y879848D02*
Y909143D01*
Y879848D02*
X1094479Y749300D01*
X685265Y1037590D02*
X686535Y1038860D01*
X670535Y1037590D02*
X685265D01*
X686535Y1038860D02*
X689946D01*
X669265D02*
X670535Y1037590D01*
X660515Y1038860D02*
X669265D01*
X689946D02*
X720426Y1069340D01*
X748030D01*
X594360Y972820D02*
X833120D01*
X886672Y765008D02*
Y919268D01*
X833120Y972820D02*
X886672Y919268D01*
Y765008D02*
X914400Y737279D01*
X915670D01*
X1169670Y890270D02*
X1240790D01*
X1287780Y937260D01*
X1289050D02*
X1290320D01*
X1287780D02*
X1289050D01*
X1258570Y443630D02*
Y509270D01*
Y443630D02*
X1289050Y413150D01*
X789425Y424415D02*
X804900Y408940D01*
X789425Y424415D02*
Y434775D01*
X727630Y496570D02*
X789425Y434775D01*
X722630Y496570D02*
X727630D01*
X951230Y853440D02*
Y903883D01*
X1168400Y636270D02*
X1169670D01*
X951230Y853440D02*
X1168400Y636270D01*
X1153160Y1137920D02*
X1181354Y1166114D01*
X1287780Y1137120D02*
X1289050D01*
X1258786Y1166114D02*
X1287780Y1137120D01*
X1181354Y1166114D02*
X1258786D01*
X952500Y920573D02*
X963930Y909143D01*
X1168400Y712470D02*
X1169670D01*
X952500Y920573D02*
Y948690D01*
X1131570Y749300D02*
X1168400Y712470D01*
X933450Y921663D02*
X951230Y903883D01*
X933450Y921663D02*
Y948690D01*
X689610Y855980D02*
X722630D01*
X644005Y1055370D02*
X660515Y1038860D01*
X642900Y1055370D02*
X644005D01*
X623570Y1074700D02*
X642900Y1055370D01*
X623570Y1074700D02*
Y1127374D01*
X1290320Y937260D02*
X1330960Y896620D01*
X1289050Y1037590D02*
X1290320D01*
X1311910Y1059180D01*
Y1115530D01*
X1290320Y1137120D02*
X1311910Y1115530D01*
X1289050Y1137120D02*
X1290320D01*
Y1037590D02*
X1311910Y1016000D01*
Y958850D02*
Y1016000D01*
X1290320Y937260D02*
X1311910Y958850D01*
X1330960Y830580D02*
Y896620D01*
X1319530Y817432D02*
X1330960Y828862D01*
X1319530Y756920D02*
Y817432D01*
X1330960Y828862D02*
Y830580D01*
X1294130Y731520D02*
X1319530Y756920D01*
X1294130Y673100D02*
Y731520D01*
Y639513D02*
Y673100D01*
X1270000Y580390D02*
Y615383D01*
X1294130Y639513D01*
X1258570Y509270D02*
Y566554D01*
X1270000Y577984D01*
Y580390D01*
X1289050Y413150D02*
X1290320D01*
D46*
X1050751Y917756D02*
Y918391D01*
X1024218Y891223D02*
X1050751Y917756D01*
Y918391D02*
X1075970Y943610D01*
X1215390D01*
X1100265Y763270D02*
X1169670D01*
X977900Y885635D02*
Y914930D01*
X1045618Y839470D02*
X1169670D01*
X1006120Y878968D02*
Y984530D01*
Y878968D02*
X1045618Y839470D01*
X977900Y885635D02*
X1100265Y763270D01*
X1209485Y1052830D02*
X1213295Y1049020D01*
X1140460Y1052830D02*
X1209485D01*
X1213295Y1049020D02*
X1214120D01*
X722630Y830580D02*
X769340D01*
X803630Y796290D01*
X766800Y623570D02*
X803630Y586740D01*
X722630Y623570D02*
X766800D01*
X849630Y453390D02*
Y471170D01*
Y453390D02*
X888321Y414700D01*
X972229D01*
X849630Y471170D02*
X854008D01*
X1168400Y610870D02*
X1169670D01*
X972229Y414700D02*
X1168400Y610870D01*
X871020Y488182D02*
Y661168D01*
X849630Y678180D02*
X854008D01*
X871020Y661168D01*
X854008Y471170D02*
X871020Y488182D01*
X971570Y921260D02*
X977900Y914930D01*
X971570Y921260D02*
Y1028552D01*
X1064260Y1017270D02*
Y1052830D01*
X1063584Y1017270D02*
X1064260D01*
X1047094Y1033760D02*
X1063584Y1017270D01*
X976778Y1033760D02*
X1047094D01*
X971570Y1028552D02*
X976778Y1033760D01*
X1006120Y984530D02*
X1038860Y1017270D01*
X1230884Y959929D02*
Y998654D01*
X1215390Y944435D02*
X1230884Y959929D01*
X1215390Y943610D02*
Y944435D01*
X1214120Y1015418D02*
Y1049020D01*
Y1015418D02*
X1230884Y998654D01*
Y1066609D02*
Y1100254D01*
X1214120Y1117018D02*
Y1150620D01*
Y1117018D02*
X1230884Y1100254D01*
X1214120Y1049845D02*
X1230884Y1066609D01*
X1214120Y1049020D02*
Y1049845D01*
D47*
X594360Y896620D02*
X613410Y877570D01*
Y855980D02*
Y877570D01*
X894080Y939480D02*
Y1116050D01*
Y939480D02*
X935990Y897570D01*
X894080Y1116050D02*
X900710Y1122680D01*
X872770Y1094740D02*
X894080Y1116050D01*
X917627Y432479D02*
X923977Y438829D01*
X915670Y432479D02*
X917627D01*
X924831Y438829D02*
X935990Y449989D01*
X923977Y438829D02*
X924831D01*
X935990Y449989D02*
Y897570D01*
X801986Y1066184D02*
Y1123334D01*
X762000Y1163320D02*
X801986Y1123334D01*
X709034Y1163320D02*
X762000D01*
X681610Y1135896D02*
X709034Y1163320D01*
X774700Y1182370D02*
X819766Y1137304D01*
X702684Y1182370D02*
X774700D01*
X656210Y1135896D02*
X702684Y1182370D01*
X819766Y1073804D02*
Y1137304D01*
X648970Y1128580D02*
X656210Y1135820D01*
X819766Y1073804D02*
X849630Y1043940D01*
X648970Y1127374D02*
Y1128580D01*
X656210Y1135820D02*
Y1135896D01*
X681610Y1135820D02*
Y1135896D01*
X801986Y1066184D02*
X849630Y1018540D01*
X674370Y1128580D02*
X681610Y1135820D01*
X674370Y1127374D02*
Y1128580D01*
X849630Y1094740D02*
X872770D01*
D48*
X677900Y1055370D02*
X717270Y1094740D01*
X748030D01*
X697430Y488203D02*
Y678180D01*
X669036Y707884D02*
X698740Y678180D01*
X669036Y707884D02*
Y864502D01*
X698740Y678180D02*
X722630D01*
X697430Y488203D02*
X711803Y473830D01*
X687037Y882503D02*
X811383D01*
X848360Y919480D01*
X669036Y864502D02*
X687037Y882503D01*
X1197001Y452781D02*
X1214120Y469900D01*
X1197001Y427329D02*
Y452781D01*
X1163373Y393700D02*
X1197001Y427329D01*
X920734Y393700D02*
X1163373D01*
X914384Y387350D02*
X920734Y393700D01*
X791490Y387350D02*
X914384D01*
X769900Y408940D02*
X791490Y387350D01*
X722630Y471170D02*
Y471490D01*
X711803Y473830D02*
X720290D01*
X722630Y471490D01*
X724970Y468510D02*
X769900Y423580D01*
Y408940D02*
Y423580D01*
D49*
X594360Y896620D02*
D03*
Y972820D02*
D03*
X613410Y855980D02*
D03*
X689610D02*
D03*
X1115060Y1087120D02*
D03*
X1038860D02*
D03*
X1064260Y1052830D02*
D03*
X1140460D02*
D03*
X1214120Y1049020D02*
D03*
Y972820D02*
D03*
Y1150620D02*
D03*
Y1074420D02*
D03*
X1215390Y943610D02*
D03*
Y867410D02*
D03*
D50*
X722630Y855980D02*
D03*
Y648970D02*
D03*
D51*
Y830580D02*
D03*
Y805180D02*
D03*
Y779780D02*
D03*
Y754380D02*
D03*
Y728980D02*
D03*
Y703580D02*
D03*
Y678180D02*
D03*
X849630Y855980D02*
D03*
Y830580D02*
D03*
Y805180D02*
D03*
Y779780D02*
D03*
Y754380D02*
D03*
Y728980D02*
D03*
Y703580D02*
D03*
Y678180D02*
D03*
X722630Y623570D02*
D03*
Y598170D02*
D03*
Y572770D02*
D03*
Y547370D02*
D03*
Y521970D02*
D03*
Y496570D02*
D03*
Y471170D02*
D03*
X849630Y648970D02*
D03*
Y623570D02*
D03*
Y598170D02*
D03*
Y572770D02*
D03*
Y547370D02*
D03*
Y521970D02*
D03*
Y496570D02*
D03*
Y471170D02*
D03*
D52*
X1214120Y393700D02*
D03*
D53*
X1268730Y756920D02*
D03*
X1320800Y580390D02*
D03*
D54*
X1319530Y756920D02*
D03*
X1270000Y580390D02*
D03*
D55*
X1254760Y830580D02*
D03*
X1330960D02*
D03*
X1334770Y509270D02*
D03*
X1258570D02*
D03*
X1115060Y1122680D02*
D03*
X1038860D02*
D03*
D56*
X1319530Y673100D02*
D03*
X1294130D02*
D03*
X1268730D02*
D03*
D57*
X1290320Y463150D02*
D03*
X1289050Y937260D02*
D03*
Y1037590D02*
D03*
Y1137120D02*
D03*
D58*
X586740Y1193800D02*
D03*
Y355600D02*
D03*
X1346200D02*
D03*
Y1193800D02*
D03*
D59*
X769900Y408940D02*
D03*
X803630Y796290D02*
D03*
Y586740D02*
D03*
X677900Y1055370D02*
D03*
X900710Y1122680D02*
D03*
X1024218Y891223D02*
D03*
X848360Y919480D02*
D03*
D60*
X1289050Y887260D02*
D03*
Y987590D02*
D03*
Y1087120D02*
D03*
X1290320Y413150D02*
D03*
D61*
X623570Y1127374D02*
D03*
D62*
X648970D02*
D03*
X674370D02*
D03*
X699770D02*
D03*
D63*
X643890Y562610D02*
D03*
Y588010D02*
D03*
Y613410D02*
D03*
Y699770D02*
D03*
Y725170D02*
D03*
Y750570D02*
D03*
D64*
Y638810D02*
D03*
Y775970D02*
D03*
D65*
X1169670Y890270D02*
D03*
Y864870D02*
D03*
Y839470D02*
D03*
Y814070D02*
D03*
Y788670D02*
D03*
Y763270D02*
D03*
Y737870D02*
D03*
Y712470D02*
D03*
Y687070D02*
D03*
Y661670D02*
D03*
Y636270D02*
D03*
Y610870D02*
D03*
Y585470D02*
D03*
Y560070D02*
D03*
Y534670D02*
D03*
Y509270D02*
D03*
Y483870D02*
D03*
Y458470D02*
D03*
Y431800D02*
D03*
X915670Y432479D02*
D03*
Y457879D02*
D03*
Y483279D02*
D03*
Y508679D02*
D03*
Y534079D02*
D03*
Y559479D02*
D03*
Y584879D02*
D03*
Y610279D02*
D03*
Y635679D02*
D03*
Y661079D02*
D03*
Y686479D02*
D03*
Y711879D02*
D03*
Y737279D02*
D03*
Y762679D02*
D03*
Y788079D02*
D03*
Y813479D02*
D03*
Y838879D02*
D03*
Y864279D02*
D03*
Y889679D02*
D03*
D66*
X988060Y1017270D02*
D03*
D67*
X1013460D02*
D03*
X1038860D02*
D03*
X1064260D02*
D03*
X1089660D02*
D03*
X1115060D02*
D03*
X1140460D02*
D03*
X1165860D02*
D03*
D68*
X998220Y1136650D02*
D03*
X1153160Y1137920D02*
D03*
D69*
X711200Y942340D02*
D03*
D70*
X635200D02*
D03*
D71*
X748030Y1145540D02*
D03*
X849630D02*
D03*
D72*
X748030Y1120140D02*
D03*
Y1094740D02*
D03*
Y1069340D02*
D03*
Y1043940D02*
D03*
Y1018540D02*
D03*
X849630Y1120140D02*
D03*
Y1094740D02*
D03*
Y1069340D02*
D03*
Y1043940D02*
D03*
Y1018540D02*
D03*
D73*
X952500Y948690D02*
D03*
X933450D02*
D03*
M02*
