M48
;Layer_Color=9474304
;FILE_FORMAT=4:4
METRIC,LZ
;TYPE=PLATED
T01F00S00C0.7000
T02F00S00C0.7112
T03F00S00C0.7874
T04F00S00C0.9144
T05F00S00C0.9652
T06F00S00C0.9906
T07F00S00C1.0000
T08F00S00C1.0160
T09F00S00C1.0200
T10F00S00C1.2000
T11F00S00C1.5240
T12F00S00C3.0000
T13F00S00C3.0480
%
T01
X0084963Y0047117
Y0049657
Y0052197
Y0054737
Y0057277
Y0059817
Y0062357
Y0064897
Y0067818
Y0070358
Y0072898
Y0075438
Y0077978
X0072263
Y0075438
Y0072898
Y0070358
Y0067818
Y0064897
Y0062357
Y0059817
Y0057277
Y0054737
Y0052197
Y0049657
Y0047117
Y0080518
Y0083058
Y0085598
X0084963
Y0083058
Y0080518
T02
X0093345Y0094869
X009525
T03
X0125857Y0050927
X0133477
X0080363Y0058674
X008049Y0040894
X007699
X0076863Y0058674
Y0079629
X006779Y0105537
X006429
X0081336Y0091948
X0084836
X0080363Y0079629
X01024218Y00891223
X01059218
X0103886Y0112268
X0111506
X0093571
X0090071
X0125476Y0083058
X0133096
T04
X0091567Y00432479
Y00457879
Y00483279
Y00508679
Y00534079
Y00559479
Y00584879
Y00610279
Y00635679
Y00661079
Y00686479
Y00711879
Y00737279
Y00762679
Y00788079
X0116967Y0078867
Y0076327
Y0073787
Y0071247
Y0068707
Y0066167
Y0063627
Y0061087
Y0058547
Y0056007
Y0053467
Y0050927
Y0048387
Y0045847
Y004318
Y0081407
Y0083947
Y0086487
Y0089027
X0091567Y00889679
Y00864279
Y00838879
Y00813479
T05
X0061341Y0085598
X0059436Y0089662
Y0097282
X0068961Y0085598
X0106426Y0105283
X0103886Y0108712
X0111506
X0114046Y0105283
X0121412Y0104902
Y0107442
Y0115062
Y0097282
X0121539Y0094361
Y0086741
T06
X0127Y0058039
X013208
X0131953Y0075692
X0126873
T07
X0121412Y003937
Y004699
X0064389Y0056261
Y0058801
Y0061341
Y0063881
Y0069977
Y0072517
Y0075057
Y0077597
X006352Y0094234
X007112
X0069977Y01127374
X0067437
X0064897
X0062357
T08
X0075946Y0090424
Y0092964
Y0095504
X0074803Y0101854
Y0104394
Y0106934
Y0109474
Y0112014
Y0114554
X0084963
Y0112014
Y0109474
Y0106934
Y0104394
Y0101854
T09
X0098806Y0101727
X0101346
X0103886
X0106426
X0108966
X0111506
X0114046
X0116586
T10
X0126873Y006731
X0129413
X0131953
T11
X0129032Y0041315
Y0046315
X0128905Y0088726
Y0093726
Y0098759
Y0103759
Y0108712
Y0113712
T12
X0099822Y0113665
X0115316Y0113792
T13
X0058674Y003556
X013462
Y011938
X0058674
M30
