G04*
G04 #@! TF.GenerationSoftware,Altium Limited,Altium Designer,24.1.2 (44)*
G04*
G04 Layer_Physical_Order=1*
G04 Layer_Color=255*
%FSLAX44Y44*%
%MOMM*%
G71*
G04*
G04 #@! TF.SameCoordinates,C4369FD5-868E-4899-82D4-6BE1F75B83E0*
G04*
G04*
G04 #@! TF.FilePolarity,Positive*
G04*
G01*
G75*
%ADD20C,1.7780*%
%ADD45C,1.0160*%
%ADD46C,1.2700*%
%ADD47C,1.5240*%
%ADD48C,2.0320*%
%ADD49C,1.5748*%
%ADD50R,2.5000X1.5000*%
%ADD51O,2.5000X1.5000*%
%ADD52R,1.7780X1.7780*%
%ADD53R,1.9050X1.9050*%
%ADD54C,1.9050*%
%ADD55C,1.6510*%
%ADD56R,1.8000X2.0000*%
%ADD57O,3.0480X2.7940*%
%ADD58C,4.5720*%
%ADD59R,1.7780X1.7780*%
%ADD60R,3.0480X2.7940*%
G04:AMPARAMS|DCode=61|XSize=1.8mm|YSize=1.6mm|CornerRadius=0.4mm|HoleSize=0mm|Usage=FLASHONLY|Rotation=90.000|XOffset=0mm|YOffset=0mm|HoleType=Round|Shape=RoundedRectangle|*
%AMROUNDEDRECTD61*
21,1,1.8000,0.8000,0,0,90.0*
21,1,1.0000,1.6000,0,0,90.0*
1,1,0.8000,0.4000,0.5000*
1,1,0.8000,0.4000,-0.5000*
1,1,0.8000,-0.4000,-0.5000*
1,1,0.8000,-0.4000,0.5000*
%
%ADD61ROUNDEDRECTD61*%
%ADD62O,1.6000X1.8000*%
%ADD63O,1.8000X1.6000*%
G04:AMPARAMS|DCode=64|XSize=1.8mm|YSize=1.6mm|CornerRadius=0.4mm|HoleSize=0mm|Usage=FLASHONLY|Rotation=0.000|XOffset=0mm|YOffset=0mm|HoleType=Round|Shape=RoundedRectangle|*
%AMROUNDEDRECTD64*
21,1,1.8000,0.8000,0,0,0.0*
21,1,1.0000,1.6000,0,0,0.0*
1,1,0.8000,0.5000,-0.4000*
1,1,0.8000,-0.5000,-0.4000*
1,1,0.8000,-0.5000,0.4000*
1,1,0.8000,0.5000,0.4000*
%
%ADD64ROUNDEDRECTD64*%
%ADD65O,2.0320X1.7780*%
%ADD66R,1.5200X1.5200*%
%ADD67C,1.5200*%
%ADD68C,3.5000*%
%ADD69C,1.8000*%
%ADD70R,1.8000X1.8000*%
%ADD71R,1.5240X1.5240*%
%ADD72C,1.5240*%
%ADD73C,1.2700*%
G36*
X1343323Y1219125D02*
X1338791Y1218224D01*
X1334169Y1216309D01*
X1330008Y1213530D01*
X1326470Y1209992D01*
X1323691Y1205831D01*
X1321776Y1201209D01*
X1320800Y1196302D01*
Y1191298D01*
X1321776Y1186391D01*
X1323691Y1181769D01*
X1326470Y1177608D01*
X1330008Y1174071D01*
X1334169Y1171291D01*
X1338791Y1169376D01*
X1343698Y1168400D01*
X1348702D01*
X1353609Y1169376D01*
X1358231Y1171291D01*
X1362392Y1174071D01*
X1365930Y1177608D01*
X1368709Y1181769D01*
X1370624Y1186391D01*
X1371525Y1190923D01*
X1372795Y1190798D01*
Y358602D01*
X1371525Y358477D01*
X1370624Y363009D01*
X1368709Y367631D01*
X1365930Y371792D01*
X1362392Y375330D01*
X1358231Y378109D01*
X1353609Y380024D01*
X1348702Y381000D01*
X1343698D01*
X1338791Y380024D01*
X1334169Y378109D01*
X1330008Y375330D01*
X1326470Y371792D01*
X1323691Y367631D01*
X1321776Y363009D01*
X1320800Y358102D01*
Y353098D01*
X1321776Y348191D01*
X1323691Y343569D01*
X1326470Y339408D01*
X1330008Y335871D01*
X1334169Y333091D01*
X1338791Y331176D01*
X1343323Y330275D01*
X1343198Y329005D01*
X589742D01*
X589617Y330275D01*
X594149Y331176D01*
X598771Y333091D01*
X602932Y335871D01*
X606469Y339408D01*
X609249Y343569D01*
X611164Y348191D01*
X612140Y353098D01*
Y358102D01*
X611164Y363009D01*
X609249Y367631D01*
X606469Y371792D01*
X602932Y375330D01*
X598771Y378109D01*
X594149Y380024D01*
X589242Y381000D01*
X584238D01*
X579331Y380024D01*
X574709Y378109D01*
X570548Y375330D01*
X567010Y371792D01*
X564231Y367631D01*
X562316Y363009D01*
X561415Y358477D01*
X560145Y358602D01*
Y1190798D01*
X561415Y1190923D01*
X562316Y1186391D01*
X564231Y1181769D01*
X567010Y1177608D01*
X570548Y1174071D01*
X574709Y1171291D01*
X579331Y1169376D01*
X584238Y1168400D01*
X589242D01*
X594149Y1169376D01*
X598771Y1171291D01*
X602932Y1174071D01*
X606469Y1177608D01*
X609249Y1181769D01*
X611164Y1186391D01*
X612140Y1191298D01*
Y1196302D01*
X611164Y1201209D01*
X609249Y1205831D01*
X606469Y1209992D01*
X602932Y1213530D01*
X598771Y1216309D01*
X594149Y1218224D01*
X589617Y1219125D01*
X589742Y1220395D01*
X1343198D01*
X1343323Y1219125D01*
D02*
G37*
%LPC*%
G36*
X1215491Y1161034D02*
X1212749D01*
X1210100Y1160324D01*
X1207726Y1158953D01*
X1205787Y1157014D01*
X1204416Y1154640D01*
X1203706Y1151991D01*
Y1149249D01*
X1204416Y1146600D01*
X1205787Y1144226D01*
X1207726Y1142287D01*
X1210100Y1140916D01*
X1212749Y1140206D01*
X1215491D01*
X1218140Y1140916D01*
X1220514Y1142287D01*
X1222453Y1144226D01*
X1223824Y1146600D01*
X1224534Y1149249D01*
Y1151991D01*
X1223824Y1154640D01*
X1222453Y1157014D01*
X1220514Y1158953D01*
X1218140Y1160324D01*
X1215491Y1161034D01*
D02*
G37*
G36*
X1155134Y1157960D02*
X1154430D01*
Y1139190D01*
X1173200D01*
Y1139894D01*
X1172430Y1143765D01*
X1170919Y1147412D01*
X1168726Y1150695D01*
X1165935Y1153486D01*
X1162653Y1155679D01*
X1159006Y1157190D01*
X1155134Y1157960D01*
D02*
G37*
G36*
X1151890D02*
X1151186D01*
X1147315Y1157190D01*
X1143668Y1155679D01*
X1140385Y1153486D01*
X1137594Y1150695D01*
X1135401Y1147412D01*
X1133890Y1143765D01*
X1133120Y1139894D01*
Y1139190D01*
X1151890D01*
Y1157960D01*
D02*
G37*
G36*
X1290320Y1153710D02*
D01*
Y1138390D01*
X1306785D01*
X1306591Y1140357D01*
X1305647Y1143469D01*
X1304114Y1146337D01*
X1302051Y1148851D01*
X1299537Y1150914D01*
X1296669Y1152447D01*
X1293557Y1153391D01*
X1290320Y1153710D01*
D02*
G37*
G36*
X1287780D02*
X1284543Y1153391D01*
X1281431Y1152447D01*
X1278563Y1150914D01*
X1276049Y1148851D01*
X1273986Y1146337D01*
X1272453Y1143469D01*
X1271509Y1140357D01*
X1271315Y1138390D01*
X1287780D01*
Y1153710D01*
D02*
G37*
G36*
X1000194Y1156690D02*
X999490D01*
Y1137920D01*
X1018260D01*
Y1138624D01*
X1017490Y1142495D01*
X1015979Y1146143D01*
X1013786Y1149425D01*
X1010995Y1152216D01*
X1007712Y1154409D01*
X1004065Y1155920D01*
X1000194Y1156690D01*
D02*
G37*
G36*
X996950D02*
X996246D01*
X992374Y1155920D01*
X988727Y1154409D01*
X985445Y1152216D01*
X982654Y1149425D01*
X980461Y1146143D01*
X978950Y1142495D01*
X978180Y1138624D01*
Y1137920D01*
X996950D01*
Y1156690D01*
D02*
G37*
G36*
X859790Y1155700D02*
X839470D01*
Y1135380D01*
X859790D01*
Y1155700D01*
D02*
G37*
G36*
X627570Y1138970D02*
X624840D01*
Y1128644D01*
X634166D01*
Y1132374D01*
X633942Y1134081D01*
X633283Y1135672D01*
X632234Y1137038D01*
X630868Y1138087D01*
X629277Y1138746D01*
X627570Y1138970D01*
D02*
G37*
G36*
X622300D02*
X619570D01*
X617863Y1138746D01*
X616272Y1138087D01*
X614906Y1137038D01*
X613857Y1135672D01*
X613198Y1134081D01*
X612974Y1132374D01*
Y1128644D01*
X622300D01*
Y1138970D01*
D02*
G37*
G36*
X1116481Y1133475D02*
X1116330D01*
Y1123950D01*
X1125855D01*
Y1124101D01*
X1125119Y1126847D01*
X1123698Y1129308D01*
X1121688Y1131318D01*
X1119227Y1132739D01*
X1116481Y1133475D01*
D02*
G37*
G36*
X937215Y1134110D02*
X936980D01*
Y1123950D01*
X947140D01*
Y1124185D01*
X946361Y1127092D01*
X944856Y1129698D01*
X942728Y1131826D01*
X940122Y1133331D01*
X937215Y1134110D01*
D02*
G37*
G36*
X934440D02*
X934205D01*
X931298Y1133331D01*
X928692Y1131826D01*
X926564Y1129698D01*
X925059Y1127092D01*
X924280Y1124185D01*
Y1123950D01*
X934440D01*
Y1134110D01*
D02*
G37*
G36*
X1113790Y1133475D02*
X1113639D01*
X1110893Y1132739D01*
X1108432Y1131318D01*
X1106422Y1129308D01*
X1105001Y1126847D01*
X1104265Y1124101D01*
Y1123950D01*
X1113790D01*
Y1133475D01*
D02*
G37*
G36*
X1306785Y1135850D02*
X1290320D01*
Y1120530D01*
X1293557Y1120849D01*
X1296669Y1121793D01*
X1299537Y1123326D01*
X1302051Y1125389D01*
X1304114Y1127903D01*
X1305647Y1130771D01*
X1306591Y1133884D01*
X1306785Y1135850D01*
D02*
G37*
G36*
X1287780D02*
X1271315D01*
X1271509Y1133884D01*
X1272453Y1130771D01*
X1273986Y1127903D01*
X1276049Y1125389D01*
X1278563Y1123326D01*
X1281431Y1121793D01*
X1284543Y1120849D01*
X1287780Y1120530D01*
D01*
Y1135850D01*
D02*
G37*
G36*
X1173200Y1136650D02*
X1154430D01*
Y1117880D01*
X1155134D01*
X1159006Y1118650D01*
X1162653Y1120161D01*
X1165935Y1122354D01*
X1168726Y1125145D01*
X1170919Y1128428D01*
X1172430Y1132075D01*
X1173200Y1135946D01*
Y1136650D01*
D02*
G37*
G36*
X1151890D02*
X1133120D01*
Y1135946D01*
X1133890Y1132075D01*
X1135401Y1128428D01*
X1137594Y1125145D01*
X1140385Y1122354D01*
X1143668Y1120161D01*
X1147315Y1118650D01*
X1151186Y1117880D01*
X1151890D01*
Y1136650D01*
D02*
G37*
G36*
X1018260Y1135380D02*
X999490D01*
Y1116610D01*
X1000194D01*
X1004065Y1117380D01*
X1007712Y1118891D01*
X1010995Y1121084D01*
X1013786Y1123875D01*
X1015979Y1127158D01*
X1017490Y1130805D01*
X1018260Y1134676D01*
Y1135380D01*
D02*
G37*
G36*
X996950D02*
X978180D01*
Y1134676D01*
X978950Y1130805D01*
X980461Y1127158D01*
X982654Y1123875D01*
X985445Y1121084D01*
X988727Y1118891D01*
X992374Y1117380D01*
X996246Y1116610D01*
X996950D01*
Y1135380D01*
D02*
G37*
G36*
X634166Y1126104D02*
X624840D01*
Y1115778D01*
X627570D01*
X629277Y1116002D01*
X630868Y1116661D01*
X632234Y1117710D01*
X633283Y1119076D01*
X633942Y1120667D01*
X634166Y1122374D01*
Y1126104D01*
D02*
G37*
G36*
X622300D02*
X612974D01*
Y1122374D01*
X613198Y1120667D01*
X613857Y1119076D01*
X614906Y1117710D01*
X616272Y1116661D01*
X617863Y1116002D01*
X619570Y1115778D01*
X622300D01*
Y1126104D01*
D02*
G37*
G36*
X648970Y1139005D02*
X646218Y1138643D01*
X643654Y1137581D01*
X641453Y1135891D01*
X639763Y1133689D01*
X638701Y1131125D01*
X638339Y1128374D01*
Y1126374D01*
X638701Y1123623D01*
X639763Y1121059D01*
X641453Y1118857D01*
X643654Y1117167D01*
X646218Y1116105D01*
X648970Y1115743D01*
X651721Y1116105D01*
X654286Y1117167D01*
X656487Y1118857D01*
X658177Y1121059D01*
X659239Y1123623D01*
X659601Y1126374D01*
Y1128374D01*
X659239Y1131125D01*
X658177Y1133689D01*
X656487Y1135891D01*
X654286Y1137581D01*
X651721Y1138643D01*
X648970Y1139005D01*
D02*
G37*
G36*
X1125855Y1121410D02*
X1116330D01*
Y1111885D01*
X1116481D01*
X1119227Y1112621D01*
X1121688Y1114042D01*
X1123698Y1116052D01*
X1125119Y1118513D01*
X1125855Y1121259D01*
Y1121410D01*
D02*
G37*
G36*
X1113790D02*
X1104265D01*
Y1121259D01*
X1105001Y1118513D01*
X1106422Y1116052D01*
X1108432Y1114042D01*
X1110893Y1112621D01*
X1113639Y1111885D01*
X1113790D01*
Y1121410D01*
D02*
G37*
G36*
X1040281Y1133475D02*
X1037439D01*
X1034693Y1132739D01*
X1032232Y1131318D01*
X1031802Y1130889D01*
X1029702Y1130612D01*
X1027539Y1129716D01*
X1025682Y1128291D01*
X981720Y1084329D01*
X980295Y1082472D01*
X979399Y1080309D01*
X979093Y1077988D01*
Y1027410D01*
X977920D01*
Y1007130D01*
X985519D01*
X1015251Y977398D01*
Y902653D01*
X1012787D01*
Y898964D01*
X923616D01*
X922704Y899663D01*
X919924Y900815D01*
X916940Y901208D01*
X914400D01*
X911416Y900815D01*
X908636Y899663D01*
X907310Y898646D01*
X855151D01*
X852830Y898341D01*
X850667Y897445D01*
X848810Y896020D01*
X821900Y869109D01*
X820475Y867252D01*
X819579Y865090D01*
X819273Y862769D01*
Y824614D01*
X802379Y807720D01*
X792200D01*
Y784860D01*
X794663D01*
Y598170D01*
X792200D01*
Y575310D01*
X815060D01*
Y577773D01*
X832578D01*
X834569Y578036D01*
X835270Y577377D01*
X835495Y576951D01*
X834848Y575391D01*
X834503Y572770D01*
X834848Y570149D01*
X835860Y567707D01*
X837469Y565609D01*
X839567Y564000D01*
X840663Y563546D01*
Y556594D01*
X839567Y556140D01*
X837469Y554531D01*
X835860Y552433D01*
X834848Y549991D01*
X834503Y547370D01*
X834848Y544749D01*
X835860Y542307D01*
X837469Y540209D01*
X839567Y538600D01*
X840663Y538146D01*
Y531194D01*
X839567Y530740D01*
X837469Y529131D01*
X835860Y527033D01*
X834848Y524591D01*
X834503Y521970D01*
X834848Y519349D01*
X835860Y516907D01*
X837469Y514809D01*
X839567Y513200D01*
X840663Y512746D01*
Y505794D01*
X839567Y505340D01*
X837469Y503731D01*
X835860Y501633D01*
X834848Y499191D01*
X834503Y496570D01*
X834848Y493949D01*
X835860Y491507D01*
X837469Y489409D01*
X839567Y487800D01*
X842009Y486788D01*
X844630Y486443D01*
X854630D01*
X857251Y486788D01*
X859693Y487800D01*
X861791Y489409D01*
X863400Y491507D01*
X864412Y493949D01*
X864757Y496570D01*
X864412Y499191D01*
X863400Y501633D01*
X861791Y503731D01*
X859693Y505340D01*
X858597Y505794D01*
Y512746D01*
X859693Y513200D01*
X861791Y514809D01*
X863400Y516907D01*
X864412Y519349D01*
X864757Y521970D01*
X864412Y524591D01*
X863400Y527033D01*
X861791Y529131D01*
X859693Y530740D01*
X858597Y531194D01*
Y538146D01*
X859693Y538600D01*
X861791Y540209D01*
X863400Y542307D01*
X864412Y544749D01*
X864757Y547370D01*
X864412Y549991D01*
X863400Y552433D01*
X861791Y554531D01*
X859693Y556140D01*
X858597Y556594D01*
Y563546D01*
X859693Y564000D01*
X861791Y565609D01*
X863400Y567707D01*
X864412Y570149D01*
X864757Y572770D01*
X864412Y575391D01*
X863400Y577833D01*
X861791Y579931D01*
X859693Y581540D01*
X858597Y581994D01*
Y588946D01*
X859693Y589400D01*
X861791Y591009D01*
X863400Y593107D01*
X864412Y595549D01*
X864757Y598170D01*
X864412Y600791D01*
X863400Y603233D01*
X861791Y605331D01*
X859693Y606940D01*
X857251Y607952D01*
X854630Y608297D01*
X844630D01*
X842009Y607952D01*
X839567Y606940D01*
X837469Y605331D01*
X835860Y603233D01*
X835485Y602328D01*
X828864Y595707D01*
X815060D01*
Y598170D01*
X812597D01*
Y784860D01*
X815060D01*
Y787323D01*
X835118D01*
X836280Y787476D01*
X836967Y786286D01*
X835860Y784843D01*
X834848Y782401D01*
X834503Y779780D01*
X834848Y777159D01*
X835860Y774717D01*
X837469Y772619D01*
X839567Y771010D01*
X840663Y770556D01*
Y763604D01*
X839567Y763150D01*
X837469Y761541D01*
X835860Y759443D01*
X834848Y757001D01*
X834503Y754380D01*
X834848Y751759D01*
X835860Y749317D01*
X837469Y747219D01*
X839567Y745610D01*
X840663Y745156D01*
Y738204D01*
X839567Y737750D01*
X837469Y736141D01*
X835860Y734043D01*
X834848Y731601D01*
X834503Y728980D01*
X834848Y726359D01*
X835860Y723917D01*
X837469Y721819D01*
X839567Y720210D01*
X840663Y719756D01*
Y712804D01*
X839567Y712350D01*
X837469Y710741D01*
X835860Y708643D01*
X834848Y706201D01*
X834503Y703580D01*
X834848Y700959D01*
X835860Y698517D01*
X837469Y696419D01*
X839567Y694810D01*
X842009Y693798D01*
X844630Y693453D01*
X854630D01*
X857251Y693798D01*
X859693Y694810D01*
X861791Y696419D01*
X863400Y698517D01*
X864412Y700959D01*
X864757Y703580D01*
X864412Y706201D01*
X863400Y708643D01*
X861791Y710741D01*
X859693Y712350D01*
X858597Y712804D01*
Y719756D01*
X859693Y720210D01*
X861791Y721819D01*
X863400Y723917D01*
X864412Y726359D01*
X864757Y728980D01*
X864412Y731601D01*
X863400Y734043D01*
X861791Y736141D01*
X859693Y737750D01*
X858597Y738204D01*
Y745156D01*
X859693Y745610D01*
X861791Y747219D01*
X863400Y749317D01*
X864412Y751759D01*
X864757Y754380D01*
X864412Y757001D01*
X863400Y759443D01*
X861791Y761541D01*
X859693Y763150D01*
X858597Y763604D01*
Y770556D01*
X859693Y771010D01*
X861791Y772619D01*
X863400Y774717D01*
X864412Y777159D01*
X864757Y779780D01*
X864412Y782401D01*
X863400Y784843D01*
X861791Y786941D01*
X859693Y788550D01*
X858597Y789004D01*
Y795956D01*
X859693Y796410D01*
X861791Y798019D01*
X863400Y800117D01*
X864412Y802559D01*
X864757Y805180D01*
X864412Y807801D01*
X863400Y810243D01*
X861791Y812341D01*
X859693Y813950D01*
X857251Y814962D01*
X854630Y815307D01*
X844630D01*
X842009Y814962D01*
X839567Y813950D01*
X837469Y812341D01*
X835860Y810243D01*
X835485Y809339D01*
X831404Y805257D01*
X826937D01*
X826451Y806430D01*
X834580Y814560D01*
X836005Y816417D01*
X836901Y818579D01*
X837207Y820900D01*
Y822020D01*
X838477Y822646D01*
X839567Y821810D01*
X842009Y820798D01*
X844630Y820453D01*
X854630D01*
X857251Y820798D01*
X859693Y821810D01*
X860892Y822730D01*
X863121D01*
X872424Y813427D01*
Y720769D01*
X872686Y718780D01*
X873454Y716927D01*
X874675Y715335D01*
X902948Y687062D01*
X902871Y686479D01*
X903264Y683496D01*
X904416Y680715D01*
X906248Y678327D01*
X908636Y676495D01*
X911416Y675344D01*
X914400Y674951D01*
X916940D01*
X919924Y675344D01*
X922704Y676495D01*
X925092Y678327D01*
X926924Y680715D01*
X928076Y683496D01*
X928469Y686479D01*
X928076Y689463D01*
X926924Y692244D01*
X925092Y694631D01*
X922704Y696463D01*
X919924Y697615D01*
X916940Y698008D01*
X914400D01*
X913817Y697931D01*
X912418Y699331D01*
X913011Y700534D01*
X914400Y700351D01*
X916940D01*
X919924Y700744D01*
X922704Y701895D01*
X925092Y703727D01*
X926924Y706115D01*
X928076Y708896D01*
X928469Y711879D01*
X928076Y714863D01*
X926924Y717644D01*
X925092Y720031D01*
X922704Y721863D01*
X919924Y723015D01*
X916940Y723408D01*
X914400D01*
X913817Y723331D01*
X912418Y724731D01*
X913011Y725934D01*
X914400Y725751D01*
X916940D01*
X919924Y726144D01*
X922704Y727295D01*
X925092Y729128D01*
X926924Y731515D01*
X928076Y734296D01*
X928469Y737279D01*
X928076Y740263D01*
X926924Y743044D01*
X925092Y745431D01*
X922704Y747263D01*
X919924Y748415D01*
X916940Y748808D01*
X914400D01*
X911416Y748415D01*
X908636Y747263D01*
X906248Y745431D01*
X904416Y743044D01*
X903264Y740263D01*
X903036Y738528D01*
X901766Y738611D01*
Y761348D01*
X903036Y761431D01*
X903264Y759696D01*
X904416Y756915D01*
X906248Y754528D01*
X908636Y752695D01*
X911416Y751544D01*
X914400Y751151D01*
X916940D01*
X919924Y751544D01*
X922704Y752695D01*
X925092Y754528D01*
X926924Y756915D01*
X928076Y759696D01*
X928469Y762679D01*
X928076Y765663D01*
X926924Y768444D01*
X925092Y770831D01*
X922704Y772663D01*
X919924Y773815D01*
X916940Y774208D01*
X914400D01*
X911416Y773815D01*
X908636Y772663D01*
X906248Y770831D01*
X904416Y768444D01*
X903264Y765663D01*
X903036Y763928D01*
X901766Y764011D01*
Y786748D01*
X903036Y786831D01*
X903264Y785096D01*
X904416Y782315D01*
X906248Y779928D01*
X908636Y778095D01*
X911416Y776944D01*
X914400Y776551D01*
X916940D01*
X919924Y776944D01*
X922704Y778095D01*
X924030Y779113D01*
X1050932D01*
X1053253Y779418D01*
X1055415Y780314D01*
X1057272Y781739D01*
X1156960Y881427D01*
X1158069Y882872D01*
X1159536Y883046D01*
X1160248Y882118D01*
X1162636Y880286D01*
X1165416Y879134D01*
X1168400Y878741D01*
Y890270D01*
X1170940D01*
Y878741D01*
X1173924Y879134D01*
X1176704Y880286D01*
X1179092Y882118D01*
X1180924Y884506D01*
X1182076Y887286D01*
X1182368Y889509D01*
X1183709Y889965D01*
X1204976Y868698D01*
Y866039D01*
X1205686Y863390D01*
X1207057Y861016D01*
X1208996Y859077D01*
X1211370Y857706D01*
X1214019Y856996D01*
X1216761D01*
X1219410Y857706D01*
X1220687Y858443D01*
X1267930D01*
X1270251Y858749D01*
X1272413Y859645D01*
X1274270Y861070D01*
X1283951Y870750D01*
X1306830D01*
Y903770D01*
X1271270D01*
Y883431D01*
X1264216Y876377D01*
X1222307D01*
X1221147Y877888D01*
X1184645Y914390D01*
X1182788Y915815D01*
X1180626Y916711D01*
X1178305Y917017D01*
X1172657D01*
X1172171Y918190D01*
X1216715Y962734D01*
X1218140Y963116D01*
X1219417Y963853D01*
X1273010D01*
X1275331Y964159D01*
X1277493Y965055D01*
X1279350Y966480D01*
X1283951Y971080D01*
X1306830D01*
Y1004100D01*
X1271270D01*
Y983761D01*
X1269296Y981787D01*
X1219417D01*
X1218140Y982524D01*
X1215491Y983234D01*
X1212749D01*
X1210100Y982524D01*
X1207726Y981153D01*
X1205787Y979214D01*
X1204416Y976840D01*
X1204034Y975415D01*
X1160876Y932257D01*
X1154723D01*
X1152402Y931951D01*
X1150239Y931055D01*
X1148382Y929630D01*
X1129040Y910288D01*
X1127615Y908431D01*
X1126719Y906268D01*
X1126413Y903947D01*
Y897794D01*
X1051065Y822446D01*
X924030D01*
X922704Y823464D01*
X919924Y824615D01*
X916940Y825008D01*
X914400D01*
X911416Y824615D01*
X908636Y823464D01*
X906248Y821631D01*
X904416Y819244D01*
X903264Y816463D01*
X903036Y814728D01*
X901766Y814811D01*
Y835660D01*
X901504Y837649D01*
X900736Y839503D01*
X899515Y841095D01*
X879195Y861415D01*
X877603Y862636D01*
X875749Y863404D01*
X873760Y863666D01*
X861106D01*
X859693Y864750D01*
X857251Y865762D01*
X854630Y866107D01*
X846055D01*
X845528Y867377D01*
X858865Y880713D01*
X907310D01*
X908636Y879695D01*
X911416Y878544D01*
X914400Y878151D01*
X916940D01*
X919924Y878544D01*
X922704Y879695D01*
X924444Y881030D01*
X1012787D01*
Y879792D01*
X1035648D01*
Y902653D01*
X1033184D01*
Y981113D01*
X1032879Y983433D01*
X1031983Y985596D01*
X1030558Y987453D01*
X1012151Y1005860D01*
X1012190Y1005955D01*
Y1016000D01*
X1002144D01*
X1002050Y1015961D01*
X998200Y1019811D01*
Y1027410D01*
X997027D01*
Y1074274D01*
X1035229Y1112477D01*
X1037439Y1111885D01*
X1040281D01*
X1043027Y1112621D01*
X1045488Y1114042D01*
X1047498Y1116052D01*
X1048919Y1118513D01*
X1049655Y1121259D01*
Y1124101D01*
X1048919Y1126847D01*
X1047498Y1129308D01*
X1045488Y1131318D01*
X1043027Y1132739D01*
X1040281Y1133475D01*
D02*
G37*
G36*
X947140Y1121410D02*
X936980D01*
Y1111250D01*
X937215D01*
X940122Y1112029D01*
X942728Y1113534D01*
X944856Y1115662D01*
X946361Y1118268D01*
X947140Y1121175D01*
Y1121410D01*
D02*
G37*
G36*
X934440D02*
X924280D01*
Y1121175D01*
X925059Y1118268D01*
X926564Y1115662D01*
X928692Y1113534D01*
X931298Y1112029D01*
X934205Y1111250D01*
X934440D01*
Y1121410D01*
D02*
G37*
G36*
X912140Y1134110D02*
X889280D01*
Y1111250D01*
X912140D01*
Y1134110D01*
D02*
G37*
G36*
X850968Y1130300D02*
X848292D01*
X845708Y1129608D01*
X843392Y1128270D01*
X841500Y1126378D01*
X840162Y1124062D01*
X839470Y1121478D01*
Y1118802D01*
X840162Y1116218D01*
X841500Y1113902D01*
X843392Y1112010D01*
X845708Y1110672D01*
X848292Y1109980D01*
X850968D01*
X853552Y1110672D01*
X855868Y1112010D01*
X857760Y1113902D01*
X859098Y1116218D01*
X859790Y1118802D01*
Y1121478D01*
X859098Y1124062D01*
X857760Y1126378D01*
X855868Y1128270D01*
X853552Y1129608D01*
X850968Y1130300D01*
D02*
G37*
G36*
X749368D02*
X746692D01*
X744108Y1129608D01*
X741792Y1128270D01*
X739900Y1126378D01*
X738562Y1124062D01*
X737870Y1121478D01*
Y1118802D01*
X738562Y1116218D01*
X739900Y1113902D01*
X741792Y1112010D01*
X744108Y1110672D01*
X746692Y1109980D01*
X749368D01*
X751952Y1110672D01*
X754268Y1112010D01*
X756160Y1113902D01*
X757498Y1116218D01*
X758190Y1118802D01*
Y1121478D01*
X757498Y1124062D01*
X756160Y1126378D01*
X754268Y1128270D01*
X751952Y1129608D01*
X749368Y1130300D01*
D02*
G37*
G36*
Y1104900D02*
X746692D01*
X744108Y1104208D01*
X741792Y1102870D01*
X739900Y1100978D01*
X738562Y1098662D01*
X737870Y1096078D01*
Y1093402D01*
X738562Y1090818D01*
X739900Y1088502D01*
X741792Y1086610D01*
X744108Y1085272D01*
X746692Y1084580D01*
X749368D01*
X751952Y1085272D01*
X754268Y1086610D01*
X756160Y1088502D01*
X757498Y1090818D01*
X758190Y1093402D01*
Y1096078D01*
X757498Y1098662D01*
X756160Y1100978D01*
X754268Y1102870D01*
X751952Y1104208D01*
X749368Y1104900D01*
D02*
G37*
G36*
X772160Y1173568D02*
X772160Y1173568D01*
X725170D01*
X722518Y1173219D01*
X720046Y1172195D01*
X717924Y1170566D01*
X716295Y1168444D01*
X715272Y1165972D01*
X714922Y1163320D01*
Y1158019D01*
X694505Y1137602D01*
X694454Y1137581D01*
X692253Y1135891D01*
X690563Y1133689D01*
X689501Y1131125D01*
X689390Y1130281D01*
X686271Y1127162D01*
X685001Y1127688D01*
Y1128374D01*
X684639Y1131125D01*
X683577Y1133689D01*
X681887Y1135891D01*
X679686Y1137581D01*
X677122Y1138643D01*
X674370Y1139005D01*
X671618Y1138643D01*
X669054Y1137581D01*
X666853Y1135891D01*
X665163Y1133689D01*
X664101Y1131125D01*
X663739Y1128374D01*
Y1126374D01*
X664101Y1123623D01*
X665163Y1121059D01*
X666853Y1118857D01*
X669054Y1117167D01*
X671618Y1116105D01*
X673277Y1115887D01*
X673732Y1114546D01*
X659093Y1099908D01*
X642620D01*
X642620Y1099908D01*
X639968Y1099558D01*
X637496Y1098535D01*
X635374Y1096906D01*
X616604Y1078136D01*
X614975Y1076014D01*
X613951Y1073542D01*
X613602Y1070890D01*
X613602Y1070890D01*
Y1009166D01*
X613602Y1009165D01*
X613951Y1006513D01*
X614975Y1004042D01*
X616604Y1001919D01*
X624952Y993571D01*
Y953880D01*
X623660D01*
Y930800D01*
X646740D01*
Y953880D01*
X645448D01*
Y997815D01*
X645098Y1000468D01*
X644075Y1002939D01*
X642446Y1005062D01*
X642446Y1005062D01*
X634098Y1013410D01*
Y1046348D01*
X635271Y1046834D01*
X635882Y1046224D01*
X638488Y1044719D01*
X641395Y1043940D01*
X641630D01*
Y1055370D01*
Y1066800D01*
X641395D01*
X638488Y1066021D01*
X635882Y1064516D01*
X635271Y1063905D01*
X634098Y1064391D01*
Y1066645D01*
X646865Y1079412D01*
X663338D01*
X663338Y1079412D01*
X665990Y1079762D01*
X668462Y1080785D01*
X670584Y1082414D01*
X699776Y1111606D01*
X699776Y1111606D01*
X700028Y1111934D01*
X705842Y1117748D01*
X707287Y1118857D01*
X708977Y1121059D01*
X710039Y1123623D01*
X710119Y1124230D01*
X732416Y1146528D01*
X732416Y1146528D01*
X734045Y1148650D01*
X735069Y1151122D01*
X735325Y1153072D01*
X737870D01*
Y1135380D01*
X758190D01*
Y1153072D01*
X767915D01*
X833494Y1087494D01*
X833494Y1087494D01*
X835616Y1085865D01*
X838088Y1084842D01*
X840740Y1084492D01*
X840740Y1084492D01*
X849630D01*
X850296Y1084580D01*
X850968D01*
X851616Y1084754D01*
X852282Y1084842D01*
X852903Y1085099D01*
X853552Y1085272D01*
X854133Y1085608D01*
X854754Y1085865D01*
X855287Y1086274D01*
X855868Y1086610D01*
X856343Y1087085D01*
X856876Y1087494D01*
X857285Y1088027D01*
X857760Y1088502D01*
X858096Y1089083D01*
X858505Y1089616D01*
X858762Y1090237D01*
X859098Y1090818D01*
X859271Y1091467D01*
X859529Y1092088D01*
X859616Y1092754D01*
X859790Y1093402D01*
Y1094074D01*
X859878Y1094740D01*
X859790Y1095406D01*
Y1096078D01*
X859616Y1096726D01*
X859529Y1097392D01*
X859271Y1098013D01*
X859098Y1098662D01*
X858762Y1099243D01*
X858505Y1099864D01*
X858096Y1100397D01*
X857760Y1100978D01*
X857285Y1101453D01*
X856876Y1101986D01*
X856343Y1102395D01*
X855868Y1102870D01*
X855287Y1103206D01*
X854754Y1103615D01*
X854133Y1103872D01*
X853552Y1104208D01*
X852903Y1104381D01*
X852282Y1104639D01*
X851616Y1104726D01*
X850968Y1104900D01*
X850296D01*
X849630Y1104988D01*
X844985D01*
X779406Y1170566D01*
X777284Y1172195D01*
X774812Y1173219D01*
X772160Y1173568D01*
D02*
G37*
G36*
X1306830Y1103630D02*
X1271270D01*
Y1083387D01*
X1219417D01*
X1218140Y1084124D01*
X1215491Y1084834D01*
X1212749D01*
X1210100Y1084124D01*
X1207726Y1082753D01*
X1205787Y1080814D01*
X1204416Y1078440D01*
X1204034Y1077015D01*
X1176010Y1048990D01*
X1174585Y1047133D01*
X1173689Y1044971D01*
X1173383Y1042650D01*
Y1025746D01*
X1172210Y1025260D01*
X1172086Y1025384D01*
X1169774Y1026719D01*
X1167195Y1027410D01*
X1164525D01*
X1161946Y1026719D01*
X1159634Y1025384D01*
X1157746Y1023496D01*
X1156411Y1021184D01*
X1155720Y1018605D01*
Y1015935D01*
X1156411Y1013356D01*
X1157746Y1011044D01*
X1159634Y1009156D01*
X1161946Y1007821D01*
X1164525Y1007130D01*
X1167195D01*
X1169774Y1007821D01*
X1172086Y1009156D01*
X1172210Y1009280D01*
X1173383Y1008794D01*
Y988352D01*
X1070642Y885611D01*
X1069626Y886391D01*
X1069868Y886811D01*
X1070648Y889718D01*
Y889952D01*
X1060488D01*
Y879792D01*
X1060722D01*
X1063629Y880571D01*
X1064049Y880814D01*
X1064829Y879798D01*
X1032878Y847846D01*
X924030D01*
X922704Y848864D01*
X919924Y850015D01*
X916940Y850408D01*
X914400D01*
X911416Y850015D01*
X908636Y848864D01*
X906248Y847031D01*
X904416Y844644D01*
X903264Y841863D01*
X902871Y838879D01*
X903264Y835896D01*
X904416Y833115D01*
X906248Y830727D01*
X908636Y828895D01*
X911416Y827744D01*
X914400Y827351D01*
X916940D01*
X919924Y827744D01*
X922704Y828895D01*
X924030Y829913D01*
X1036592D01*
X1038913Y830218D01*
X1041075Y831114D01*
X1042932Y832539D01*
X1188690Y978297D01*
X1190115Y980154D01*
X1191011Y982317D01*
X1191317Y984638D01*
Y1038936D01*
X1202436Y1050055D01*
X1203706Y1049529D01*
Y1047649D01*
X1204416Y1045000D01*
X1205787Y1042626D01*
X1207726Y1040687D01*
X1210100Y1039316D01*
X1212749Y1038606D01*
X1215491D01*
X1218140Y1039316D01*
X1220514Y1040687D01*
X1222453Y1042626D01*
X1223824Y1045000D01*
X1224534Y1047649D01*
Y1050391D01*
X1223824Y1053040D01*
X1222453Y1055414D01*
X1220514Y1057353D01*
X1218140Y1058724D01*
X1215491Y1059434D01*
X1213611D01*
X1213085Y1060704D01*
X1216715Y1064334D01*
X1218140Y1064716D01*
X1219417Y1065453D01*
X1275080D01*
X1277401Y1065759D01*
X1279563Y1066655D01*
X1281420Y1068080D01*
X1283951Y1070610D01*
X1306830D01*
Y1103630D01*
D02*
G37*
G36*
X850968Y1079500D02*
X850900D01*
Y1070610D01*
X859790D01*
Y1070678D01*
X859098Y1073262D01*
X857760Y1075578D01*
X855868Y1077470D01*
X853552Y1078808D01*
X850968Y1079500D01*
D02*
G37*
G36*
X749368D02*
X749300D01*
Y1070610D01*
X758190D01*
Y1070678D01*
X757498Y1073262D01*
X756160Y1075578D01*
X754268Y1077470D01*
X751952Y1078808D01*
X749368Y1079500D01*
D02*
G37*
G36*
X848360D02*
X848292D01*
X845708Y1078808D01*
X843392Y1077470D01*
X841500Y1075578D01*
X840162Y1073262D01*
X839470Y1070678D01*
Y1070610D01*
X848360D01*
Y1079500D01*
D02*
G37*
G36*
X746760D02*
X746692D01*
X744108Y1078808D01*
X741792Y1077470D01*
X739900Y1075578D01*
X738562Y1073262D01*
X737870Y1070678D01*
Y1070610D01*
X746760D01*
Y1079500D01*
D02*
G37*
G36*
X859790Y1068070D02*
X850900D01*
Y1059180D01*
X850968D01*
X853552Y1059872D01*
X855868Y1061210D01*
X857760Y1063102D01*
X859098Y1065418D01*
X859790Y1068002D01*
Y1068070D01*
D02*
G37*
G36*
X848360D02*
X839470D01*
Y1068002D01*
X840162Y1065418D01*
X841500Y1063102D01*
X843392Y1061210D01*
X845708Y1059872D01*
X848292Y1059180D01*
X848360D01*
Y1068070D01*
D02*
G37*
G36*
X758190D02*
X749300D01*
Y1059180D01*
X749368D01*
X751952Y1059872D01*
X754268Y1061210D01*
X756160Y1063102D01*
X757498Y1065418D01*
X758190Y1068002D01*
Y1068070D01*
D02*
G37*
G36*
X746760D02*
X737870D01*
Y1068002D01*
X738562Y1065418D01*
X739900Y1063102D01*
X741792Y1061210D01*
X744108Y1059872D01*
X746692Y1059180D01*
X746760D01*
Y1068070D01*
D02*
G37*
G36*
X644405Y1066800D02*
X644170D01*
Y1056640D01*
X654330D01*
Y1056875D01*
X653551Y1059782D01*
X652046Y1062388D01*
X649918Y1064516D01*
X647312Y1066021D01*
X644405Y1066800D01*
D02*
G37*
G36*
X689330D02*
X666470D01*
Y1043940D01*
X689330D01*
Y1066800D01*
D02*
G37*
G36*
X654330Y1054100D02*
X644170D01*
Y1043940D01*
X644405D01*
X647312Y1044719D01*
X649918Y1046224D01*
X652046Y1048352D01*
X653551Y1050958D01*
X654330Y1053865D01*
Y1054100D01*
D02*
G37*
G36*
X1116431Y1097534D02*
X1113689D01*
X1111040Y1096824D01*
X1108666Y1095453D01*
X1106727Y1093514D01*
X1105356Y1091140D01*
X1104646Y1088491D01*
Y1085749D01*
X1105356Y1083100D01*
X1106727Y1080726D01*
X1108666Y1078787D01*
X1111040Y1077416D01*
X1112465Y1077034D01*
X1130910Y1058589D01*
Y1057117D01*
X1130756Y1056850D01*
X1130046Y1054201D01*
Y1051459D01*
X1130756Y1048810D01*
X1132127Y1046436D01*
X1134066Y1044497D01*
X1136440Y1043126D01*
X1139089Y1042416D01*
X1141831D01*
X1144480Y1043126D01*
X1146854Y1044497D01*
X1148793Y1046436D01*
X1150164Y1048810D01*
X1150874Y1051459D01*
Y1054201D01*
X1150164Y1056850D01*
X1148844Y1059137D01*
Y1062303D01*
X1148538Y1064624D01*
X1147642Y1066786D01*
X1146217Y1068644D01*
X1125146Y1089715D01*
X1124764Y1091140D01*
X1123393Y1093514D01*
X1121454Y1095453D01*
X1119080Y1096824D01*
X1116431Y1097534D01*
D02*
G37*
G36*
X1065631Y1063244D02*
X1062889D01*
X1060240Y1062534D01*
X1057866Y1061163D01*
X1055927Y1059224D01*
X1054556Y1056850D01*
X1053846Y1054201D01*
Y1051459D01*
X1054556Y1048810D01*
X1055927Y1046436D01*
X1057866Y1044497D01*
X1060240Y1043126D01*
X1062889Y1042416D01*
X1065631D01*
X1068280Y1043126D01*
X1070654Y1044497D01*
X1072593Y1046436D01*
X1073964Y1048810D01*
X1074674Y1051459D01*
Y1054201D01*
X1073964Y1056850D01*
X1072593Y1059224D01*
X1070654Y1061163D01*
X1068280Y1062534D01*
X1065631Y1063244D01*
D02*
G37*
G36*
X1290320Y1054180D02*
D01*
Y1038860D01*
X1306785D01*
X1306591Y1040826D01*
X1305647Y1043939D01*
X1304114Y1046807D01*
X1302051Y1049321D01*
X1299537Y1051384D01*
X1296669Y1052917D01*
X1293557Y1053861D01*
X1290320Y1054180D01*
D02*
G37*
G36*
X1287780D02*
X1284543Y1053861D01*
X1281431Y1052917D01*
X1278563Y1051384D01*
X1276049Y1049321D01*
X1273986Y1046807D01*
X1272453Y1043939D01*
X1271509Y1040826D01*
X1271315Y1038860D01*
X1287780D01*
Y1054180D01*
D02*
G37*
G36*
X850968Y1054100D02*
X848292D01*
X845708Y1053408D01*
X843392Y1052070D01*
X841500Y1050178D01*
X840162Y1047862D01*
X839470Y1045278D01*
Y1042602D01*
X840162Y1040018D01*
X841500Y1037702D01*
X843392Y1035810D01*
X845708Y1034472D01*
X848292Y1033780D01*
X850968D01*
X853552Y1034472D01*
X855868Y1035810D01*
X857760Y1037702D01*
X859098Y1040018D01*
X859790Y1042602D01*
Y1045278D01*
X859098Y1047862D01*
X857760Y1050178D01*
X855868Y1052070D01*
X853552Y1053408D01*
X850968Y1054100D01*
D02*
G37*
G36*
X1306785Y1036320D02*
X1290320D01*
Y1021000D01*
X1293557Y1021319D01*
X1296669Y1022263D01*
X1299537Y1023796D01*
X1302051Y1025859D01*
X1304114Y1028373D01*
X1305647Y1031241D01*
X1306591Y1034353D01*
X1306785Y1036320D01*
D02*
G37*
G36*
X1287780D02*
X1271315D01*
X1271509Y1034353D01*
X1272453Y1031241D01*
X1273986Y1028373D01*
X1276049Y1025859D01*
X1278563Y1023796D01*
X1281431Y1022263D01*
X1284543Y1021319D01*
X1287780Y1021000D01*
D01*
Y1036320D01*
D02*
G37*
G36*
X1014795Y1027410D02*
X1014730D01*
Y1018540D01*
X1023600D01*
Y1018605D01*
X1022909Y1021184D01*
X1021574Y1023496D01*
X1019686Y1025384D01*
X1017374Y1026719D01*
X1014795Y1027410D01*
D02*
G37*
G36*
X1012190D02*
X1012125D01*
X1009546Y1026719D01*
X1007234Y1025384D01*
X1005346Y1023496D01*
X1004011Y1021184D01*
X1003320Y1018605D01*
Y1018540D01*
X1012190D01*
Y1027410D01*
D02*
G37*
G36*
X1141795D02*
X1139125D01*
X1136546Y1026719D01*
X1134234Y1025384D01*
X1132346Y1023496D01*
X1131011Y1021184D01*
X1130320Y1018605D01*
Y1015935D01*
X1131011Y1013356D01*
X1132346Y1011044D01*
X1134234Y1009156D01*
X1136546Y1007821D01*
X1139125Y1007130D01*
X1141795D01*
X1144374Y1007821D01*
X1146686Y1009156D01*
X1148574Y1011044D01*
X1149909Y1013356D01*
X1150600Y1015935D01*
Y1018605D01*
X1149909Y1021184D01*
X1148574Y1023496D01*
X1146686Y1025384D01*
X1144374Y1026719D01*
X1141795Y1027410D01*
D02*
G37*
G36*
X1116395D02*
X1113725D01*
X1111146Y1026719D01*
X1108834Y1025384D01*
X1106946Y1023496D01*
X1105611Y1021184D01*
X1104920Y1018605D01*
Y1015935D01*
X1105611Y1013356D01*
X1106946Y1011044D01*
X1108834Y1009156D01*
X1111146Y1007821D01*
X1113725Y1007130D01*
X1116395D01*
X1118974Y1007821D01*
X1121286Y1009156D01*
X1123174Y1011044D01*
X1124509Y1013356D01*
X1125200Y1015935D01*
Y1018605D01*
X1124509Y1021184D01*
X1123174Y1023496D01*
X1121286Y1025384D01*
X1118974Y1026719D01*
X1116395Y1027410D01*
D02*
G37*
G36*
X1090995D02*
X1088325D01*
X1085746Y1026719D01*
X1083434Y1025384D01*
X1081546Y1023496D01*
X1080211Y1021184D01*
X1079520Y1018605D01*
Y1015935D01*
X1080211Y1013356D01*
X1081546Y1011044D01*
X1083434Y1009156D01*
X1085746Y1007821D01*
X1088325Y1007130D01*
X1090995D01*
X1093574Y1007821D01*
X1095886Y1009156D01*
X1097774Y1011044D01*
X1099109Y1013356D01*
X1099800Y1015935D01*
Y1018605D01*
X1099109Y1021184D01*
X1097774Y1023496D01*
X1095886Y1025384D01*
X1093574Y1026719D01*
X1090995Y1027410D01*
D02*
G37*
G36*
X1065595D02*
X1062925D01*
X1060346Y1026719D01*
X1058034Y1025384D01*
X1056146Y1023496D01*
X1054811Y1021184D01*
X1054120Y1018605D01*
Y1015935D01*
X1054811Y1013356D01*
X1056146Y1011044D01*
X1058034Y1009156D01*
X1060346Y1007821D01*
X1062925Y1007130D01*
X1065595D01*
X1068174Y1007821D01*
X1070486Y1009156D01*
X1072374Y1011044D01*
X1073709Y1013356D01*
X1074400Y1015935D01*
Y1018605D01*
X1073709Y1021184D01*
X1072374Y1023496D01*
X1070486Y1025384D01*
X1068174Y1026719D01*
X1065595Y1027410D01*
D02*
G37*
G36*
X1040231Y1097534D02*
X1037489D01*
X1034840Y1096824D01*
X1032466Y1095453D01*
X1030527Y1093514D01*
X1029156Y1091140D01*
X1028446Y1088491D01*
Y1085749D01*
X1029156Y1083100D01*
X1029893Y1081823D01*
Y1022019D01*
X1029411Y1021184D01*
X1028720Y1018605D01*
Y1015935D01*
X1029411Y1013356D01*
X1030746Y1011044D01*
X1032634Y1009156D01*
X1034946Y1007821D01*
X1037525Y1007130D01*
X1040195D01*
X1042774Y1007821D01*
X1045086Y1009156D01*
X1046974Y1011044D01*
X1048309Y1013356D01*
X1049000Y1015935D01*
Y1018605D01*
X1048309Y1021184D01*
X1047827Y1022019D01*
Y1081823D01*
X1048564Y1083100D01*
X1049274Y1085749D01*
Y1088491D01*
X1048564Y1091140D01*
X1047193Y1093514D01*
X1045254Y1095453D01*
X1042880Y1096824D01*
X1040231Y1097534D01*
D02*
G37*
G36*
X1023600Y1016000D02*
X1014730D01*
Y1007130D01*
X1014795D01*
X1017374Y1007821D01*
X1019686Y1009156D01*
X1021574Y1011044D01*
X1022909Y1013356D01*
X1023600Y1015935D01*
Y1016000D01*
D02*
G37*
G36*
X760965Y966470D02*
X757955D01*
X755048Y965691D01*
X754350Y965288D01*
X724647D01*
X724647Y965288D01*
X721995Y964939D01*
X719523Y963915D01*
X717401Y962286D01*
X717401Y962286D01*
X708743Y953629D01*
X706746Y953093D01*
X704114Y951574D01*
X701966Y949426D01*
X700446Y946794D01*
X699660Y943859D01*
Y940821D01*
X700446Y937886D01*
X701966Y935254D01*
X704114Y933106D01*
X706746Y931587D01*
X709681Y930800D01*
X710605D01*
X711091Y929627D01*
X688332Y906868D01*
X596352D01*
X595731Y907034D01*
X592989D01*
X590340Y906324D01*
X587966Y904953D01*
X586027Y903014D01*
X584656Y900640D01*
X583946Y897991D01*
Y895249D01*
X584656Y892600D01*
X586027Y890226D01*
X587966Y888287D01*
X590340Y886916D01*
X592989Y886206D01*
X595731D01*
X596352Y886372D01*
X692576D01*
X692576Y886372D01*
X695229Y886721D01*
X697700Y887745D01*
X699823Y889374D01*
X729841Y919392D01*
X754350D01*
X755048Y918989D01*
X757955Y918210D01*
X760965D01*
X763872Y918989D01*
X766478Y920494D01*
X768606Y922622D01*
X770111Y925228D01*
X770890Y928135D01*
Y931145D01*
X770111Y934052D01*
X768606Y936658D01*
X766478Y938786D01*
X763872Y940291D01*
X760965Y941070D01*
X757955D01*
X755048Y940291D01*
X754350Y939888D01*
X725783D01*
X725229Y940632D01*
X725065Y940966D01*
X728892Y944792D01*
X754350D01*
X755048Y944389D01*
X757955Y943610D01*
X760965D01*
X763872Y944389D01*
X766478Y945894D01*
X768606Y948022D01*
X770111Y950628D01*
X770890Y953535D01*
Y956545D01*
X770111Y959452D01*
X768606Y962058D01*
X766478Y964186D01*
X763872Y965691D01*
X760965Y966470D01*
D02*
G37*
G36*
X595731Y983234D02*
X592989D01*
X590340Y982524D01*
X587966Y981153D01*
X586027Y979214D01*
X584656Y976840D01*
X583946Y974191D01*
Y971449D01*
X584656Y968800D01*
X586027Y966426D01*
X587966Y964487D01*
X590340Y963116D01*
X592989Y962406D01*
X595731D01*
X598380Y963116D01*
X600754Y964487D01*
X602693Y966426D01*
X604064Y968800D01*
X604774Y971449D01*
Y974191D01*
X604064Y976840D01*
X602693Y979214D01*
X600754Y981153D01*
X598380Y982524D01*
X595731Y983234D01*
D02*
G37*
G36*
X749368Y1054100D02*
X746692D01*
X744108Y1053408D01*
X741792Y1052070D01*
X739900Y1050178D01*
X738562Y1047862D01*
X737870Y1045278D01*
Y1042602D01*
X738562Y1040018D01*
X739900Y1037702D01*
X741792Y1035810D01*
X744108Y1034472D01*
X746692Y1033780D01*
X749368D01*
X751952Y1034472D01*
X754268Y1035810D01*
X754713Y1036254D01*
X799494D01*
X838369Y997379D01*
X839960Y996158D01*
X841814Y995390D01*
X843803Y995128D01*
X905352D01*
X944328Y956152D01*
Y952316D01*
X944216Y952121D01*
X943610Y949860D01*
Y947520D01*
X944216Y945259D01*
X945386Y943231D01*
X947041Y941576D01*
X949069Y940406D01*
X951330Y939800D01*
X953670D01*
X955931Y940406D01*
X957959Y941576D01*
X959614Y943231D01*
X960784Y945259D01*
X961390Y947520D01*
Y949860D01*
X960784Y952121D01*
X959700Y954000D01*
Y959336D01*
X959438Y961325D01*
X958670Y963179D01*
X957449Y964771D01*
X913971Y1008249D01*
X912379Y1009470D01*
X910525Y1010238D01*
X908536Y1010500D01*
X857617D01*
X857132Y1011673D01*
X857760Y1012302D01*
X859098Y1014618D01*
X859790Y1017202D01*
Y1019878D01*
X859098Y1022462D01*
X857760Y1024778D01*
X855868Y1026670D01*
X853552Y1028008D01*
X850968Y1028700D01*
X848292D01*
X845708Y1028008D01*
X843392Y1026670D01*
X841500Y1024778D01*
X840162Y1022462D01*
X839470Y1019878D01*
Y1019676D01*
X838297Y1019190D01*
X808112Y1049375D01*
X806520Y1050596D01*
X804667Y1051364D01*
X802677Y1051626D01*
X754713D01*
X754268Y1052070D01*
X751952Y1053408D01*
X749368Y1054100D01*
D02*
G37*
G36*
Y1028700D02*
X746692D01*
X744108Y1028008D01*
X741792Y1026670D01*
X739900Y1024778D01*
X738562Y1022462D01*
X737870Y1019878D01*
Y1017202D01*
X738562Y1014618D01*
X739900Y1012302D01*
X741792Y1010410D01*
X744108Y1009072D01*
X746692Y1008380D01*
X749368D01*
X751952Y1009072D01*
X754268Y1010410D01*
X754713Y1010854D01*
X765166D01*
X809905Y966115D01*
X811497Y964894D01*
X813351Y964126D01*
X815340Y963864D01*
X908094D01*
X924604Y947354D01*
X925166Y945259D01*
X926336Y943231D01*
X927991Y941576D01*
X930019Y940406D01*
X932280Y939800D01*
X934620D01*
X936881Y940406D01*
X938909Y941576D01*
X940564Y943231D01*
X941734Y945259D01*
X942340Y947520D01*
Y949860D01*
X941734Y952121D01*
X940564Y954149D01*
X938909Y955804D01*
X936881Y956974D01*
X936664Y957032D01*
X916712Y976985D01*
X915120Y978206D01*
X913267Y978974D01*
X911277Y979236D01*
X818524D01*
X773785Y1023975D01*
X772193Y1025196D01*
X770339Y1025964D01*
X768350Y1026226D01*
X754713D01*
X754268Y1026670D01*
X751952Y1028008D01*
X749368Y1028700D01*
D02*
G37*
G36*
X1290320Y953850D02*
D01*
Y938530D01*
X1306785D01*
X1306591Y940497D01*
X1305647Y943609D01*
X1304114Y946477D01*
X1302051Y948991D01*
X1299537Y951054D01*
X1296669Y952587D01*
X1293557Y953531D01*
X1290320Y953850D01*
D02*
G37*
G36*
X1287780D02*
X1284543Y953531D01*
X1281431Y952587D01*
X1278563Y951054D01*
X1276049Y948991D01*
X1273986Y946477D01*
X1272453Y943609D01*
X1271509Y940497D01*
X1271315Y938530D01*
X1287780D01*
Y953850D01*
D02*
G37*
G36*
X1216761Y954024D02*
X1214019D01*
X1211370Y953314D01*
X1208996Y951943D01*
X1207057Y950004D01*
X1205686Y947630D01*
X1204976Y944981D01*
Y942239D01*
X1205686Y939590D01*
X1207057Y937216D01*
X1208996Y935277D01*
X1211370Y933906D01*
X1214019Y933196D01*
X1216761D01*
X1219410Y933906D01*
X1221784Y935277D01*
X1223723Y937216D01*
X1225094Y939590D01*
X1225804Y942239D01*
Y944981D01*
X1225094Y947630D01*
X1223723Y950004D01*
X1221784Y951943D01*
X1219410Y953314D01*
X1216761Y954024D01*
D02*
G37*
G36*
X814865Y930910D02*
X814630D01*
Y920750D01*
X824790D01*
Y920985D01*
X824011Y923892D01*
X822506Y926498D01*
X820378Y928626D01*
X817772Y930131D01*
X814865Y930910D01*
D02*
G37*
G36*
X812090D02*
X811855D01*
X808948Y930131D01*
X806342Y928626D01*
X804214Y926498D01*
X802709Y923892D01*
X801930Y920985D01*
Y920750D01*
X812090D01*
Y930910D01*
D02*
G37*
G36*
X1306785Y935990D02*
X1290320D01*
Y920670D01*
X1293557Y920989D01*
X1296669Y921933D01*
X1299537Y923466D01*
X1302051Y925529D01*
X1304114Y928043D01*
X1305647Y930911D01*
X1306591Y934024D01*
X1306785Y935990D01*
D02*
G37*
G36*
X1287780D02*
X1271315D01*
X1271509Y934024D01*
X1272453Y930911D01*
X1273986Y928043D01*
X1276049Y925529D01*
X1278563Y923466D01*
X1281431Y921933D01*
X1284543Y920989D01*
X1287780Y920670D01*
D01*
Y935990D01*
D02*
G37*
G36*
X859790Y930910D02*
X836930D01*
Y908050D01*
X859790D01*
Y930910D01*
D02*
G37*
G36*
X824790Y918210D02*
X814630D01*
Y908050D01*
X814865D01*
X817772Y908829D01*
X820378Y910334D01*
X822506Y912462D01*
X824011Y915068D01*
X824790Y917975D01*
Y918210D01*
D02*
G37*
G36*
X812090D02*
X801930D01*
Y917975D01*
X802709Y915068D01*
X804214Y912462D01*
X806342Y910334D01*
X808948Y908829D01*
X811855Y908050D01*
X812090D01*
Y918210D01*
D02*
G37*
G36*
X760965Y915670D02*
X760730D01*
Y905510D01*
X770890D01*
Y905745D01*
X770111Y908652D01*
X768606Y911258D01*
X766478Y913386D01*
X763872Y914891D01*
X760965Y915670D01*
D02*
G37*
G36*
X758190D02*
X757955D01*
X755048Y914891D01*
X752442Y913386D01*
X750314Y911258D01*
X748809Y908652D01*
X748030Y905745D01*
Y905510D01*
X758190D01*
Y915670D01*
D02*
G37*
G36*
X770890Y902970D02*
X760730D01*
Y892810D01*
X760965D01*
X763872Y893589D01*
X766478Y895094D01*
X768606Y897222D01*
X770111Y899828D01*
X770890Y902735D01*
Y902970D01*
D02*
G37*
G36*
X758190D02*
X748030D01*
Y902735D01*
X748809Y899828D01*
X750314Y897222D01*
X752442Y895094D01*
X755048Y893589D01*
X757955Y892810D01*
X758190D01*
Y902970D01*
D02*
G37*
G36*
X1060722Y902653D02*
X1060488D01*
Y892493D01*
X1070648D01*
Y892727D01*
X1069868Y895634D01*
X1068364Y898241D01*
X1066236Y900369D01*
X1063629Y901874D01*
X1060722Y902653D01*
D02*
G37*
G36*
X1057947D02*
X1057713D01*
X1054806Y901874D01*
X1052199Y900369D01*
X1050071Y898241D01*
X1048566Y895634D01*
X1047787Y892727D01*
Y892493D01*
X1057947D01*
Y902653D01*
D02*
G37*
G36*
Y889952D02*
X1047787D01*
Y889718D01*
X1048566Y886811D01*
X1050071Y884204D01*
X1052199Y882076D01*
X1054806Y880571D01*
X1057713Y879792D01*
X1057947D01*
Y889952D01*
D02*
G37*
G36*
X737670Y866020D02*
X723900D01*
Y857250D01*
X737670D01*
Y866020D01*
D02*
G37*
G36*
X721360D02*
X707590D01*
Y857250D01*
X721360D01*
Y866020D01*
D02*
G37*
G36*
X690981Y866394D02*
X690880D01*
Y857250D01*
X700024D01*
Y857351D01*
X699314Y860000D01*
X697943Y862374D01*
X696004Y864313D01*
X693630Y865684D01*
X690981Y866394D01*
D02*
G37*
G36*
X688340D02*
X688239D01*
X685590Y865684D01*
X683216Y864313D01*
X681277Y862374D01*
X679906Y860000D01*
X679196Y857351D01*
Y857250D01*
X688340D01*
Y866394D01*
D02*
G37*
G36*
X1170940Y876399D02*
X1168400D01*
X1165416Y876006D01*
X1162636Y874854D01*
X1160248Y873022D01*
X1158416Y870634D01*
X1157264Y867854D01*
X1156871Y864870D01*
X1157264Y861886D01*
X1158416Y859106D01*
X1160248Y856718D01*
X1162636Y854886D01*
X1165416Y853734D01*
X1168400Y853341D01*
X1170940D01*
X1173924Y853734D01*
X1176704Y854886D01*
X1179092Y856718D01*
X1180924Y859106D01*
X1182076Y861886D01*
X1182469Y864870D01*
X1182076Y867854D01*
X1180924Y870634D01*
X1179092Y873022D01*
X1176704Y874854D01*
X1173924Y876006D01*
X1170940Y876399D01*
D02*
G37*
G36*
X916940Y875808D02*
X914400D01*
X911416Y875415D01*
X908636Y874264D01*
X906248Y872431D01*
X904416Y870044D01*
X903264Y867263D01*
X902871Y864279D01*
X903264Y861296D01*
X904416Y858515D01*
X906248Y856127D01*
X908636Y854295D01*
X911416Y853144D01*
X914400Y852751D01*
X916940D01*
X919924Y853144D01*
X922704Y854295D01*
X925092Y856127D01*
X926924Y858515D01*
X928076Y861296D01*
X928469Y864279D01*
X928076Y867263D01*
X926924Y870044D01*
X925092Y872431D01*
X922704Y874264D01*
X919924Y875415D01*
X916940Y875808D01*
D02*
G37*
G36*
X737670Y854710D02*
X723900D01*
Y845940D01*
X737670D01*
Y854710D01*
D02*
G37*
G36*
X721360D02*
X707590D01*
Y845940D01*
X721360D01*
Y854710D01*
D02*
G37*
G36*
X700024D02*
X690880D01*
Y845566D01*
X690981D01*
X693630Y846276D01*
X696004Y847647D01*
X697943Y849586D01*
X699314Y851960D01*
X700024Y854609D01*
Y854710D01*
D02*
G37*
G36*
X688340D02*
X679196D01*
Y854609D01*
X679906Y851960D01*
X681277Y849586D01*
X683216Y847647D01*
X685590Y846276D01*
X688239Y845566D01*
X688340D01*
Y854710D01*
D02*
G37*
G36*
X614781Y866394D02*
X612039D01*
X609390Y865684D01*
X607016Y864313D01*
X605077Y862374D01*
X603706Y860000D01*
X602996Y857351D01*
Y854609D01*
X603706Y851960D01*
X605077Y849586D01*
X607016Y847647D01*
X609390Y846276D01*
X612039Y845566D01*
X614781D01*
X617430Y846276D01*
X619804Y847647D01*
X621743Y849586D01*
X623114Y851960D01*
X623824Y854609D01*
Y857351D01*
X623114Y860000D01*
X621743Y862374D01*
X619804Y864313D01*
X617430Y865684D01*
X614781Y866394D01*
D02*
G37*
G36*
X1332381Y841375D02*
X1332230D01*
Y831850D01*
X1341755D01*
Y832001D01*
X1341019Y834747D01*
X1339598Y837208D01*
X1337588Y839218D01*
X1335127Y840639D01*
X1332381Y841375D01*
D02*
G37*
G36*
X1329690D02*
X1329539D01*
X1326793Y840639D01*
X1324332Y839218D01*
X1322322Y837208D01*
X1320901Y834747D01*
X1320165Y832001D01*
Y831850D01*
X1329690D01*
Y841375D01*
D02*
G37*
G36*
X1170940Y850999D02*
X1168400D01*
X1165416Y850606D01*
X1162636Y849454D01*
X1160248Y847622D01*
X1158416Y845234D01*
X1157264Y842454D01*
X1156871Y839470D01*
X1157264Y836486D01*
X1158416Y833706D01*
X1160248Y831318D01*
X1162636Y829486D01*
X1165416Y828334D01*
X1168400Y827941D01*
X1170940D01*
X1173924Y828334D01*
X1176704Y829486D01*
X1179092Y831318D01*
X1180924Y833706D01*
X1182076Y836486D01*
X1182469Y839470D01*
X1182076Y842454D01*
X1180924Y845234D01*
X1179092Y847622D01*
X1176704Y849454D01*
X1173924Y850606D01*
X1170940Y850999D01*
D02*
G37*
G36*
X727630Y840707D02*
X717630D01*
X715009Y840362D01*
X712567Y839350D01*
X710469Y837741D01*
X708860Y835643D01*
X707848Y833201D01*
X707503Y830580D01*
X707848Y827959D01*
X708860Y825517D01*
X710469Y823419D01*
X712567Y821810D01*
X715009Y820798D01*
X717630Y820453D01*
X727630D01*
X730251Y820798D01*
X732693Y821810D01*
X734791Y823419D01*
X736400Y825517D01*
X737412Y827959D01*
X737757Y830580D01*
X737412Y833201D01*
X736400Y835643D01*
X734791Y837741D01*
X732693Y839350D01*
X730251Y840362D01*
X727630Y840707D01*
D02*
G37*
G36*
X1341755Y829310D02*
X1332230D01*
Y819785D01*
X1332381D01*
X1335127Y820521D01*
X1337588Y821942D01*
X1339598Y823952D01*
X1341019Y826413D01*
X1341755Y829159D01*
Y829310D01*
D02*
G37*
G36*
X1329690D02*
X1320165D01*
Y829159D01*
X1320901Y826413D01*
X1322322Y823952D01*
X1324332Y821942D01*
X1326793Y820521D01*
X1329539Y819785D01*
X1329690D01*
Y829310D01*
D02*
G37*
G36*
X1170940Y825599D02*
X1168400D01*
X1165416Y825206D01*
X1162636Y824054D01*
X1160248Y822222D01*
X1158416Y819834D01*
X1157264Y817054D01*
X1156871Y814070D01*
X1157264Y811086D01*
X1158416Y808306D01*
X1160248Y805918D01*
X1162636Y804086D01*
X1165416Y802934D01*
X1168400Y802541D01*
X1170940D01*
X1173924Y802934D01*
X1176704Y804086D01*
X1179092Y805918D01*
X1180924Y808306D01*
X1182076Y811086D01*
X1182469Y814070D01*
X1182076Y817054D01*
X1180924Y819834D01*
X1179092Y822222D01*
X1176704Y824054D01*
X1173924Y825206D01*
X1170940Y825599D01*
D02*
G37*
G36*
X770135Y807720D02*
X769900D01*
Y797560D01*
X780060D01*
Y797795D01*
X779281Y800702D01*
X777776Y803308D01*
X775648Y805436D01*
X773042Y806941D01*
X770135Y807720D01*
D02*
G37*
G36*
X767360D02*
X767125D01*
X764218Y806941D01*
X761612Y805436D01*
X759484Y803308D01*
X757979Y800702D01*
X757200Y797795D01*
Y797560D01*
X767360D01*
Y807720D01*
D02*
G37*
G36*
X780060Y795020D02*
X769900D01*
Y784860D01*
X770135D01*
X773042Y785639D01*
X775648Y787144D01*
X777776Y789272D01*
X779281Y791878D01*
X780060Y794785D01*
Y795020D01*
D02*
G37*
G36*
X767360D02*
X757200D01*
Y794785D01*
X757979Y791878D01*
X759484Y789272D01*
X761612Y787144D01*
X764218Y785639D01*
X767125Y784860D01*
X767360D01*
Y795020D01*
D02*
G37*
G36*
X727630Y815307D02*
X717630D01*
X715009Y814962D01*
X712567Y813950D01*
X710469Y812341D01*
X708860Y810243D01*
X707848Y807801D01*
X707616Y806035D01*
X685237Y783656D01*
X654305D01*
X653554Y784634D01*
X652188Y785683D01*
X650597Y786342D01*
X648890Y786566D01*
X638890D01*
X637183Y786342D01*
X635592Y785683D01*
X634226Y784634D01*
X633177Y783268D01*
X632518Y781677D01*
X632294Y779970D01*
Y771970D01*
X632518Y770263D01*
X633177Y768672D01*
X634226Y767306D01*
X635592Y766257D01*
X637183Y765598D01*
X638890Y765374D01*
X648890D01*
X650597Y765598D01*
X652188Y766257D01*
X653554Y767306D01*
X654305Y768284D01*
X688420D01*
X690409Y768546D01*
X692263Y769314D01*
X693855Y770535D01*
X707007Y783687D01*
X708083Y782968D01*
X707848Y782401D01*
X707616Y780635D01*
X685237Y758256D01*
X652188D01*
X650206Y759777D01*
X647642Y760839D01*
X644890Y761201D01*
X642890D01*
X640138Y760839D01*
X637575Y759777D01*
X635373Y758087D01*
X633683Y755885D01*
X632621Y753322D01*
X632259Y750570D01*
X632621Y747819D01*
X633683Y745255D01*
X635373Y743053D01*
X637575Y741363D01*
X640138Y740301D01*
X642890Y739939D01*
X644890D01*
X647642Y740301D01*
X650206Y741363D01*
X652188Y742884D01*
X688420D01*
X690409Y743146D01*
X692263Y743914D01*
X693855Y745135D01*
X707007Y758287D01*
X708083Y757568D01*
X707848Y757001D01*
X707616Y755235D01*
X685237Y732856D01*
X652188D01*
X650206Y734377D01*
X647642Y735439D01*
X644890Y735801D01*
X642890D01*
X640138Y735439D01*
X637575Y734377D01*
X635373Y732687D01*
X633683Y730486D01*
X632621Y727922D01*
X632259Y725170D01*
X632621Y722419D01*
X633683Y719855D01*
X635373Y717653D01*
X637575Y715963D01*
X640138Y714901D01*
X642890Y714539D01*
X644890D01*
X647642Y714901D01*
X650206Y715963D01*
X652188Y717484D01*
X688420D01*
X690409Y717746D01*
X692263Y718514D01*
X693855Y719735D01*
X707007Y732887D01*
X708083Y732168D01*
X707848Y731601D01*
X707616Y729835D01*
X685237Y707456D01*
X652188D01*
X650206Y708977D01*
X647642Y710039D01*
X644890Y710401D01*
X642890D01*
X640138Y710039D01*
X637575Y708977D01*
X635373Y707287D01*
X633683Y705086D01*
X632621Y702522D01*
X632259Y699770D01*
X632621Y697019D01*
X633683Y694454D01*
X635373Y692253D01*
X637575Y690563D01*
X640138Y689501D01*
X642890Y689139D01*
X644890D01*
X647642Y689501D01*
X650206Y690563D01*
X652188Y692084D01*
X688420D01*
X690409Y692346D01*
X692263Y693114D01*
X693855Y694335D01*
X707007Y707487D01*
X708083Y706768D01*
X707848Y706201D01*
X707671Y704850D01*
X721360D01*
Y713707D01*
X717630D01*
X715009Y713362D01*
X714442Y713127D01*
X713723Y714203D01*
X718373Y718853D01*
X727630D01*
X730251Y719198D01*
X732693Y720210D01*
X734791Y721819D01*
X736400Y723917D01*
X737412Y726359D01*
X737757Y728980D01*
X737412Y731601D01*
X736400Y734043D01*
X734791Y736141D01*
X732693Y737750D01*
X730251Y738762D01*
X727630Y739107D01*
X717630D01*
X715009Y738762D01*
X714442Y738527D01*
X713723Y739603D01*
X718373Y744253D01*
X727630D01*
X730251Y744598D01*
X732693Y745610D01*
X734791Y747219D01*
X736400Y749317D01*
X737412Y751759D01*
X737757Y754380D01*
X737412Y757001D01*
X736400Y759443D01*
X734791Y761541D01*
X732693Y763150D01*
X730251Y764162D01*
X727630Y764507D01*
X717630D01*
X715009Y764162D01*
X714442Y763927D01*
X713723Y765003D01*
X718373Y769653D01*
X727630D01*
X730251Y769998D01*
X732693Y771010D01*
X734791Y772619D01*
X736400Y774717D01*
X737412Y777159D01*
X737757Y779780D01*
X737412Y782401D01*
X736400Y784843D01*
X734791Y786941D01*
X732693Y788550D01*
X730251Y789562D01*
X727630Y789907D01*
X717630D01*
X715009Y789562D01*
X714442Y789327D01*
X713723Y790403D01*
X718373Y795053D01*
X727630D01*
X730251Y795398D01*
X732693Y796410D01*
X734791Y798019D01*
X736400Y800117D01*
X737412Y802559D01*
X737757Y805180D01*
X737412Y807801D01*
X736400Y810243D01*
X734791Y812341D01*
X732693Y813950D01*
X730251Y814962D01*
X727630Y815307D01*
D02*
G37*
G36*
X1170940Y800199D02*
X1168400D01*
X1165416Y799806D01*
X1162636Y798654D01*
X1160248Y796822D01*
X1158416Y794434D01*
X1157264Y791654D01*
X1156871Y788670D01*
X1157264Y785686D01*
X1158416Y782906D01*
X1160248Y780518D01*
X1162636Y778686D01*
X1165416Y777534D01*
X1168400Y777141D01*
X1170940D01*
X1173924Y777534D01*
X1176704Y778686D01*
X1179092Y780518D01*
X1180924Y782906D01*
X1182076Y785686D01*
X1182469Y788670D01*
X1182076Y791654D01*
X1180924Y794434D01*
X1179092Y796822D01*
X1176704Y798654D01*
X1173924Y799806D01*
X1170940Y800199D01*
D02*
G37*
G36*
X1321118Y768985D02*
X1320800D01*
Y758190D01*
X1331595D01*
Y758508D01*
X1330773Y761577D01*
X1329184Y764328D01*
X1326938Y766574D01*
X1324187Y768163D01*
X1321118Y768985D01*
D02*
G37*
G36*
X1318260D02*
X1317942D01*
X1314873Y768163D01*
X1312122Y766574D01*
X1309876Y764328D01*
X1308287Y761577D01*
X1307465Y758508D01*
Y758190D01*
X1318260D01*
Y768985D01*
D02*
G37*
G36*
X1170940Y774799D02*
X1168400D01*
X1165416Y774406D01*
X1162636Y773254D01*
X1160248Y771422D01*
X1158416Y769034D01*
X1157264Y766254D01*
X1156871Y763270D01*
X1157264Y760286D01*
X1158416Y757506D01*
X1160248Y755118D01*
X1162636Y753286D01*
X1165416Y752134D01*
X1168400Y751741D01*
X1170940D01*
X1173924Y752134D01*
X1176704Y753286D01*
X1179092Y755118D01*
X1180924Y757506D01*
X1182076Y760286D01*
X1182469Y763270D01*
X1182076Y766254D01*
X1180924Y769034D01*
X1179092Y771422D01*
X1176704Y773254D01*
X1173924Y774406D01*
X1170940Y774799D01*
D02*
G37*
G36*
X1331595Y755650D02*
X1320800D01*
Y744855D01*
X1321118D01*
X1324187Y745677D01*
X1326938Y747266D01*
X1329184Y749512D01*
X1330773Y752263D01*
X1331595Y755332D01*
Y755650D01*
D02*
G37*
G36*
X1318260D02*
X1307465D01*
Y755332D01*
X1308287Y752263D01*
X1309876Y749512D01*
X1312122Y747266D01*
X1314873Y745677D01*
X1317942Y744855D01*
X1318260D01*
Y755650D01*
D02*
G37*
G36*
X1170940Y749399D02*
Y739140D01*
X1182301D01*
X1182076Y740854D01*
X1180924Y743634D01*
X1179092Y746022D01*
X1176704Y747854D01*
X1173924Y749006D01*
X1170940Y749399D01*
D02*
G37*
G36*
X1168400D02*
X1165416Y749006D01*
X1162636Y747854D01*
X1160248Y746022D01*
X1158416Y743634D01*
X1157264Y740854D01*
X1157039Y739140D01*
X1168400D01*
Y749399D01*
D02*
G37*
G36*
X1182301Y736600D02*
X1170940D01*
Y726341D01*
X1173924Y726734D01*
X1176704Y727886D01*
X1179092Y729718D01*
X1180924Y732106D01*
X1182076Y734886D01*
X1182301Y736600D01*
D02*
G37*
G36*
X1168400D02*
X1157039D01*
X1157264Y734886D01*
X1158416Y732106D01*
X1160248Y729718D01*
X1162636Y727886D01*
X1165416Y726734D01*
X1168400Y726341D01*
Y736600D01*
D02*
G37*
G36*
X727630Y713707D02*
X723900D01*
Y704850D01*
X737589D01*
X737412Y706201D01*
X736400Y708643D01*
X734791Y710741D01*
X732693Y712350D01*
X730251Y713362D01*
X727630Y713707D01*
D02*
G37*
G36*
X1170940Y723999D02*
X1168400D01*
X1165416Y723606D01*
X1162636Y722454D01*
X1160248Y720622D01*
X1158416Y718234D01*
X1157264Y715454D01*
X1156871Y712470D01*
X1157264Y709486D01*
X1158416Y706706D01*
X1160248Y704318D01*
X1162636Y702486D01*
X1165416Y701334D01*
X1168400Y700941D01*
X1170940D01*
X1173924Y701334D01*
X1176704Y702486D01*
X1179092Y704318D01*
X1180924Y706706D01*
X1182076Y709486D01*
X1182469Y712470D01*
X1182076Y715454D01*
X1180924Y718234D01*
X1179092Y720622D01*
X1176704Y722454D01*
X1173924Y723606D01*
X1170940Y723999D01*
D02*
G37*
G36*
X737589Y702310D02*
X723900D01*
Y693453D01*
X727630D01*
X730251Y693798D01*
X732693Y694810D01*
X734791Y696419D01*
X736400Y698517D01*
X737412Y700959D01*
X737589Y702310D01*
D02*
G37*
G36*
X721360D02*
X707671D01*
X707848Y700959D01*
X708860Y698517D01*
X710469Y696419D01*
X712567Y694810D01*
X715009Y693798D01*
X717630Y693453D01*
X721360D01*
Y702310D01*
D02*
G37*
G36*
X1170940Y698599D02*
X1168400D01*
X1165416Y698206D01*
X1162636Y697054D01*
X1160248Y695222D01*
X1158416Y692834D01*
X1157264Y690054D01*
X1156871Y687070D01*
X1157264Y684086D01*
X1158416Y681306D01*
X1160248Y678918D01*
X1162636Y677086D01*
X1165416Y675934D01*
X1168400Y675541D01*
X1170940D01*
X1173924Y675934D01*
X1176704Y677086D01*
X1179092Y678918D01*
X1180924Y681306D01*
X1182076Y684086D01*
X1182469Y687070D01*
X1182076Y690054D01*
X1180924Y692834D01*
X1179092Y695222D01*
X1176704Y697054D01*
X1173924Y698206D01*
X1170940Y698599D01*
D02*
G37*
G36*
X854630Y688307D02*
X844630D01*
X842009Y687962D01*
X839567Y686950D01*
X837469Y685341D01*
X835860Y683243D01*
X834848Y680801D01*
X834503Y678180D01*
X834848Y675559D01*
X835860Y673117D01*
X837469Y671019D01*
X839567Y669410D01*
X842009Y668398D01*
X844630Y668053D01*
X854630D01*
X857251Y668398D01*
X859693Y669410D01*
X861791Y671019D01*
X863400Y673117D01*
X864412Y675559D01*
X864757Y678180D01*
X864412Y680801D01*
X863400Y683243D01*
X861791Y685341D01*
X859693Y686950D01*
X857251Y687962D01*
X854630Y688307D01*
D02*
G37*
G36*
X727630D02*
X717630D01*
X715009Y687962D01*
X712567Y686950D01*
X710469Y685341D01*
X708860Y683243D01*
X707848Y680801D01*
X707503Y678180D01*
X707848Y675559D01*
X708860Y673117D01*
X710469Y671019D01*
X712567Y669410D01*
X715009Y668398D01*
X717630Y668053D01*
X727630D01*
X730251Y668398D01*
X732693Y669410D01*
X734791Y671019D01*
X736400Y673117D01*
X737412Y675559D01*
X737757Y678180D01*
X737412Y680801D01*
X736400Y683243D01*
X734791Y685341D01*
X732693Y686950D01*
X730251Y687962D01*
X727630Y688307D01*
D02*
G37*
G36*
X1292860Y671830D02*
X1282590D01*
Y660560D01*
X1292860D01*
Y671830D01*
D02*
G37*
G36*
X916940Y672608D02*
X914400D01*
X911416Y672215D01*
X908636Y671064D01*
X906248Y669231D01*
X904416Y666844D01*
X903264Y664063D01*
X902871Y661079D01*
X903264Y658096D01*
X903966Y656402D01*
X902923Y655601D01*
X902890Y655626D01*
X901037Y656394D01*
X899047Y656656D01*
X861106D01*
X859693Y657740D01*
X857251Y658752D01*
X854630Y659097D01*
X844630D01*
X842009Y658752D01*
X839567Y657740D01*
X837469Y656131D01*
X835860Y654033D01*
X834848Y651591D01*
X834503Y648970D01*
X834848Y646349D01*
X835860Y643907D01*
X837469Y641809D01*
X839567Y640200D01*
X842009Y639188D01*
X844630Y638843D01*
X854630D01*
X857251Y639188D01*
X859693Y640200D01*
X861106Y641284D01*
X895864D01*
X903084Y634064D01*
X903264Y632696D01*
X903966Y631002D01*
X902923Y630201D01*
X902890Y630226D01*
X901037Y630994D01*
X899047Y631256D01*
X861106D01*
X859693Y632340D01*
X857251Y633352D01*
X854630Y633697D01*
X844630D01*
X842009Y633352D01*
X839567Y632340D01*
X837469Y630731D01*
X835860Y628633D01*
X834848Y626191D01*
X834503Y623570D01*
X834848Y620949D01*
X835860Y618507D01*
X837469Y616409D01*
X839567Y614800D01*
X842009Y613788D01*
X844630Y613443D01*
X854630D01*
X857251Y613788D01*
X859693Y614800D01*
X861106Y615884D01*
X895864D01*
X903084Y608664D01*
X903264Y607296D01*
X904416Y604515D01*
X906248Y602127D01*
X908636Y600295D01*
X911416Y599144D01*
X914400Y598751D01*
X916940D01*
X919924Y599144D01*
X922704Y600295D01*
X925092Y602127D01*
X926924Y604515D01*
X928076Y607296D01*
X928469Y610279D01*
X928076Y613263D01*
X926924Y616044D01*
X925092Y618431D01*
X922704Y620263D01*
X919924Y621415D01*
X916940Y621808D01*
X914400D01*
X911995Y621492D01*
X909541Y623946D01*
X910261Y625022D01*
X911416Y624544D01*
X914400Y624151D01*
X916940D01*
X919924Y624544D01*
X922704Y625695D01*
X925092Y627528D01*
X926924Y629915D01*
X928076Y632696D01*
X928469Y635679D01*
X928076Y638663D01*
X926924Y641444D01*
X925092Y643831D01*
X922704Y645664D01*
X919924Y646815D01*
X916940Y647208D01*
X914400D01*
X911995Y646891D01*
X909541Y649346D01*
X910261Y650422D01*
X911416Y649944D01*
X914400Y649551D01*
X916940D01*
X919924Y649944D01*
X922704Y651095D01*
X925092Y652927D01*
X926924Y655315D01*
X928076Y658096D01*
X928469Y661079D01*
X928076Y664063D01*
X926924Y666844D01*
X925092Y669231D01*
X922704Y671064D01*
X919924Y672215D01*
X916940Y672608D01*
D02*
G37*
G36*
X737670Y659010D02*
X723900D01*
Y650240D01*
X737670D01*
Y659010D01*
D02*
G37*
G36*
X721360D02*
X707590D01*
Y650240D01*
X721360D01*
Y659010D01*
D02*
G37*
G36*
X1170940Y673199D02*
X1168400D01*
X1165416Y672806D01*
X1162636Y671654D01*
X1160248Y669822D01*
X1158416Y667434D01*
X1157264Y664654D01*
X1156871Y661670D01*
X1157264Y658686D01*
X1158416Y655906D01*
X1160248Y653518D01*
X1162636Y651686D01*
X1165416Y650534D01*
X1168400Y650141D01*
X1170940D01*
X1173924Y650534D01*
X1176704Y651686D01*
X1179092Y653518D01*
X1180924Y655906D01*
X1182076Y658686D01*
X1182469Y661670D01*
X1182076Y664654D01*
X1180924Y667434D01*
X1179092Y669822D01*
X1176704Y671654D01*
X1173924Y672806D01*
X1170940Y673199D01*
D02*
G37*
G36*
X737670Y647700D02*
X723900D01*
Y638930D01*
X737670D01*
Y647700D01*
D02*
G37*
G36*
X721360D02*
X707590D01*
Y638930D01*
X721360D01*
Y647700D01*
D02*
G37*
G36*
X1170940Y647799D02*
X1168400D01*
X1165416Y647406D01*
X1162636Y646254D01*
X1160248Y644422D01*
X1158416Y642034D01*
X1157264Y639254D01*
X1156871Y636270D01*
X1157264Y633286D01*
X1158416Y630506D01*
X1160248Y628118D01*
X1162636Y626286D01*
X1165416Y625134D01*
X1168400Y624741D01*
X1170940D01*
X1173924Y625134D01*
X1176704Y626286D01*
X1179092Y628118D01*
X1180924Y630506D01*
X1182076Y633286D01*
X1182469Y636270D01*
X1182076Y639254D01*
X1180924Y642034D01*
X1179092Y644422D01*
X1176704Y646254D01*
X1173924Y647406D01*
X1170940Y647799D01*
D02*
G37*
G36*
Y622399D02*
X1168400D01*
X1165416Y622006D01*
X1162636Y620854D01*
X1160248Y619022D01*
X1158416Y616634D01*
X1157264Y613854D01*
X1156871Y610870D01*
X1157264Y607886D01*
X1158416Y605106D01*
X1160248Y602718D01*
X1162636Y600886D01*
X1165416Y599734D01*
X1168400Y599341D01*
X1170940D01*
X1173924Y599734D01*
X1176704Y600886D01*
X1179092Y602718D01*
X1180924Y605106D01*
X1182076Y607886D01*
X1182469Y610870D01*
X1182076Y613854D01*
X1180924Y616634D01*
X1179092Y619022D01*
X1176704Y620854D01*
X1173924Y622006D01*
X1170940Y622399D01*
D02*
G37*
G36*
X648890Y649406D02*
X638890D01*
X637183Y649182D01*
X635592Y648523D01*
X634226Y647474D01*
X633177Y646108D01*
X632518Y644517D01*
X632294Y642810D01*
Y634810D01*
X632518Y633103D01*
X633177Y631512D01*
X634226Y630146D01*
X635592Y629097D01*
X637183Y628438D01*
X638890Y628214D01*
X648890D01*
X650597Y628438D01*
X652188Y629097D01*
X653554Y630146D01*
X654305Y631124D01*
X673807D01*
X707616Y597315D01*
X707848Y595549D01*
X708083Y594982D01*
X707007Y594263D01*
X682425Y618845D01*
X680833Y620066D01*
X678979Y620834D01*
X676990Y621096D01*
X652188D01*
X650206Y622617D01*
X647642Y623679D01*
X644890Y624041D01*
X642890D01*
X640138Y623679D01*
X637575Y622617D01*
X635373Y620927D01*
X633683Y618726D01*
X632621Y616161D01*
X632259Y613410D01*
X632621Y610658D01*
X633683Y608094D01*
X635373Y605893D01*
X637575Y604203D01*
X640138Y603141D01*
X642890Y602779D01*
X644890D01*
X647642Y603141D01*
X650206Y604203D01*
X652188Y605724D01*
X673807D01*
X707616Y571915D01*
X707848Y570149D01*
X708083Y569582D01*
X707007Y568863D01*
X682425Y593445D01*
X680833Y594666D01*
X678979Y595434D01*
X676990Y595696D01*
X652188D01*
X650206Y597217D01*
X647642Y598279D01*
X644890Y598641D01*
X642890D01*
X640138Y598279D01*
X637575Y597217D01*
X635373Y595527D01*
X633683Y593326D01*
X632621Y590761D01*
X632259Y588010D01*
X632621Y585258D01*
X633683Y582695D01*
X635373Y580493D01*
X637575Y578803D01*
X640138Y577741D01*
X642890Y577379D01*
X644890D01*
X647642Y577741D01*
X650206Y578803D01*
X652188Y580324D01*
X673807D01*
X707616Y546515D01*
X707848Y544749D01*
X708083Y544182D01*
X707007Y543463D01*
X682425Y568045D01*
X680833Y569266D01*
X678979Y570034D01*
X676990Y570296D01*
X652188D01*
X650206Y571817D01*
X647642Y572879D01*
X644890Y573241D01*
X642890D01*
X640138Y572879D01*
X637575Y571817D01*
X635373Y570127D01*
X633683Y567925D01*
X632621Y565362D01*
X632259Y562610D01*
X632621Y559859D01*
X633683Y557295D01*
X635373Y555093D01*
X637575Y553403D01*
X640138Y552341D01*
X642890Y551979D01*
X644890D01*
X647642Y552341D01*
X650206Y553403D01*
X652188Y554924D01*
X673807D01*
X707616Y521115D01*
X707848Y519349D01*
X708860Y516907D01*
X710469Y514809D01*
X712567Y513200D01*
X715009Y512188D01*
X717630Y511843D01*
X727630D01*
X730251Y512188D01*
X732693Y513200D01*
X734791Y514809D01*
X736400Y516907D01*
X737412Y519349D01*
X737757Y521970D01*
X737412Y524591D01*
X736400Y527033D01*
X734791Y529131D01*
X732693Y530740D01*
X730251Y531752D01*
X727630Y532097D01*
X718373D01*
X713723Y536747D01*
X714442Y537823D01*
X715009Y537588D01*
X717630Y537243D01*
X727630D01*
X730251Y537588D01*
X732693Y538600D01*
X734791Y540209D01*
X736400Y542307D01*
X737412Y544749D01*
X737757Y547370D01*
X737412Y549991D01*
X736400Y552433D01*
X734791Y554531D01*
X732693Y556140D01*
X730251Y557152D01*
X727630Y557497D01*
X718373D01*
X713723Y562147D01*
X714442Y563223D01*
X715009Y562988D01*
X717630Y562643D01*
X727630D01*
X730251Y562988D01*
X732693Y564000D01*
X734791Y565609D01*
X736400Y567707D01*
X737412Y570149D01*
X737757Y572770D01*
X737412Y575391D01*
X736400Y577833D01*
X734791Y579931D01*
X732693Y581540D01*
X730251Y582552D01*
X727630Y582897D01*
X718373D01*
X713723Y587547D01*
X714442Y588623D01*
X715009Y588388D01*
X717630Y588043D01*
X727630D01*
X730251Y588388D01*
X732693Y589400D01*
X734791Y591009D01*
X736400Y593107D01*
X737412Y595549D01*
X737757Y598170D01*
X737412Y600791D01*
X736400Y603233D01*
X734791Y605331D01*
X732693Y606940D01*
X730251Y607952D01*
X727630Y608297D01*
X718373D01*
X713723Y612947D01*
X714442Y614023D01*
X715009Y613788D01*
X717630Y613443D01*
X727630D01*
X730251Y613788D01*
X732693Y614800D01*
X734791Y616409D01*
X736400Y618507D01*
X737412Y620949D01*
X737757Y623570D01*
X737412Y626191D01*
X736400Y628633D01*
X734791Y630731D01*
X732693Y632340D01*
X730251Y633352D01*
X727630Y633697D01*
X717630D01*
X715009Y633352D01*
X712567Y632340D01*
X710469Y630731D01*
X708860Y628633D01*
X707848Y626191D01*
X707503Y623570D01*
X707848Y620949D01*
X708083Y620382D01*
X707007Y619663D01*
X682425Y644245D01*
X680833Y645466D01*
X678979Y646234D01*
X676990Y646496D01*
X654305D01*
X653554Y647474D01*
X652188Y648523D01*
X650597Y649182D01*
X648890Y649406D01*
D02*
G37*
G36*
X770135Y598170D02*
X769900D01*
Y588010D01*
X780060D01*
Y588245D01*
X779281Y591152D01*
X777776Y593758D01*
X775648Y595886D01*
X773042Y597391D01*
X770135Y598170D01*
D02*
G37*
G36*
X767360D02*
X767125D01*
X764218Y597391D01*
X761612Y595886D01*
X759484Y593758D01*
X757979Y591152D01*
X757200Y588245D01*
Y588010D01*
X767360D01*
Y598170D01*
D02*
G37*
G36*
X1271588Y592455D02*
X1271270D01*
Y581660D01*
X1282065D01*
Y581978D01*
X1281243Y585047D01*
X1279654Y587798D01*
X1277408Y590044D01*
X1274657Y591633D01*
X1271588Y592455D01*
D02*
G37*
G36*
X1268730D02*
X1268412D01*
X1265343Y591633D01*
X1262592Y590044D01*
X1260346Y587798D01*
X1258757Y585047D01*
X1257935Y581978D01*
Y581660D01*
X1268730D01*
Y592455D01*
D02*
G37*
G36*
X780060Y585470D02*
X769900D01*
Y575310D01*
X770135D01*
X773042Y576089D01*
X775648Y577594D01*
X777776Y579722D01*
X779281Y582328D01*
X780060Y585235D01*
Y585470D01*
D02*
G37*
G36*
X767360D02*
X757200D01*
Y585235D01*
X757979Y582328D01*
X759484Y579722D01*
X761612Y577594D01*
X764218Y576089D01*
X767125Y575310D01*
X767360D01*
Y585470D01*
D02*
G37*
G36*
X1170940Y596999D02*
X1168400D01*
X1165416Y596606D01*
X1162636Y595454D01*
X1160248Y593622D01*
X1158416Y591234D01*
X1157264Y588454D01*
X1156871Y585470D01*
X1157264Y582486D01*
X1158416Y579706D01*
X1160248Y577318D01*
X1162636Y575486D01*
X1165416Y574334D01*
X1168400Y573941D01*
X1170940D01*
X1173924Y574334D01*
X1176704Y575486D01*
X1179092Y577318D01*
X1180924Y579706D01*
X1182076Y582486D01*
X1182469Y585470D01*
X1182076Y588454D01*
X1180924Y591234D01*
X1179092Y593622D01*
X1176704Y595454D01*
X1173924Y596606D01*
X1170940Y596999D01*
D02*
G37*
G36*
X916940Y596408D02*
X914400D01*
X911416Y596015D01*
X908636Y594864D01*
X906248Y593031D01*
X904416Y590644D01*
X903264Y587863D01*
X902871Y584879D01*
X903264Y581896D01*
X904416Y579115D01*
X906248Y576727D01*
X908636Y574895D01*
X911416Y573744D01*
X914400Y573351D01*
X916940D01*
X919924Y573744D01*
X922704Y574895D01*
X925092Y576727D01*
X926924Y579115D01*
X928076Y581896D01*
X928469Y584879D01*
X928076Y587863D01*
X926924Y590644D01*
X925092Y593031D01*
X922704Y594864D01*
X919924Y596015D01*
X916940Y596408D01*
D02*
G37*
G36*
X1282065Y579120D02*
X1271270D01*
Y568325D01*
X1271588D01*
X1274657Y569147D01*
X1277408Y570736D01*
X1279654Y572982D01*
X1281243Y575733D01*
X1282065Y578802D01*
Y579120D01*
D02*
G37*
G36*
X1268730D02*
X1257935D01*
Y578802D01*
X1258757Y575733D01*
X1260346Y572982D01*
X1262592Y570736D01*
X1265343Y569147D01*
X1268412Y568325D01*
X1268730D01*
Y579120D01*
D02*
G37*
G36*
X916940Y571008D02*
Y560749D01*
X928301D01*
X928076Y562463D01*
X926924Y565244D01*
X925092Y567631D01*
X922704Y569464D01*
X919924Y570615D01*
X916940Y571008D01*
D02*
G37*
G36*
X914400D02*
X911416Y570615D01*
X908636Y569464D01*
X906248Y567631D01*
X904416Y565244D01*
X903264Y562463D01*
X903039Y560749D01*
X914400D01*
Y571008D01*
D02*
G37*
G36*
X1170940Y571599D02*
X1168400D01*
X1165416Y571206D01*
X1162636Y570054D01*
X1160248Y568222D01*
X1158416Y565834D01*
X1157264Y563054D01*
X1156871Y560070D01*
X1157264Y557086D01*
X1158416Y554306D01*
X1160248Y551918D01*
X1162636Y550086D01*
X1165416Y548934D01*
X1168400Y548541D01*
X1170940D01*
X1173924Y548934D01*
X1176704Y550086D01*
X1179092Y551918D01*
X1180924Y554306D01*
X1182076Y557086D01*
X1182469Y560070D01*
X1182076Y563054D01*
X1180924Y565834D01*
X1179092Y568222D01*
X1176704Y570054D01*
X1173924Y571206D01*
X1170940Y571599D01*
D02*
G37*
G36*
X928301Y558209D02*
X916940D01*
Y547951D01*
X919924Y548344D01*
X922704Y549495D01*
X925092Y551328D01*
X926924Y553715D01*
X928076Y556496D01*
X928301Y558209D01*
D02*
G37*
G36*
X914400D02*
X903039D01*
X903264Y556496D01*
X904416Y553715D01*
X906248Y551328D01*
X908636Y549495D01*
X911416Y548344D01*
X914400Y547951D01*
Y558209D01*
D02*
G37*
G36*
X1170940Y546199D02*
X1168400D01*
X1165416Y545806D01*
X1162636Y544654D01*
X1160248Y542822D01*
X1158416Y540434D01*
X1157264Y537654D01*
X1156871Y534670D01*
X1157264Y531686D01*
X1158416Y528906D01*
X1160248Y526518D01*
X1162636Y524686D01*
X1165416Y523534D01*
X1168400Y523141D01*
X1170940D01*
X1173924Y523534D01*
X1176704Y524686D01*
X1179092Y526518D01*
X1180924Y528906D01*
X1182076Y531686D01*
X1182469Y534670D01*
X1182076Y537654D01*
X1180924Y540434D01*
X1179092Y542822D01*
X1176704Y544654D01*
X1173924Y545806D01*
X1170940Y546199D01*
D02*
G37*
G36*
X916940Y545608D02*
X914400D01*
X911416Y545215D01*
X908636Y544063D01*
X906248Y542231D01*
X904416Y539844D01*
X903264Y537063D01*
X902871Y534079D01*
X903264Y531096D01*
X904416Y528315D01*
X906248Y525928D01*
X908636Y524095D01*
X911416Y522944D01*
X914400Y522551D01*
X916940D01*
X919924Y522944D01*
X922704Y524095D01*
X925092Y525928D01*
X926924Y528315D01*
X928076Y531096D01*
X928469Y534079D01*
X928076Y537063D01*
X926924Y539844D01*
X925092Y542231D01*
X922704Y544063D01*
X919924Y545215D01*
X916940Y545608D01*
D02*
G37*
G36*
X1259991Y520065D02*
X1259840D01*
Y510540D01*
X1269365D01*
Y510691D01*
X1268629Y513437D01*
X1267208Y515898D01*
X1265198Y517908D01*
X1262737Y519329D01*
X1259991Y520065D01*
D02*
G37*
G36*
X1257300D02*
X1257149D01*
X1254403Y519329D01*
X1251942Y517908D01*
X1249932Y515898D01*
X1248511Y513437D01*
X1247775Y510691D01*
Y510540D01*
X1257300D01*
Y520065D01*
D02*
G37*
G36*
X1256181Y841375D02*
X1253339D01*
X1250593Y840639D01*
X1248132Y839218D01*
X1246122Y837208D01*
X1244701Y834747D01*
X1243965Y832001D01*
Y829159D01*
X1244701Y826413D01*
X1246122Y823952D01*
X1248132Y821942D01*
X1249150Y821354D01*
X1258482Y812022D01*
Y768985D01*
X1256665D01*
Y744855D01*
X1258482D01*
Y685640D01*
X1257190D01*
Y660560D01*
X1280270D01*
Y673814D01*
X1280358Y674480D01*
X1280358Y674480D01*
Y678204D01*
X1281417Y679263D01*
X1282590Y678777D01*
Y674370D01*
X1294130D01*
Y673100D01*
X1295400D01*
Y660560D01*
X1305670D01*
Y671349D01*
X1306940Y671432D01*
X1307157Y669785D01*
X1307990Y667773D01*
Y660560D01*
X1307990D01*
Y580390D01*
X1308427Y577075D01*
X1308735Y576331D01*
Y568325D01*
X1314749D01*
X1321960Y561114D01*
Y522080D01*
X1294130D01*
X1290815Y521643D01*
X1287725Y520363D01*
X1285072Y518328D01*
X1268474Y501730D01*
X1268129Y501799D01*
X1268026Y501893D01*
X1267537Y503211D01*
X1268629Y505103D01*
X1269365Y507849D01*
Y508000D01*
X1258570D01*
X1247775D01*
Y507849D01*
X1248511Y505103D01*
X1249932Y502642D01*
X1250276Y502298D01*
X1249790Y501125D01*
X1232535D01*
X1229220Y500688D01*
X1226130Y499408D01*
X1223477Y497373D01*
X1205062Y478958D01*
X1203027Y476305D01*
X1201747Y473215D01*
X1201310Y469900D01*
X1201747Y466585D01*
X1203027Y463495D01*
X1205062Y460842D01*
X1207715Y458807D01*
X1210805Y457527D01*
X1214120Y457090D01*
X1217435Y457527D01*
X1220525Y458807D01*
X1223178Y460842D01*
X1237841Y475505D01*
X1273175D01*
X1276490Y475942D01*
X1276732Y476042D01*
X1277392Y474941D01*
X1277319Y474881D01*
X1275256Y472367D01*
X1273723Y469499D01*
X1272779Y466386D01*
X1272627Y464842D01*
X1248290Y440506D01*
X1248116D01*
X1244801Y440069D01*
X1241711Y438789D01*
X1239058Y436754D01*
X1207434Y405130D01*
X1202690D01*
Y399292D01*
X1201747Y397015D01*
X1201310Y393700D01*
X1201747Y390385D01*
X1202690Y388108D01*
Y383628D01*
X980284D01*
X927812Y436100D01*
X926924Y438244D01*
X925092Y440631D01*
X922704Y442463D01*
X919924Y443615D01*
X916940Y444008D01*
X914400D01*
X911416Y443615D01*
X908636Y442463D01*
X906248Y440631D01*
X904416Y438244D01*
X903264Y435463D01*
X902871Y432479D01*
X903264Y429496D01*
X904416Y426715D01*
X906248Y424328D01*
X908636Y422495D01*
X911416Y421344D01*
X913912Y421015D01*
X968793Y366134D01*
X968793Y366134D01*
X970916Y364505D01*
X973387Y363481D01*
X976039Y363132D01*
X1294128D01*
X1294128Y363132D01*
X1296781Y363481D01*
X1299252Y364505D01*
X1301375Y366134D01*
X1362336Y427095D01*
X1362336Y427095D01*
X1363965Y429218D01*
X1364989Y431689D01*
X1365338Y434342D01*
X1365338Y434342D01*
Y670908D01*
X1364989Y673561D01*
X1363965Y676032D01*
X1362336Y678155D01*
X1339825Y700666D01*
X1337702Y702295D01*
X1335231Y703318D01*
X1332578Y703668D01*
X1332578Y703668D01*
X1281082D01*
X1279932Y703516D01*
X1278978Y704354D01*
Y744855D01*
X1280795D01*
Y768985D01*
X1278978D01*
Y816266D01*
X1278628Y818919D01*
X1277605Y821390D01*
X1275976Y823513D01*
X1275976Y823513D01*
X1264848Y834641D01*
X1264819Y834747D01*
X1263398Y837208D01*
X1261388Y839218D01*
X1258927Y840639D01*
X1256181Y841375D01*
D02*
G37*
G36*
X727630Y506697D02*
X723900D01*
Y497840D01*
X737589D01*
X737412Y499191D01*
X736400Y501633D01*
X734791Y503731D01*
X732693Y505340D01*
X730251Y506352D01*
X727630Y506697D01*
D02*
G37*
G36*
X721360D02*
X717630D01*
X715009Y506352D01*
X712567Y505340D01*
X710469Y503731D01*
X708860Y501633D01*
X707848Y499191D01*
X707671Y497840D01*
X721360D01*
Y506697D01*
D02*
G37*
G36*
X1170940Y520799D02*
X1168400D01*
X1165416Y520406D01*
X1162636Y519254D01*
X1160248Y517422D01*
X1158416Y515034D01*
X1157264Y512254D01*
X1156871Y509270D01*
X1157264Y506286D01*
X1158416Y503506D01*
X1160248Y501118D01*
X1162636Y499286D01*
X1165416Y498134D01*
X1168400Y497741D01*
X1170940D01*
X1173924Y498134D01*
X1176704Y499286D01*
X1179092Y501118D01*
X1180924Y503506D01*
X1182076Y506286D01*
X1182469Y509270D01*
X1182076Y512254D01*
X1180924Y515034D01*
X1179092Y517422D01*
X1176704Y519254D01*
X1173924Y520406D01*
X1170940Y520799D01*
D02*
G37*
G36*
X916940Y520208D02*
X914400D01*
X911416Y519815D01*
X908636Y518663D01*
X906248Y516831D01*
X904416Y514444D01*
X903264Y511663D01*
X902871Y508679D01*
X903264Y505696D01*
X904416Y502915D01*
X906248Y500527D01*
X908636Y498695D01*
X911416Y497544D01*
X914400Y497151D01*
X916940D01*
X919924Y497544D01*
X922704Y498695D01*
X925092Y500527D01*
X926924Y502915D01*
X928076Y505696D01*
X928469Y508679D01*
X928076Y511663D01*
X926924Y514444D01*
X925092Y516831D01*
X922704Y518663D01*
X919924Y519815D01*
X916940Y520208D01*
D02*
G37*
G36*
X737589Y495300D02*
X723900D01*
Y486443D01*
X727630D01*
X730251Y486788D01*
X732693Y487800D01*
X734791Y489409D01*
X736400Y491507D01*
X737412Y493949D01*
X737589Y495300D01*
D02*
G37*
G36*
X721360D02*
X707671D01*
X707848Y493949D01*
X708860Y491507D01*
X710469Y489409D01*
X712567Y487800D01*
X715009Y486788D01*
X717630Y486443D01*
X721360D01*
Y495300D01*
D02*
G37*
G36*
X1170940Y495399D02*
X1168400D01*
X1165416Y495006D01*
X1162636Y493854D01*
X1160248Y492022D01*
X1158416Y489634D01*
X1157264Y486854D01*
X1156871Y483870D01*
X1157264Y480886D01*
X1158416Y478106D01*
X1160248Y475718D01*
X1162636Y473886D01*
X1165416Y472734D01*
X1168400Y472341D01*
X1170940D01*
X1173924Y472734D01*
X1176704Y473886D01*
X1179092Y475718D01*
X1180924Y478106D01*
X1182076Y480886D01*
X1182469Y483870D01*
X1182076Y486854D01*
X1180924Y489634D01*
X1179092Y492022D01*
X1176704Y493854D01*
X1173924Y495006D01*
X1170940Y495399D01*
D02*
G37*
G36*
X916940Y494808D02*
X914400D01*
X911416Y494415D01*
X908636Y493264D01*
X906248Y491431D01*
X904416Y489044D01*
X903264Y486263D01*
X902871Y483279D01*
X903264Y480296D01*
X904416Y477515D01*
X906248Y475127D01*
X908636Y473295D01*
X911416Y472144D01*
X914400Y471751D01*
X916940D01*
X919924Y472144D01*
X922704Y473295D01*
X925092Y475127D01*
X926924Y477515D01*
X928076Y480296D01*
X928469Y483279D01*
X928076Y486263D01*
X926924Y489044D01*
X925092Y491431D01*
X922704Y493264D01*
X919924Y494415D01*
X916940Y494808D01*
D02*
G37*
G36*
X854630Y481297D02*
X844630D01*
X842009Y480952D01*
X839567Y479940D01*
X837469Y478331D01*
X835860Y476233D01*
X834848Y473791D01*
X834503Y471170D01*
X834848Y468549D01*
X835860Y466107D01*
X837469Y464009D01*
X839567Y462400D01*
X842009Y461388D01*
X844630Y461043D01*
X854630D01*
X857251Y461388D01*
X859693Y462400D01*
X861791Y464009D01*
X863400Y466107D01*
X864412Y468549D01*
X864757Y471170D01*
X864412Y473791D01*
X863400Y476233D01*
X861791Y478331D01*
X859693Y479940D01*
X857251Y480952D01*
X854630Y481297D01*
D02*
G37*
G36*
X727630D02*
X717630D01*
X715009Y480952D01*
X712567Y479940D01*
X710469Y478331D01*
X708860Y476233D01*
X707848Y473791D01*
X707503Y471170D01*
X707848Y468549D01*
X708860Y466107D01*
X710469Y464009D01*
X712567Y462400D01*
X715009Y461388D01*
X717630Y461043D01*
X727630D01*
X730251Y461388D01*
X732693Y462400D01*
X734791Y464009D01*
X736400Y466107D01*
X737412Y468549D01*
X737757Y471170D01*
X737412Y473791D01*
X736400Y476233D01*
X734791Y478331D01*
X732693Y479940D01*
X730251Y480952D01*
X727630Y481297D01*
D02*
G37*
G36*
X1170940Y469999D02*
X1168400D01*
X1165416Y469606D01*
X1162636Y468454D01*
X1160248Y466622D01*
X1158416Y464234D01*
X1157264Y461454D01*
X1156871Y458470D01*
X1157264Y455486D01*
X1158416Y452706D01*
X1160248Y450318D01*
X1162636Y448486D01*
X1165416Y447334D01*
X1168400Y446941D01*
X1170940D01*
X1173924Y447334D01*
X1176704Y448486D01*
X1179092Y450318D01*
X1180924Y452706D01*
X1182076Y455486D01*
X1182469Y458470D01*
X1182076Y461454D01*
X1180924Y464234D01*
X1179092Y466622D01*
X1176704Y468454D01*
X1173924Y469606D01*
X1170940Y469999D01*
D02*
G37*
G36*
X916940Y469408D02*
X914400D01*
X911416Y469015D01*
X908636Y467864D01*
X906248Y466031D01*
X904416Y463644D01*
X903264Y460863D01*
X902871Y457879D01*
X903264Y454896D01*
X904416Y452115D01*
X906248Y449728D01*
X908636Y447895D01*
X911416Y446744D01*
X914400Y446351D01*
X916940D01*
X919924Y446744D01*
X922704Y447895D01*
X925092Y449728D01*
X926924Y452115D01*
X928076Y454896D01*
X928469Y457879D01*
X928076Y460863D01*
X926924Y463644D01*
X925092Y466031D01*
X922704Y467864D01*
X919924Y469015D01*
X916940Y469408D01*
D02*
G37*
G36*
X1170940Y443329D02*
X1168400D01*
X1165416Y442936D01*
X1162636Y441784D01*
X1160248Y439952D01*
X1158416Y437564D01*
X1157264Y434784D01*
X1156871Y431800D01*
X1157264Y428816D01*
X1158416Y426036D01*
X1160248Y423648D01*
X1162636Y421816D01*
X1165416Y420664D01*
X1168400Y420271D01*
X1170940D01*
X1173924Y420664D01*
X1176704Y421816D01*
X1179092Y423648D01*
X1180924Y426036D01*
X1182076Y428816D01*
X1182469Y431800D01*
X1182076Y434784D01*
X1180924Y437564D01*
X1179092Y439952D01*
X1176704Y441784D01*
X1173924Y442936D01*
X1170940Y443329D01*
D02*
G37*
G36*
X806405Y420370D02*
X806170D01*
Y410210D01*
X816330D01*
Y410445D01*
X815551Y413352D01*
X814046Y415958D01*
X811918Y418086D01*
X809312Y419591D01*
X806405Y420370D01*
D02*
G37*
G36*
X803630D02*
X803395D01*
X800488Y419591D01*
X797882Y418086D01*
X795754Y415958D01*
X794249Y413352D01*
X793470Y410445D01*
Y410210D01*
X803630D01*
Y420370D01*
D02*
G37*
G36*
X816330Y407670D02*
X806170D01*
Y397510D01*
X806405D01*
X809312Y398289D01*
X811918Y399794D01*
X814046Y401922D01*
X815551Y404528D01*
X816330Y407435D01*
Y407670D01*
D02*
G37*
G36*
X803630D02*
X793470D01*
Y407435D01*
X794249Y404528D01*
X795754Y401922D01*
X797882Y399794D01*
X800488Y398289D01*
X803395Y397510D01*
X803630D01*
Y407670D01*
D02*
G37*
G36*
X781330Y420370D02*
X758470D01*
Y397510D01*
X781330D01*
Y420370D01*
D02*
G37*
%LPD*%
G36*
X1344842Y499623D02*
Y438586D01*
X1309273Y403017D01*
X1308100Y403503D01*
Y411880D01*
X1291590D01*
Y396640D01*
X1301237D01*
X1301723Y395467D01*
X1289884Y383628D01*
X1225550D01*
Y387015D01*
X1253422Y414886D01*
X1253596D01*
X1256911Y415323D01*
X1260001Y416603D01*
X1262654Y418638D01*
X1271367Y427351D01*
X1272540Y426865D01*
Y414420D01*
X1289050D01*
Y429660D01*
X1275335D01*
X1274849Y430833D01*
X1290576Y446560D01*
X1291590D01*
X1294827Y446879D01*
X1297939Y447823D01*
X1300807Y449356D01*
X1303321Y451419D01*
X1305384Y453933D01*
X1306917Y456801D01*
X1307861Y459913D01*
X1308180Y463150D01*
X1307861Y466386D01*
X1306917Y469499D01*
X1305384Y472367D01*
X1303321Y474881D01*
X1300807Y476944D01*
X1297939Y478477D01*
X1294827Y479421D01*
X1291590Y479740D01*
X1289050D01*
X1285813Y479421D01*
X1283487Y478715D01*
X1282814Y479838D01*
X1299436Y496460D01*
X1334770D01*
X1338085Y496897D01*
X1341175Y498177D01*
X1343572Y500016D01*
X1344842Y499623D01*
D02*
G37*
%LPC*%
G36*
X1308100Y429660D02*
X1291590D01*
Y414420D01*
X1308100D01*
Y429660D01*
D02*
G37*
G36*
X1289050Y411880D02*
X1272540D01*
Y396640D01*
X1289050D01*
Y411880D01*
D02*
G37*
%LPD*%
D20*
X759460Y904240D02*
D03*
Y929640D02*
D03*
Y955040D02*
D03*
X1214120Y469900D02*
D03*
X804900Y408940D02*
D03*
X768630Y796290D02*
D03*
Y586740D02*
D03*
X642900Y1055370D02*
D03*
X935710Y1122680D02*
D03*
X1059218Y891223D02*
D03*
X813360Y919480D02*
D03*
D45*
X1058900Y891540D02*
Y971830D01*
Y891540D02*
X1059218Y891223D01*
X1013460Y1017270D02*
X1058900Y971830D01*
X804900Y408940D02*
X806358Y410398D01*
X815241D02*
X869750Y464907D01*
Y514829D01*
X806358Y410398D02*
X815241D01*
X914400Y559479D02*
X915670D01*
X869750Y514829D02*
X914400Y559479D01*
X796058Y904240D02*
X811298Y919480D01*
X813360D01*
X759460Y904240D02*
X796058D01*
X730050Y858400D02*
Y874830D01*
X722630Y855980D02*
X727630D01*
X730050Y874830D02*
X759460Y904240D01*
X727630Y855980D02*
X730050Y858400D01*
X717630Y521970D02*
X722630D01*
X643890Y562610D02*
X676990D01*
X717630Y521970D01*
X643890Y588010D02*
X676990D01*
X717630Y547370D01*
X722630D01*
X676990Y613410D02*
X717630Y572770D01*
X722630D01*
X643890Y613410D02*
X676990D01*
X717630Y598170D02*
X722630D01*
X643890Y638810D02*
X676990D01*
X717630Y598170D01*
Y728980D02*
X722630D01*
X643890Y699770D02*
X688420D01*
X717630Y728980D01*
Y754380D02*
X722630D01*
X643890Y725170D02*
X688420D01*
X717630Y754380D01*
X643890Y750570D02*
X688420D01*
X717630Y779780D01*
X722630D01*
X688420Y775970D02*
X717630Y805180D01*
X722630D01*
X643890Y775970D02*
X688420D01*
X768630Y744580D02*
Y796290D01*
Y586740D02*
Y744580D01*
X727630Y648970D02*
X767172Y609428D01*
X722630Y648970D02*
X727630D01*
Y855980D02*
X767172Y816438D01*
Y797748D02*
Y816438D01*
Y797748D02*
X768630Y796290D01*
X727630Y703580D02*
X768630Y744580D01*
X722630Y703580D02*
X727630D01*
Y496570D02*
X768630Y537570D01*
X722630Y496570D02*
X727630D01*
X768630Y537570D02*
Y586740D01*
X990010Y559479D02*
X1168400Y737870D01*
X1169670D01*
X915670Y559479D02*
X990010D01*
X1169835Y737870D02*
X1187450Y755485D01*
Y872655D01*
X1169835Y890270D02*
X1187450Y872655D01*
X1169670Y737870D02*
X1169835D01*
X1169670Y890270D02*
X1169835D01*
X911277Y971550D02*
X933450Y949377D01*
X815340Y971550D02*
X911277D01*
X933450Y948690D02*
Y949377D01*
X768350Y1018540D02*
X815340Y971550D01*
X952014Y949176D02*
Y959336D01*
Y949176D02*
X952500Y948690D01*
X908536Y1002814D02*
X952014Y959336D01*
X802677Y1043940D02*
X843803Y1002814D01*
X748030Y1043940D02*
X802677D01*
X843803Y1002814D02*
X908536D01*
X748030Y1018540D02*
X768350D01*
X849630Y623570D02*
X899047D01*
X912338Y610279D01*
X915670D01*
X899047Y648970D02*
X912338Y635679D01*
X849630Y648970D02*
X899047D01*
X912338Y635679D02*
X915670D01*
X849795Y830415D02*
X866305D01*
X880110Y720769D02*
Y816610D01*
X849630Y830580D02*
X849795Y830415D01*
X866305D02*
X880110Y816610D01*
Y720769D02*
X914400Y686479D01*
X894080Y732199D02*
Y835660D01*
Y732199D02*
X914400Y711879D01*
X873760Y855980D02*
X894080Y835660D01*
X849630Y855980D02*
X873760D01*
X914400Y686479D02*
X915670D01*
X914400Y711879D02*
X915670D01*
X748030Y1069340D02*
X849630D01*
X882370D02*
X935710Y1122680D01*
X849630Y1069340D02*
X882370D01*
X937772Y1122680D02*
X951742Y1136650D01*
X935710Y1122680D02*
X937772D01*
X951742Y1136650D02*
X998220D01*
X1146438Y1137920D02*
X1153160D01*
X1115060Y1122680D02*
X1116275Y1123895D01*
X1132413D01*
X1146438Y1137920D01*
X1000125Y1138555D02*
X1097708D01*
X1113583Y1122680D02*
X1115060D01*
X998220Y1136650D02*
X1000125Y1138555D01*
X1097708D02*
X1113583Y1122680D01*
X1095411Y1103031D02*
X1115060Y1122680D01*
X1032859Y1103031D02*
X1095411D01*
X1013460Y1083632D02*
X1032859Y1103031D01*
X1013460Y1017270D02*
Y1083632D01*
D46*
X915987Y889997D02*
X1022992D01*
X1024218Y891858D02*
Y981113D01*
X1022992Y889997D02*
X1024218Y891223D01*
X988060Y1017270D02*
X1024218Y981113D01*
X1115060Y1087120D02*
X1139877Y1062303D01*
Y1053413D02*
Y1062303D01*
Y1053413D02*
X1140460Y1052830D01*
X1215390Y867410D02*
X1267930D01*
X1287780Y887260D01*
X1214807Y867993D02*
X1215390Y867410D01*
X803630Y586740D02*
Y796290D01*
X832578Y586740D02*
X844008Y598170D01*
X849630D01*
X803630Y586740D02*
X832578D01*
X849630Y496570D02*
Y521970D01*
Y547370D01*
Y572770D01*
Y598170D01*
Y703580D02*
Y728980D01*
Y754380D01*
Y779780D01*
Y805180D01*
X844008D02*
X849630D01*
X803630Y796290D02*
X835118D01*
X844008Y805180D01*
X828240Y862769D02*
X855151Y889679D01*
X915670D01*
X828240Y820900D02*
Y862769D01*
X803630Y796290D02*
X828240Y820900D01*
X1038131Y1121951D02*
X1038860Y1122680D01*
X988060Y1017270D02*
Y1077988D01*
X1032023Y1121951D01*
X1038131D01*
X1038860Y1017270D02*
Y1087120D01*
X1287780Y887260D02*
X1289050D01*
X1287780Y987590D02*
X1289050D01*
X1214120Y972820D02*
X1273010D01*
X1287780Y987590D01*
X1214120Y1074420D02*
X1275080D01*
X1287780Y1087120D01*
X1289050D01*
X1050932Y788079D02*
X1150620Y887767D01*
X915670Y788079D02*
X1050932D01*
X1135380Y894080D02*
Y903947D01*
X1214807Y867993D02*
Y871548D01*
X1154723Y923290D02*
X1164590D01*
X1178305Y908050D02*
X1214807Y871548D01*
X1135380Y903947D02*
X1154723Y923290D01*
X1161035Y908050D02*
X1178305D01*
X1164590Y923290D02*
X1214120Y972820D01*
X1150620Y897635D02*
X1161035Y908050D01*
X1054779Y813479D02*
X1135380Y894080D01*
X1150620Y887767D02*
Y897635D01*
X915670Y813479D02*
X1054779D01*
X1182350Y1042650D02*
X1214120Y1074420D01*
X1182350Y984638D02*
Y1042650D01*
X1036592Y838879D02*
X1182350Y984638D01*
X915670Y838879D02*
X1036592D01*
D47*
X692576Y896620D02*
X725596Y929640D01*
X594360Y896620D02*
X692576D01*
X725596Y929640D02*
X759460D01*
X724647Y955040D02*
X759460D01*
X711200Y942340D02*
X711947D01*
X724647Y955040D01*
X642620Y1089660D02*
X663338D01*
X692530Y1118852D01*
X623850Y1070890D02*
X642620Y1089660D01*
X623850Y1009165D02*
Y1070890D01*
X692530Y1118928D02*
X699770Y1126168D01*
X692530Y1118852D02*
Y1118928D01*
X699770Y1126168D02*
Y1127374D01*
Y1128374D02*
X725170Y1153774D01*
X699770Y1127374D02*
Y1128374D01*
X725170Y1153774D02*
Y1163320D01*
X635200Y942340D02*
Y997815D01*
X623850Y1009165D02*
X635200Y997815D01*
X725170Y1163320D02*
X772160D01*
X840740Y1094740D02*
X849630D01*
X772160Y1163320D02*
X840740Y1094740D01*
X916940Y432479D02*
X976039Y373380D01*
X1294128D02*
X1355090Y434342D01*
X976039Y373380D02*
X1294128D01*
X1332578Y693420D02*
X1355090Y670908D01*
Y434342D02*
Y670908D01*
X1281082Y693420D02*
X1332578D01*
X1270110Y682448D02*
X1281082Y693420D01*
X915670Y432479D02*
X916940D01*
X1270110Y674480D02*
Y682448D01*
X1268730Y673100D02*
X1270110Y674480D01*
X1268730Y756920D02*
Y816266D01*
X1254760Y830236D02*
X1268730Y816266D01*
X1254760Y830236D02*
Y830580D01*
X1268730Y673100D02*
X1268730Y673100D01*
X1268730Y673100D02*
Y756920D01*
D48*
X1289050Y463150D02*
X1290320D01*
X1253596Y427696D02*
X1289050Y463150D01*
X1248116Y427696D02*
X1253596D01*
X1214120Y393700D02*
X1248116Y427696D01*
X1294130Y509270D02*
X1334770D01*
X1273175Y488315D02*
X1294130Y509270D01*
X1232535Y488315D02*
X1273175D01*
X1214120Y469900D02*
X1232535Y488315D01*
X1320800Y580390D02*
X1334770Y566420D01*
X1320800Y580390D02*
Y671830D01*
X1334770Y509270D02*
Y566420D01*
X1319530Y673100D02*
X1320800Y671830D01*
D49*
X594360Y896620D02*
D03*
Y972820D02*
D03*
X613410Y855980D02*
D03*
X689610D02*
D03*
X1115060Y1087120D02*
D03*
X1038860D02*
D03*
X1064260Y1052830D02*
D03*
X1140460D02*
D03*
X1214120Y1049020D02*
D03*
Y972820D02*
D03*
Y1150620D02*
D03*
Y1074420D02*
D03*
X1215390Y943610D02*
D03*
Y867410D02*
D03*
D50*
X722630Y855980D02*
D03*
Y648970D02*
D03*
D51*
Y830580D02*
D03*
Y805180D02*
D03*
Y779780D02*
D03*
Y754380D02*
D03*
Y728980D02*
D03*
Y703580D02*
D03*
Y678180D02*
D03*
X849630Y855980D02*
D03*
Y830580D02*
D03*
Y805180D02*
D03*
Y779780D02*
D03*
Y754380D02*
D03*
Y728980D02*
D03*
Y703580D02*
D03*
Y678180D02*
D03*
X722630Y623570D02*
D03*
Y598170D02*
D03*
Y572770D02*
D03*
Y547370D02*
D03*
Y521970D02*
D03*
Y496570D02*
D03*
Y471170D02*
D03*
X849630Y648970D02*
D03*
Y623570D02*
D03*
Y598170D02*
D03*
Y572770D02*
D03*
Y547370D02*
D03*
Y521970D02*
D03*
Y496570D02*
D03*
Y471170D02*
D03*
D52*
X1214120Y393700D02*
D03*
D53*
X1268730Y756920D02*
D03*
X1320800Y580390D02*
D03*
D54*
X1319530Y756920D02*
D03*
X1270000Y580390D02*
D03*
D55*
X1254760Y830580D02*
D03*
X1330960D02*
D03*
X1334770Y509270D02*
D03*
X1258570D02*
D03*
X1115060Y1122680D02*
D03*
X1038860D02*
D03*
D56*
X1319530Y673100D02*
D03*
X1294130D02*
D03*
X1268730D02*
D03*
D57*
X1290320Y463150D02*
D03*
X1289050Y937260D02*
D03*
Y1037590D02*
D03*
Y1137120D02*
D03*
D58*
X586740Y1193800D02*
D03*
Y355600D02*
D03*
X1346200D02*
D03*
Y1193800D02*
D03*
D59*
X769900Y408940D02*
D03*
X803630Y796290D02*
D03*
Y586740D02*
D03*
X677900Y1055370D02*
D03*
X900710Y1122680D02*
D03*
X1024218Y891223D02*
D03*
X848360Y919480D02*
D03*
D60*
X1289050Y887260D02*
D03*
Y987590D02*
D03*
Y1087120D02*
D03*
X1290320Y413150D02*
D03*
D61*
X623570Y1127374D02*
D03*
D62*
X648970D02*
D03*
X674370D02*
D03*
X699770D02*
D03*
D63*
X643890Y562610D02*
D03*
Y588010D02*
D03*
Y613410D02*
D03*
Y699770D02*
D03*
Y725170D02*
D03*
Y750570D02*
D03*
D64*
Y638810D02*
D03*
Y775970D02*
D03*
D65*
X1169670Y890270D02*
D03*
Y864870D02*
D03*
Y839470D02*
D03*
Y814070D02*
D03*
Y788670D02*
D03*
Y763270D02*
D03*
Y737870D02*
D03*
Y712470D02*
D03*
Y687070D02*
D03*
Y661670D02*
D03*
Y636270D02*
D03*
Y610870D02*
D03*
Y585470D02*
D03*
Y560070D02*
D03*
Y534670D02*
D03*
Y509270D02*
D03*
Y483870D02*
D03*
Y458470D02*
D03*
Y431800D02*
D03*
X915670Y432479D02*
D03*
Y457879D02*
D03*
Y483279D02*
D03*
Y508679D02*
D03*
Y534079D02*
D03*
Y559479D02*
D03*
Y584879D02*
D03*
Y610279D02*
D03*
Y635679D02*
D03*
Y661079D02*
D03*
Y686479D02*
D03*
Y711879D02*
D03*
Y737279D02*
D03*
Y762679D02*
D03*
Y788079D02*
D03*
Y813479D02*
D03*
Y838879D02*
D03*
Y864279D02*
D03*
Y889679D02*
D03*
D66*
X988060Y1017270D02*
D03*
D67*
X1013460D02*
D03*
X1038860D02*
D03*
X1064260D02*
D03*
X1089660D02*
D03*
X1115060D02*
D03*
X1140460D02*
D03*
X1165860D02*
D03*
D68*
X998220Y1136650D02*
D03*
X1153160Y1137920D02*
D03*
D69*
X711200Y942340D02*
D03*
D70*
X635200D02*
D03*
D71*
X748030Y1145540D02*
D03*
X849630D02*
D03*
D72*
X748030Y1120140D02*
D03*
Y1094740D02*
D03*
Y1069340D02*
D03*
Y1043940D02*
D03*
Y1018540D02*
D03*
X849630Y1120140D02*
D03*
Y1094740D02*
D03*
Y1069340D02*
D03*
Y1043940D02*
D03*
Y1018540D02*
D03*
D73*
X952500Y948690D02*
D03*
X933450D02*
D03*
M02*
