G04*
G04 #@! TF.GenerationSoftware,Altium Limited,Altium Designer,24.1.2 (44)*
G04*
G04 Layer_Color=8388736*
%FSLAX44Y44*%
%MOMM*%
G71*
G04*
G04 #@! TF.SameCoordinates,C4369FD5-868E-4899-82D4-6BE1F75B83E0*
G04*
G04*
G04 #@! TF.FilePolarity,Negative*
G04*
G01*
G75*
%ADD19C,1.9812*%
%ADD20C,1.7780*%
%ADD21R,2.7032X1.7032*%
%ADD22O,2.7032X1.7032*%
%ADD23R,1.9812X1.9812*%
%ADD24R,2.1082X2.1082*%
%ADD25C,2.1082*%
%ADD26C,1.8542*%
%ADD27R,2.0032X2.2032*%
%ADD28O,3.2512X2.9972*%
%ADD29C,4.7752*%
%ADD30R,1.9812X1.9812*%
%ADD31R,3.2512X2.9972*%
G04:AMPARAMS|DCode=32|XSize=2.0032mm|YSize=1.8032mm|CornerRadius=0.5016mm|HoleSize=0mm|Usage=FLASHONLY|Rotation=90.000|XOffset=0mm|YOffset=0mm|HoleType=Round|Shape=RoundedRectangle|*
%AMROUNDEDRECTD32*
21,1,2.0032,0.8000,0,0,90.0*
21,1,1.0000,1.8032,0,0,90.0*
1,1,1.0032,0.4000,0.5000*
1,1,1.0032,0.4000,-0.5000*
1,1,1.0032,-0.4000,-0.5000*
1,1,1.0032,-0.4000,0.5000*
%
%ADD32ROUNDEDRECTD32*%
%ADD33O,1.8032X2.0032*%
%ADD34O,2.0032X1.8032*%
G04:AMPARAMS|DCode=35|XSize=2.0032mm|YSize=1.8032mm|CornerRadius=0.5016mm|HoleSize=0mm|Usage=FLASHONLY|Rotation=0.000|XOffset=0mm|YOffset=0mm|HoleType=Round|Shape=RoundedRectangle|*
%AMROUNDEDRECTD35*
21,1,2.0032,0.8000,0,0,0.0*
21,1,1.0000,1.8032,0,0,0.0*
1,1,1.0032,0.5000,-0.4000*
1,1,1.0032,-0.5000,-0.4000*
1,1,1.0032,-0.5000,0.4000*
1,1,1.0032,0.5000,0.4000*
%
%ADD35ROUNDEDRECTD35*%
%ADD36O,2.2352X1.9812*%
%ADD37R,1.7232X1.7232*%
%ADD38C,1.7232*%
%ADD39C,3.7032*%
%ADD40C,2.0032*%
%ADD41R,2.0032X2.0032*%
%ADD42R,1.7272X1.7272*%
%ADD43C,1.7272*%
%ADD44C,1.4732*%
D19*
X759460Y904240D02*
D03*
Y929640D02*
D03*
Y955040D02*
D03*
X1214120Y469900D02*
D03*
X804900Y408940D02*
D03*
X768630Y796290D02*
D03*
Y586740D02*
D03*
X642900Y1055370D02*
D03*
X935710Y1122680D02*
D03*
X1059218Y891223D02*
D03*
X813360Y919480D02*
D03*
D20*
X594360Y896620D02*
D03*
Y972820D02*
D03*
X613410Y855980D02*
D03*
X689610D02*
D03*
X1115060Y1087120D02*
D03*
X1038860D02*
D03*
X1064260Y1052830D02*
D03*
X1140460D02*
D03*
X1214120Y1049020D02*
D03*
Y972820D02*
D03*
Y1150620D02*
D03*
Y1074420D02*
D03*
X1215390Y943610D02*
D03*
Y867410D02*
D03*
D21*
X722630Y855980D02*
D03*
Y648970D02*
D03*
D22*
Y830580D02*
D03*
Y805180D02*
D03*
Y779780D02*
D03*
Y754380D02*
D03*
Y728980D02*
D03*
Y703580D02*
D03*
Y678180D02*
D03*
X849630Y855980D02*
D03*
Y830580D02*
D03*
Y805180D02*
D03*
Y779780D02*
D03*
Y754380D02*
D03*
Y728980D02*
D03*
Y703580D02*
D03*
Y678180D02*
D03*
X722630Y623570D02*
D03*
Y598170D02*
D03*
Y572770D02*
D03*
Y547370D02*
D03*
Y521970D02*
D03*
Y496570D02*
D03*
Y471170D02*
D03*
X849630Y648970D02*
D03*
Y623570D02*
D03*
Y598170D02*
D03*
Y572770D02*
D03*
Y547370D02*
D03*
Y521970D02*
D03*
Y496570D02*
D03*
Y471170D02*
D03*
D23*
X1214120Y393700D02*
D03*
D24*
X1268730Y756920D02*
D03*
X1320800Y580390D02*
D03*
D25*
X1319530Y756920D02*
D03*
X1270000Y580390D02*
D03*
D26*
X1254760Y830580D02*
D03*
X1330960D02*
D03*
X1334770Y509270D02*
D03*
X1258570D02*
D03*
X1115060Y1122680D02*
D03*
X1038860D02*
D03*
D27*
X1319530Y673100D02*
D03*
X1294130D02*
D03*
X1268730D02*
D03*
D28*
X1290320Y463150D02*
D03*
X1289050Y937260D02*
D03*
Y1037590D02*
D03*
Y1137120D02*
D03*
D29*
X586740Y1193800D02*
D03*
Y355600D02*
D03*
X1346200D02*
D03*
Y1193800D02*
D03*
D30*
X769900Y408940D02*
D03*
X803630Y796290D02*
D03*
Y586740D02*
D03*
X677900Y1055370D02*
D03*
X900710Y1122680D02*
D03*
X1024218Y891223D02*
D03*
X848360Y919480D02*
D03*
D31*
X1289050Y887260D02*
D03*
Y987590D02*
D03*
Y1087120D02*
D03*
X1290320Y413150D02*
D03*
D32*
X623570Y1127374D02*
D03*
D33*
X648970D02*
D03*
X674370D02*
D03*
X699770D02*
D03*
D34*
X643890Y562610D02*
D03*
Y588010D02*
D03*
Y613410D02*
D03*
Y699770D02*
D03*
Y725170D02*
D03*
Y750570D02*
D03*
D35*
Y638810D02*
D03*
Y775970D02*
D03*
D36*
X1169670Y890270D02*
D03*
Y864870D02*
D03*
Y839470D02*
D03*
Y814070D02*
D03*
Y788670D02*
D03*
Y763270D02*
D03*
Y737870D02*
D03*
Y712470D02*
D03*
Y687070D02*
D03*
Y661670D02*
D03*
Y636270D02*
D03*
Y610870D02*
D03*
Y585470D02*
D03*
Y560070D02*
D03*
Y534670D02*
D03*
Y509270D02*
D03*
Y483870D02*
D03*
Y458470D02*
D03*
Y431800D02*
D03*
X915670Y432479D02*
D03*
Y457879D02*
D03*
Y483279D02*
D03*
Y508679D02*
D03*
Y534079D02*
D03*
Y559479D02*
D03*
Y584879D02*
D03*
Y610279D02*
D03*
Y635679D02*
D03*
Y661079D02*
D03*
Y686479D02*
D03*
Y711879D02*
D03*
Y737279D02*
D03*
Y762679D02*
D03*
Y788079D02*
D03*
Y813479D02*
D03*
Y838879D02*
D03*
Y864279D02*
D03*
Y889679D02*
D03*
D37*
X988060Y1017270D02*
D03*
D38*
X1013460D02*
D03*
X1038860D02*
D03*
X1064260D02*
D03*
X1089660D02*
D03*
X1115060D02*
D03*
X1140460D02*
D03*
X1165860D02*
D03*
D39*
X998220Y1136650D02*
D03*
X1153160Y1137920D02*
D03*
D40*
X711200Y942340D02*
D03*
D41*
X635200D02*
D03*
D42*
X748030Y1145540D02*
D03*
X849630D02*
D03*
D43*
X748030Y1120140D02*
D03*
Y1094740D02*
D03*
Y1069340D02*
D03*
Y1043940D02*
D03*
Y1018540D02*
D03*
X849630Y1120140D02*
D03*
Y1094740D02*
D03*
Y1069340D02*
D03*
Y1043940D02*
D03*
Y1018540D02*
D03*
D44*
X952500Y948690D02*
D03*
X933450D02*
D03*
M02*
